<?xml version="1.0" encoding="UTF-8" standalone="no"?>
<!-- Created with Inkscape (http://www.inkscape.org/) -->

<svg
   width="1080"
   height="1080"
   viewBox="0 0 1080 1080"
   version="1.1"
   id="svg1"
   sodipodi:docname="Riesgo biologico (diseño propio).svg"
   inkscape:version="1.3.2 (091e20e, 2023-11-25, custom)"
   inkscape:export-filename="..\..\..\Downloads\Riesgo biologico (diseño propio).png"
   inkscape:export-xdpi="96"
   inkscape:export-ydpi="96"
   xmlns:inkscape="http://www.inkscape.org/namespaces/inkscape"
   xmlns:sodipodi="http://sodipodi.sourceforge.net/DTD/sodipodi-0.dtd"
   xmlns="http://www.w3.org/2000/svg"
   xmlns:svg="http://www.w3.org/2000/svg">
  <sodipodi:namedview
     id="namedview1"
     pagecolor="#ffffff"
     bordercolor="#000000"
     borderopacity="0.25"
     inkscape:showpageshadow="2"
     inkscape:pageopacity="0.0"
     inkscape:pagecheckerboard="0"
     inkscape:deskcolor="#d1d1d1"
     inkscape:document-units="px"
     inkscape:zoom="0.47922891"
     inkscape:cx="877.45123"
     inkscape:cy="579.05521"
     inkscape:window-width="1920"
     inkscape:window-height="991"
     inkscape:window-x="-9"
     inkscape:window-y="-9"
     inkscape:window-maximized="1"
     inkscape:current-layer="layer1"
     inkscape:export-bgcolor="#ffffff00" />
  <defs
     id="defs1">
    <inkscape:path-effect
       effect="bspline"
       id="path-effect8"
       is_visible="true"
       lpeversion="1.3"
       weight="33.333333"
       steps="2"
       helper_size="0"
       apply_no_weight="true"
       apply_with_weight="true"
       only_selected="false"
       uniform="false" />
    <inkscape:path-effect
       effect="bspline"
       id="path-effect7"
       is_visible="true"
       lpeversion="1.3"
       weight="33.333333"
       steps="2"
       helper_size="0"
       apply_no_weight="true"
       apply_with_weight="true"
       only_selected="false"
       uniform="false" />
    <inkscape:path-effect
       effect="bspline"
       id="path-effect6"
       is_visible="true"
       lpeversion="1.3"
       weight="33.333333"
       steps="2"
       helper_size="0"
       apply_no_weight="true"
       apply_with_weight="true"
       only_selected="false"
       uniform="false" />
  </defs>
  <g
     inkscape:label="Capa 1"
     inkscape:groupmode="layer"
     id="layer1">
    <path
       id="path8"
       style="fill:#ff0000;fill-opacity:1;stroke:#fe0000;stroke-width:1.19311;stroke-dasharray:none;stroke-opacity:1"
       d="m 575.33179,68.601775 v 12.814324 c 7.36275,1.262452 14.52603,3.012713 21.57856,5.007809 a 207.80577,207.74915 0 0 1 4.63964,1.456449 c 8.17781,2.5217 16.1558,5.4433 23.8413,8.892414 a 207.80577,207.74915 0 0 1 1.39351,0.577922 c 8.36381,3.826697 16.33487,8.278627 24.03238,13.119587 a 207.80577,207.74915 0 0 1 3.06902,1.95978 c 7.75869,5.07147 15.18406,10.56413 22.15648,16.58241 a 207.80577,207.74915 0 0 1 0.48937,0.44742 c 14.78681,12.84566 27.62266,27.73922 38.2612,44.16617 a 207.80577,207.74915 0 0 1 0.261,0.40547 c 21.04201,32.65606 33.27826,71.31719 33.29066,112.52552 -0.12803,34.49762 -8.98001,68.1112 -25.16725,98.08467 a 285.76778,285.76778 0 0 0 -0.0769,-0.0536 207.80577,207.74915 0 0 1 -39.90172,52.13113 220.13673,220.13673 0 0 1 0.20738,0.14914 c -36.48513,34.79185 -84.55402,55.22621 -135.34149,57.28578 v 36.78611 a 67.979781,67.979777 0 0 1 60.76025,66.54404 67.979781,67.979777 0 0 1 -8.65472,33.07396 l 29.37575,16.95991 0.37284,-0.64316 c 25.06624,-42.34355 64.2401,-73.71658 109.97386,-89.80044 a 208.06446,207.0999 87.712309 0 1 4.04539,-1.31429 c 3.42431,-1.12699 6.79397,-2.38847 10.28596,-3.34165 a 220.13673,220.13673 0 0 1 0.10487,0.54529 208.06446,207.0999 87.712309 0 1 66.05934,-7.17732 285.76778,285.76778 0 0 0 -0.0886,-0.55927 c 2.22931,0.11191 4.42314,0.53607 6.64603,0.71772 a 208.06446,207.0999 87.712309 0 1 4.18987,0.45209 c 28.71272,2.92111 56.76331,11.3416 82.17802,25.88963 87.63151,50.7811 126.00581,157.25976 90.91661,252.26896 l 11.034,6.37104 c 59.3694,-138.43699 5.9701,-299.40851 -124.37041,-374.91266 -19.45403,-10.87029 -40.06758,-19.52183 -61.45234,-25.79175 5.26125,-21.65409 8.07455,-43.83096 8.38674,-66.11296 C 837.78417,213.34877 725.03562,86.421273 575.33179,68.601775 Z m -70.37041,0.342546 C 355.38705,86.748256 242.68235,213.47946 242.46473,364.10943 c 0.31201,22.28279 3.12522,44.46046 8.38676,66.11529 -21.38317,6.27015 -41.99524,14.92178 -61.44769,25.79176 C 58.863288,531.43526 5.3151674,692.54214 64.735077,831.09924 l 11.096887,-6.406 c -2.297483,-6.22084 -4.244585,-12.49366 -5.918953,-18.79386 a 207.95801,208.45337 4.481011 0 1 -2.143882,-9.61948 c -1.383463,-6.41862 -2.468922,-12.84636 -3.232121,-19.28789 a 207.95801,208.45337 4.481011 0 1 -0.692101,-5.27348 c -0.816687,-8.82058 -0.92755,-17.61372 -0.619858,-26.36966 a 207.95801,208.45337 4.481011 0 1 0.177092,-3.91725 c 3.703414,-68.49479 41.036899,-133.00748 103.581849,-169.14249 16.96251,-9.70964 35.09965,-16.76108 53.81127,-21.29894 a 207.95801,208.45337 4.481011 0 1 2.04135,-0.51266 c 8.38607,-1.94457 16.87942,-3.39036 25.44455,-4.29475 a 207.95801,208.45337 4.481011 0 1 7.41036,-0.59656 c 2.13088,-0.14982 4.25575,-0.35703 6.39201,-0.44275 a 285.76778,285.76778 0 0 0 -0.0489,0.29129 207.95801,208.45337 4.481011 0 1 65.29266,7.6457 220.13673,220.13673 0 0 1 0.0652,-0.34488 c 1.91105,0.53622 3.73693,1.28449 5.62766,1.87357 a 207.95801,208.45337 4.481011 0 1 9.89678,3.2927 c 7.56605,2.77872 14.98183,5.8857 22.13786,9.4983 a 207.95801,208.45337 4.481011 0 1 4.29474,2.40954 c 6.79521,3.63449 13.34237,7.66545 19.68406,12.02203 a 207.95801,208.45337 4.481011 0 1 4.06637,2.81731 c 22.8685,16.52316 42.5105,37.55036 57.22284,62.40311 l 0.70375,1.11156 31.38449,-18.12041 a 67.979781,67.979777 0 0 1 -9.54492,-32.55895 67.979781,67.979777 0 0 1 60.75792,-66.54173 V 494.24506 C 485.86885,492.63041 440.5912,474.54445 404.84235,443.74978 a 207.80577,207.74915 0 0 1 -1.47742,-1.27701 c -1.91734,-1.68326 -3.93159,-3.23849 -5.7908,-4.99615 a 220.13673,220.13673 0 0 1 0.45907,-0.33324 207.80577,207.74915 0 0 1 -39.87609,-51.77227 285.76778,285.76778 0 0 0 -0.4847,0.33789 c -16.55667,-30.23764 -25.59465,-64.24768 -25.72418,-99.15195 0.0493,-30.79095 6.91279,-60.17101 19.13643,-86.69181 a 207.80577,207.74915 0 0 1 0.0186,-0.0396 c 3.76411,-8.16225 8.11087,-15.9917 12.86792,-23.55934 a 207.80577,207.74915 0 0 1 3.07832,-4.77245 c 4.58157,-6.86642 9.45987,-13.51525 14.81371,-19.78425 a 207.80577,207.74915 0 0 1 4.69322,-5.09869 c 4.26037,-4.66602 8.72606,-9.1299 13.39923,-13.39689 a 207.80577,207.74915 0 0 1 6.15433,-5.63001 c 5.57199,-4.69298 11.46447,-9.01535 17.52851,-13.11725 a 207.80577,207.74915 0 0 1 9.02759,-5.76517 c 5.04238,-3.04404 10.23007,-5.86826 15.55242,-8.48929 a 207.80577,207.74915 0 0 1 13.57167,-6.02615 c 3.96797,-1.611986 7.97754,-3.128801 12.07094,-4.502151 a 207.80577,207.74915 0 0 1 12.43449,-3.90324 c 6.1076,-1.631001 12.33044,-3.008079 18.6657,-4.094338 z M 540.84567,318.87598 A 285.76778,285.76778 0 0 0 366.96802,379.19814 197.05723,197.0035 0 0 0 406.7975,430.8073 220.13673,220.13673 0 0 1 540.84567,383.5791 220.13673,220.13673 0 0 1 674.07825,430.17578 197.05723,197.0035 0 0 0 713.83548,378.1728 285.76778,285.76778 0 0 0 540.84567,318.87598 Z M 280.37172,555.72302 a 197.20154,197.6713 4.479506 0 0 -20.18506,0.4847 285.76778,285.76778 0 0 0 -5.108,48.43763 285.76778,285.76778 0 0 0 176.79753,262.6085 197.20154,197.6713 4.479506 0 0 28.61841,-59.71628 220.13673,220.13673 0 0 1 -139.78538,-203.82202 220.13673,220.13673 0 0 1 4.60002,-40.08581 197.20154,197.6713 4.479506 0 0 -44.93752,-7.90672 z m 519.26542,0.27265 a 197.30251,196.38785 87.713256 0 0 -43.28532,7.49425 220.13673,220.13673 0 0 1 4.63031,40.22563 220.13673,220.13673 0 0 1 -140.16988,204.00844 197.30251,196.38785 87.713256 0 0 28.29217,59.81416 285.76778,285.76778 0 0 0 177.50828,-262.8928 285.76778,285.76778 0 0 0 -4.50915,-48.10904 197.30251,196.38785 87.713256 0 0 -22.46641,-0.54064 z m -309.18422,86.08129 -32.80595,18.94067 c 0.83783,1.70945 1.47172,3.48818 2.26039,5.21521 a 207.95801,208.45337 4.481011 0 1 2.19981,5.08005 c 1.83598,4.3207 3.55205,8.66819 5.0847,13.07998 a 207.95801,208.45337 4.481011 0 1 2.12291,6.50852 c 1.22161,3.92912 2.34383,7.87138 3.32769,11.85426 a 207.95801,208.45337 4.481011 0 1 1.86423,8.24459 c 0.66548,3.25769 1.2677,6.51696 1.77568,9.79892 a 207.95801,208.45337 4.481011 0 1 1.40984,10.82655 c 0.20778,2.04952 0.42414,4.09266 0.57091,6.14735 a 207.95801,208.45337 4.481011 0 1 0.53831,14.64593 c 8.5e-4,1.05056 0.0407,2.09743 0.0256,3.14824 a 207.95801,208.45337 4.481011 0 1 -0.98804,17.60309 c -0.0367,0.36764 -0.0617,0.7347 -0.10018,1.10222 A 207.95801,208.45337 4.481011 0 1 374.84675,933.70468 207.95801,208.45337 4.481011 0 1 110.76317,885.78439 l -10.54461,6.08675 c 90.20512,120.63266 256.30911,154.87276 386.8671,79.74753 19.30767,-11.20313 37.29453,-24.54267 53.62019,-39.76659 15.97737,15.15521 33.58747,28.49091 52.50632,39.76193 130.58407,75.34219 296.88071,41.16389 387.16536,-79.57276 l -11.09916,-6.40833 c -9.4727,11.3978 -20.03871,21.39851 -31.28899,30.27759 a 208.06446,207.0999 87.712309 0 1 -6.47357,4.96354 c -1.4231,1.03495 -2.81235,2.12219 -4.25746,3.11794 a 208.06446,207.0999 87.712309 0 1 -14.20319,9.01828 c -0.0142,0.008 -0.0278,0.0175 -0.042,0.0255 a 208.06446,207.0999 87.712309 0 1 -0.0256,0.014 208.06446,207.0999 87.712309 0 1 -207.43398,0.22372 208.06446,207.0999 87.712309 0 1 -3.91025,-2.65888 c -6.21191,-3.78133 -12.21335,-7.8337 -17.95495,-12.21077 a 208.06446,207.0999 87.712309 0 1 -6.97692,-5.76516 c -4.91368,-4.09628 -9.62312,-8.38322 -14.12628,-12.90054 a 208.06446,207.0999 87.712309 0 1 -5.40165,-5.55079 c -6.44593,-6.96604 -12.58567,-14.20509 -18.02718,-21.9887 a 285.76778,285.76778 0 0 0 0.2237,-0.10487 208.06446,207.0999 87.712309 0 1 -28.3947,-59.91203 220.13673,220.13673 0 0 1 -0.4917,0.22371 c -15.2245,-50.44187 -10.77928,-104.6984 12.49267,-152.00066 l -31.26563,-18.05049 a 67.979781,67.979777 0 0 1 -50.87511,23.11191 67.979781,67.979777 0 0 1 -50.39274,-23.38923 z" />
  </g>
</svg>
