<?xml version="1.0" standalone="no"?>
<!DOCTYPE svg PUBLIC "-//W3C//DTD SVG 20010904//EN"
 "http://www.w3.org/TR/2001/REC-SVG-20010904/DTD/svg10.dtd">
<svg version="1.0" xmlns="http://www.w3.org/2000/svg"
 width="650.000000pt" height="278.000000pt" viewBox="0 0 650.000000 278.000000"
 preserveAspectRatio="xMidYMid meet">

<g transform="translate(0.000000,278.000000) scale(0.100000,-0.100000)"
fill="#000000" stroke="none">
<path d="M98 2383 c-1 -159 -3 -319 -4 -358 -1 -38 0 -87 3 -107 4 -33 7 -37
23 -28 23 13 187 13 194 1 4 -5 1 -11 -6 -13 -9 -3 -8 -9 4 -21 22 -23 38 -21
38 3 0 11 7 20 15 20 9 0 15 9 15 24 0 16 -5 23 -17 22 -10 0 -19 7 -21 17 -2
10 3 17 12 17 9 0 16 -5 16 -11 0 -20 19 2 25 30 3 16 20 50 37 77 32 51 96
222 118 314 7 30 16 62 20 70 58 120 90 177 113 201 l27 29 -117 -1 c-65 0
-112 -3 -106 -6 18 -7 16 -21 -6 -45 -11 -11 -17 -27 -14 -35 4 -10 0 -13 -12
-11 -13 2 -21 -5 -26 -22 l-7 -25 -1 28 c-1 32 24 98 42 109 7 4 -72 8 -175 8
l-188 0 -2 -287z"/>
<path d="M853 2663 c32 -2 81 -2 110 0 29 2 3 3 -58 3 -60 0 -84 -1 -52 -3z"/>
<path d="M1085 2577 c0 -50 4 -97 8 -104 4 -6 3 -13 -2 -15 -5 -1 -25 -48 -46
-103 -20 -55 -41 -105 -46 -111 -5 -6 -15 -43 -24 -83 -8 -40 -26 -101 -40
-134 -13 -34 -36 -109 -50 -167 -14 -58 -31 -116 -37 -130 -13 -31 -37 -162
-31 -173 3 -4 13 -5 23 -2 9 3 62 6 116 6 114 1 221 -28 303 -81 56 -35 71
-37 71 -10 0 12 6 49 14 83 8 34 20 96 27 137 16 99 49 168 107 224 65 64 121
88 212 93 67 4 81 2 130 -24 49 -25 59 -36 92 -101 27 -51 39 -87 40 -122 1
-28 5 -50 9 -50 7 0 59 75 59 85 0 11 46 70 74 95 15 14 46 44 68 66 66 70
193 119 333 130 71 5 88 3 150 -21 39 -14 78 -29 87 -32 12 -3 22 6 37 36 12
22 21 47 21 56 0 9 7 18 15 21 17 7 28 41 50 154 14 67 28 104 70 176 29 49
72 114 94 142 l41 52 -987 0 -988 0 0 -93z m1260 51 c-8 -38 -25 -72 -31 -65
-3 2 0 25 7 51 13 52 35 65 24 14z m355 28 c0 -11 -19 -15 -25 -6 -3 5 1 10 9
10 9 0 16 -2 16 -4z m-1429 -426 c23 -47 45 -87 49 -90 8 -6 8 -80 -1 -80 -8
0 -29 -72 -29 -99 0 -12 -7 -35 -15 -52 -15 -28 -14 -31 11 -64 20 -27 24 -41
19 -64 -15 -71 -46 -47 -79 63 -26 83 -25 128 1 124 21 -4 26 69 6 76 -8 3
-11 11 -7 17 4 7 -1 18 -11 25 -17 12 -17 14 -1 20 22 9 48 -14 41 -37 -4 -13
-1 -19 9 -19 10 0 16 9 16 25 0 14 -4 25 -10 25 -5 0 -10 7 -10 15 0 9 -9 15
-25 15 -23 0 -24 2 -22 56 2 46 0 58 -14 61 -9 3 -22 16 -28 29 -6 13 -18 24
-26 24 -9 0 -13 5 -10 10 4 6 11 8 16 5 16 -10 -11 49 -32 68 -19 18 -24 38
-13 50 15 15 126 -121 165 -203z m-71 -276 c0 -8 -4 -12 -10 -9 -5 3 -10 13
-10 21 0 8 5 12 10 9 6 -3 10 -13 10 -21z"/>
<path d="M3160 2660 c25 -4 35 -8 23 -8 -38 -3 -83 -35 -83 -59 0 -13 -4 -23
-10 -23 -5 0 -10 7 -10 16 0 8 -5 12 -11 8 -6 -3 -9 -17 -6 -31 3 -19 -2 -27
-27 -40 -50 -25 -74 -52 -68 -75 4 -15 2 -19 -7 -13 -8 4 -19 -2 -29 -16 -17
-24 -19 -31 -21 -76 -1 -13 -7 -23 -15 -23 -17 0 -26 -22 -26 -65 0 -18 -7
-38 -15 -45 -8 -7 -15 -18 -15 -24 0 -7 -8 -30 -19 -52 -10 -21 -22 -55 -26
-74 -4 -19 -11 -40 -16 -46 -6 -8 -5 -17 3 -26 7 -8 18 -22 24 -33 14 -24 111
-77 119 -65 12 19 27 10 22 -12 -5 -17 13 -40 89 -116 75 -76 94 -102 94 -124
0 -16 -4 -27 -9 -23 -13 7 -24 -12 -26 -44 -3 -47 -5 -51 -20 -51 -7 0 -19 8
-24 18 -8 13 -10 14 -11 2 0 -9 -5 -7 -16 8 -9 13 -13 26 -9 30 3 3 10 1 14
-7 7 -10 9 -10 14 2 3 8 -4 24 -17 36 -24 22 -44 18 -25 -6 17 -20 -15 -17
-36 3 -8 9 -22 13 -30 10 -8 -3 -15 -1 -15 3 0 5 7 11 15 15 22 8 18 30 -10
64 -21 25 -23 34 -15 63 12 42 2 54 -50 54 -23 0 -42 5 -44 12 -3 7 -10 13
-17 13 -6 0 -9 -7 -6 -15 4 -8 2 -17 -4 -21 -6 -3 -3 -11 8 -19 10 -7 15 -16
11 -20 -12 -12 -46 5 -51 25 -3 11 -13 20 -24 21 -13 1 -11 3 7 8 32 9 40 41
10 41 -29 0 -62 -19 -55 -31 4 -5 1 -9 -4 -9 -18 0 -12 26 9 45 11 10 17 22
13 26 -10 10 -93 -1 -93 -12 0 -5 -4 -9 -10 -9 -5 0 -10 7 -10 15 0 11 -10 14
-37 12 -33 -2 -38 1 -41 21 -4 27 -32 30 -32 2 0 -11 -7 -20 -15 -20 -8 0 -15
6 -15 14 0 8 -14 16 -37 19 -41 5 -67 -8 -44 -22 9 -6 2 -11 -23 -15 -24 -5
-36 -12 -36 -23 0 -15 -2 -14 -13 1 -12 17 -14 17 -20 2 -4 -9 -15 -16 -26
-16 -11 0 -21 -5 -23 -12 -4 -11 -16 -13 -76 -17 -7 -1 -10 -6 -7 -11 3 -6 -5
-14 -18 -19 -13 -5 -27 -17 -30 -25 -4 -9 -15 -16 -26 -16 -30 0 -72 -56 -65
-86 4 -17 2 -24 -9 -24 -18 0 -87 -67 -106 -103 -8 -15 -18 -27 -23 -27 -5 0
-30 -21 -57 -47 -26 -27 -60 -55 -77 -63 -51 -25 -84 -51 -84 -65 0 -8 18 -33
40 -56 22 -23 40 -44 40 -45 0 -7 -54 26 -61 37 -6 10 -11 10 -23 0 -11 -9
-20 -10 -28 -4 -14 11 -113 11 -124 1 -9 -10 5 -46 33 -78 47 -56 63 -122 63
-260 0 -134 -10 -170 -65 -230 -26 -29 -49 -70 -42 -76 2 -3 30 2 63 11 79 20
159 19 236 -5 76 -23 135 -70 183 -146 19 -30 40 -54 46 -54 12 0 52 20 59 30
10 14 165 100 181 100 25 0 132 73 166 114 19 23 33 33 37 27 4 -6 4 -17 -1
-24 -4 -6 -8 -36 -9 -66 -1 -38 -7 -57 -18 -63 -25 -14 -19 -28 14 -28 23 0
30 -4 30 -20 0 -11 5 -20 11 -20 6 0 8 8 4 19 -3 11 -2 22 3 25 12 7 36 -20
28 -33 -9 -14 4 -41 19 -41 7 0 13 6 12 12 0 7 1 22 2 33 2 19 3 19 11 -2 13
-33 27 -28 22 7 -4 25 -1 30 17 30 11 0 29 -8 39 -18 10 -10 23 -17 30 -14 7
2 11 -11 10 -40 -1 -24 4 -90 12 -148 13 -103 14 -106 59 -157 l46 -52 418 0
c229 -1 417 3 417 8 0 4 63 48 139 96 84 53 145 99 153 114 7 14 18 31 25 36
6 6 13 19 15 30 3 18 12 20 88 21 47 1 113 7 147 13 134 25 267 -15 358 -108
45 -45 54 -61 35 -61 -14 0 -12 -27 3 -33 6 -3 2 -6 -10 -6 -12 -1 -24 6 -27
16 -2 10 -2 2 1 -18 2 -20 0 -53 -5 -73 l-10 -36 676 0 c372 0 671 4 664 8 -7
5 -10 16 -7 25 5 11 -3 21 -24 32 -28 14 -38 35 -32 68 1 5 -12 25 -29 44 -17
19 -29 41 -26 49 3 8 1 14 -4 14 -6 0 -10 7 -10 15 0 8 -5 15 -11 15 -8 0 -8
4 0 14 10 12 7 15 -16 18 -21 2 -27 8 -25 23 9 73 8 85 -9 101 -13 12 -16 21
-9 34 11 21 2 62 -13 53 -7 -4 -8 0 -4 11 4 10 7 20 7 22 0 2 8 4 18 5 13 0
12 3 -5 11 -24 12 -32 30 -10 26 8 -2 11 8 9 34 -3 27 1 39 15 47 17 10 17 10
1 11 -10 0 -18 5 -18 10 0 6 7 10 15 10 8 0 15 5 15 10 0 6 -6 10 -14 10 -7 0
-20 8 -27 17 -12 14 -12 16 1 9 8 -4 0 7 -19 24 -21 20 -40 30 -52 27 -25 -7
-24 9 1 30 26 23 25 32 -4 43 -13 5 -30 22 -37 39 -14 32 -19 35 -81 45 -40 7
-51 23 -43 64 3 15 2 21 -1 15 -3 -7 -12 -13 -20 -13 -8 0 -14 -4 -14 -10 0
-5 -8 -10 -17 -10 -14 0 -15 -2 -5 -9 9 -5 11 -17 6 -35 -8 -32 -16 -38 -57
-39 -31 -1 -32 -3 -34 -46 -2 -48 -7 -55 -40 -65 -22 -7 -22 -7 -7 41 8 26 16
53 18 58 5 20 36 111 54 163 10 28 27 61 37 72 20 22 74 39 143 46 55 5 61 10
36 29 -27 20 -105 13 -142 -14 -38 -27 -45 -27 -36 1 10 32 32 51 52 46 10 -3
23 1 30 9 7 7 23 13 35 13 18 0 19 2 7 10 -19 12 -3 30 31 34 13 1 34 8 47 15
12 6 28 9 34 5 6 -4 8 -3 5 3 -4 6 0 14 9 17 8 3 13 10 9 15 -3 6 3 14 12 20
10 6 13 11 8 11 -12 0 -14 80 -3 80 5 0 8 7 8 15 0 8 -5 15 -11 15 -6 0 -8 8
-4 19 6 19 -32 71 -52 71 -5 0 -18 9 -28 20 -10 11 -24 20 -31 20 -13 0 -44
54 -44 77 0 8 -4 12 -9 9 -5 -3 -23 -3 -40 0 -23 5 -29 10 -21 19 13 15 -29
104 -50 105 -8 0 -23 7 -33 15 -18 13 -17 14 5 17 16 2 22 9 20 21 -2 13 2 18
15 15 10 -2 18 -10 18 -17 0 -8 6 -16 13 -18 14 -5 16 13 2 22 -12 8 -13 45
-1 45 9 0 29 -21 30 -32 1 -5 1 -11 2 -15 0 -5 4 1 8 12 5 12 4 23 -3 27 -6 4
1 8 17 8 28 0 37 15 15 23 -9 3 -6 10 9 21 24 18 26 62 2 76 -11 7 -10 13 6
31 l20 22 -24 -8 c-21 -6 -23 -5 -18 17 5 19 0 31 -20 49 -24 23 -25 23 -14 2
15 -29 14 -43 -3 -43 -9 0 -17 15 -21 40 -6 36 -9 40 -28 34 -19 -6 -20 -5 -9
9 9 11 10 17 2 22 -15 9 -80 -26 -80 -42 0 -7 -7 -13 -15 -13 -8 0 -15 6 -15
14 0 14 -7 14 -50 4 -9 -2 -14 3 -12 11 2 9 -3 11 -13 7 -9 -3 -19 -6 -21 -6
-2 0 -2 -11 2 -24 5 -19 0 -26 -25 -37 -17 -8 -31 -20 -31 -27 0 -24 -30 -72
-46 -72 -9 0 -14 -7 -12 -17 2 -12 -4 -19 -18 -21 -15 -2 -24 -13 -28 -34 -3
-16 -3 -34 0 -39 3 -5 -2 -6 -10 -3 -8 3 -16 11 -19 17 -5 15 17 185 27 210
10 21 -3 22 -30 2 -24 -18 -40 -19 -25 -1 9 11 7 15 -9 19 -16 4 -24 -1 -31
-21 -22 -58 -81 -83 -93 -39 -11 40 -7 49 15 42 19 -6 20 -4 14 27 -4 18 -12
39 -19 47 -8 11 -8 15 2 19 11 3 10 7 -1 21 -19 21 -28 71 -13 71 6 1 1 9 -11
19 -27 23 -28 28 -8 47 8 8 11 22 7 32 -6 16 -7 16 -10 0 -2 -10 -10 -18 -19
-18 -11 0 -14 6 -10 21 7 26 -1 49 -18 49 -7 0 -15 7 -19 15 -3 8 -18 16 -33
17 -15 1 1 4 37 8 36 4 -61 7 -215 7 -154 0 -262 -3 -240 -7 35 -6 37 -7 10
-9 -21 -1 -26 -4 -17 -10 10 -6 5 -10 -17 -14 -25 -5 -33 -13 -37 -36 -4 -17
-10 -29 -14 -28 -12 3 -45 -38 -65 -82 -12 -27 -27 -43 -48 -50 -16 -6 -32
-11 -33 -11 -13 0 0 84 25 160 l29 90 -80 0 c-72 0 -79 -2 -73 -17 14 -35 27
-159 23 -212 -3 -37 -10 -56 -22 -63 -10 -6 -15 -16 -11 -27 3 -11 -3 -25 -16
-37 -21 -19 -22 -19 -15 2 4 15 2 24 -9 28 -18 6 -21 30 -3 24 7 -3 19 2 27 9
11 12 12 31 3 108 -11 98 -26 133 -70 156 -16 9 -19 15 -10 21 7 4 -38 8 -99
8 -111 0 -128 -5 -98 -30 8 -7 12 -16 9 -21 -7 -12 15 -79 26 -79 4 0 6 8 3
19 -3 10 -1 21 4 24 20 12 34 -13 40 -67 5 -50 9 -59 34 -72 16 -8 29 -19 29
-24 0 -6 6 -10 14 -10 16 0 46 -53 46 -82 0 -15 -5 -17 -25 -12 -25 6 -36 -11
-12 -19 6 -2 1 -2 -13 0 -14 3 -27 8 -30 13 -3 4 -31 16 -62 25 -36 10 -58 22
-58 31 0 8 -7 14 -15 14 -8 0 -15 -4 -15 -9 0 -5 -6 -16 -13 -23 -7 -7 -22
-29 -34 -48 -37 -60 -135 -153 -174 -165 -13 -4 -29 -15 -36 -24 -11 -15 -12
-15 -13 1 0 9 -6 19 -12 21 -7 3 2 6 20 6 21 1 32 6 32 16 0 8 9 15 20 15 15
0 20 7 20 25 0 18 5 25 19 25 11 0 23 9 26 20 3 11 13 20 21 20 20 0 17 27 -3
34 -10 3 -6 4 10 2 22 -3 25 -1 16 10 -9 11 -7 15 5 20 13 5 14 9 5 20 -9 11
-8 18 1 29 10 12 10 18 1 29 -9 11 -9 16 -1 21 7 4 10 16 7 26 -3 10 -1 21 4
24 10 7 6 61 -4 72 -4 3 -7 15 -7 26 0 14 -5 18 -20 14 -11 -3 -20 -1 -20 4 0
5 4 9 9 9 5 0 9 11 9 25 0 23 -4 25 -52 27 l-51 1 55 7 c32 4 -31 7 -150 7
-114 0 -185 -3 -160 -7z m2186 -349 c-12 -19 -24 -12 -19 10 4 13 9 17 15 11
6 -6 7 -15 4 -21z m-1456 -21 c0 -5 -4 -10 -10 -10 -5 0 -10 5 -10 10 0 6 5
10 10 10 6 0 10 -4 10 -10z m1460 -14 c0 -11 -19 -15 -25 -6 -3 5 1 10 9 10 9
0 16 -2 16 -4z m-1440 -45 c0 -5 -9 -11 -20 -14 -23 -6 -25 -2 -7 17 12 14 27
12 27 -3z m1565 -81 c3 -5 1 -10 -4 -10 -6 0 -11 5 -11 10 0 6 2 10 4 10 3 0
8 -4 11 -10z m-943 -36 c26 -8 60 -61 61 -97 1 -30 -27 -87 -43 -87 -4 0 -5
21 -3 48 3 42 1 49 -22 66 -15 10 -44 20 -66 23 -34 5 -42 2 -69 -27 -29 -32
-30 -32 -30 -8 0 30 16 51 60 77 33 20 54 21 112 5z m-1182 -8 c0 -3 -4 -8
-10 -11 -5 -3 -10 -1 -10 4 0 6 5 11 10 11 6 0 10 -2 10 -4z m-54 -42 c-19
-13 -46 -19 -46 -9 0 8 55 34 60 28 3 -2 -4 -11 -14 -19z m-251 -114 c-3 -5
-14 -10 -23 -9 -14 0 -13 2 3 9 27 11 27 11 20 0z m664 -1 c31 -11 59 -45 47
-57 -4 -3 -20 4 -36 16 -16 12 -34 22 -40 22 -5 0 -10 7 -10 15 0 18 -1 18 39
4z m971 -64 c13 -15 5 -55 -11 -55 -5 0 -12 7 -15 15 -4 8 -12 15 -20 15 -16
0 -16 2 -8 24 8 20 38 21 54 1z m340 5 c0 -5 -7 -10 -15 -10 -8 0 -15 5 -15
10 0 6 7 10 15 10 8 0 15 -4 15 -10z m104 -4 c-3 -8 -1 -17 5 -21 6 -3 11 -15
11 -25 0 -10 6 -20 13 -23 6 -2 -6 -7 -28 -12 -36 -7 -38 -9 -15 -15 18 -4 24
-12 22 -26 -2 -10 -7 -21 -11 -24 -12 -8 -21 -80 -10 -80 11 0 11 -11 -1 -30
-11 -18 -28 -4 -35 28 -2 12 -12 40 -23 64 -23 52 -38 111 -22 88 7 -12 10 -8
10 18 0 36 6 39 38 16 13 -9 26 -14 29 -11 8 9 -7 27 -22 27 -12 0 -11 4 2 20
20 23 45 27 37 6z m141 -56 c3 -5 -1 -10 -10 -10 -9 0 -13 5 -10 10 3 6 8 10
10 10 2 0 7 -4 10 -10z m-404 -24 c56 -24 101 -76 66 -76 -20 0 -17 -61 5 -89
10 -13 18 -27 18 -31 0 -8 -103 -5 -117 3 -15 9 -154 18 -174 12 -17 -6 -18
-9 -8 -22 10 -12 10 -16 -2 -24 -8 -5 -22 -9 -31 -9 -9 0 -21 -6 -25 -13 -11
-18 -41 -28 -48 -17 -3 5 8 22 25 37 35 31 34 69 -1 58 -16 -6 -18 -2 -15 27
2 23 12 38 31 50 15 9 31 20 34 25 28 37 67 57 133 68 40 7 74 13 74 14 1 0
17 -5 35 -13z m359 -6 c-13 -24 -30 -26 -30 -4 0 8 4 13 9 9 5 -3 12 -1 16 5
11 19 16 10 5 -10z m-2334 -28 c-22 -5 -30 3 -21 18 5 8 11 7 22 -2 15 -12 14
-13 -1 -16z m831 -8 c-7 -7 -37 7 -37 17 0 6 9 5 21 -1 11 -7 19 -14 16 -16z
m-125 -31 c5 -22 -50 -76 -69 -69 -8 3 -12 2 -9 -3 9 -13 -23 -22 -42 -12 -9
5 -46 9 -81 10 -36 1 -66 3 -68 5 -5 4 180 19 187 15 9 -5 60 44 60 58 0 19
18 16 22 -4z m196 -13 c12 -16 27 -41 32 -56 10 -25 11 -26 83 -19 87 8 242
-8 317 -34 30 -10 84 -33 120 -50 36 -17 70 -31 77 -31 6 0 48 -34 92 -76 137
-129 201 -256 201 -398 0 -93 5 -106 40 -106 31 0 65 -24 83 -59 8 -16 38 -33
94 -55 138 -55 285 -204 317 -324 9 -31 21 -72 27 -90 9 -28 7 -36 -12 -60
-16 -21 -20 -22 -15 -7 7 24 0 35 -36 58 -16 10 -28 24 -28 31 0 8 -7 17 -16
20 -11 4 -15 14 -11 32 3 16 -1 28 -9 31 -8 3 -11 9 -8 14 3 5 2 9 -3 8 -25
-4 -45 3 -62 24 -11 12 -30 33 -42 47 -12 14 -28 35 -36 48 -10 15 -22 21 -34
17 -12 -4 -22 1 -29 14 -6 12 -14 20 -18 19 -4 -1 -28 2 -54 6 -35 6 -48 13
-48 25 0 10 -3 12 -8 5 -4 -6 -19 -14 -34 -17 -23 -6 -25 -4 -21 13 8 32 -18
24 -64 -20 -34 -33 -43 -48 -47 -86 -3 -26 -11 -53 -17 -60 -7 -9 -9 -33 -4
-69 4 -33 3 -55 -3 -55 -17 0 -24 71 -17 181 l7 107 39 29 c21 15 39 35 39 43
0 8 20 28 45 43 25 16 45 33 45 38 0 17 -47 20 -89 6 -36 -13 -42 -13 -37 -1
3 8 -1 14 -10 14 -13 0 -15 6 -9 28 14 55 14 97 -1 113 -8 9 -17 29 -20 44 -3
16 -10 38 -17 49 -6 12 -12 26 -12 31 -1 6 -6 9 -13 8 -15 -4 -16 14 -1 19 7
2 5 9 -5 17 -11 9 -16 10 -16 2 0 -6 -4 -11 -10 -11 -5 0 -10 12 -10 26 0 17
-6 28 -19 31 -11 3 -21 15 -23 26 -2 12 -15 28 -30 35 -16 7 -28 20 -28 28 0
8 -5 12 -11 9 -11 -8 -99 35 -99 47 0 5 -5 8 -10 8 -6 0 -29 12 -52 28 -22 15
-52 35 -66 44 -26 17 -46 15 -74 -10 -16 -13 -18 -13 -24 1 -4 12 -16 14 -49
11 -35 -3 -43 -1 -39 10 5 12 -1 12 -38 -1 -24 -8 -50 -21 -59 -29 -9 -8 -19
-11 -22 -7 -12 11 -8 23 9 23 8 0 12 5 9 11 -4 6 -14 8 -22 5 -9 -4 -21 -1
-29 5 -9 7 -19 7 -34 -1 -18 -10 -22 -9 -27 9 -6 24 -28 28 -37 6 -9 -26 -27
-17 -20 10 5 21 3 25 -17 26 -13 0 -19 3 -12 5 16 7 6 35 -22 59 -18 16 -21
25 -14 43 8 22 13 23 64 17 30 -4 55 -4 55 -1 0 4 -7 18 -16 31 -23 35 -2 31
24 -5z m-138 -35 c0 -8 -4 -15 -10 -15 -5 0 -10 7 -10 15 0 8 5 15 10 15 6 0
10 -7 10 -15z m-750 -19 c0 -3 -4 -8 -10 -11 -5 -3 -10 -1 -10 4 0 6 5 11 10
11 6 0 10 -2 10 -4z m1625 -46 c-3 -5 -18 -9 -33 -9 l-27 1 30 8 c17 4 31 8
33 9 2 0 0 -3 -3 -9z m-1495 -150 c0 -5 -4 -10 -10 -10 -5 0 -10 5 -10 10 0 6
5 10 10 10 6 0 10 -4 10 -10z m2201 -81 c45 -22 69 -66 69 -123 0 -38 -18 -86
-32 -86 -4 0 -8 -7 -8 -15 0 -18 -1 -18 -35 -1 -15 8 -21 16 -14 18 7 2 10 11
6 21 -4 10 -13 15 -24 11 -17 -5 -17 -5 0 9 9 8 17 23 17 33 0 14 -2 16 -9 5
-7 -10 -12 -8 -24 9 -10 15 -24 21 -44 19 -15 -1 -40 1 -56 6 -19 5 -35 2 -52
-9 -14 -9 -29 -14 -34 -12 -10 6 -44 -22 -54 -44 -4 -8 -11 -22 -16 -30 -5 -8
-13 -24 -17 -35 -14 -37 -17 21 -3 63 27 85 111 152 215 172 62 12 72 11 115
-11z m-2180 -28 c147 -83 208 -223 169 -388 -10 -43 -26 -91 -34 -108 -9 -16
-16 -34 -16 -40 -1 -19 -71 -106 -80 -100 -15 9 -12 35 4 35 20 0 35 50 25 79
-8 20 -7 23 11 18 11 -3 17 -1 14 4 -3 6 0 16 6 24 8 9 8 20 2 31 -7 12 -6 26
1 42 9 20 8 26 -6 37 -10 7 -14 15 -10 18 5 3 7 24 5 46 -3 34 -8 41 -26 41
-19 1 -19 2 -3 11 21 12 22 29 2 29 -8 0 -15 9 -15 20 0 15 -7 20 -25 20 -18
0 -25 5 -25 20 0 11 -8 24 -17 27 -10 4 -24 14 -31 22 -11 14 -14 14 -31 -6
-11 -13 -22 -23 -26 -23 -4 0 -2 7 6 16 10 13 10 17 0 24 -7 4 -21 5 -31 3
-10 -3 -20 -1 -23 4 -7 11 -67 5 -67 -7 0 -4 -19 -6 -42 -5 -31 2 -47 -2 -59
-16 -9 -11 -21 -19 -28 -19 -6 0 -11 -4 -11 -10 0 -5 -5 -10 -10 -10 -13 0
-79 -58 -105 -92 -39 -50 -55 -79 -49 -89 4 -7 1 -10 -7 -7 -20 7 -13 42 26
123 38 80 76 124 155 181 92 67 143 85 230 80 51 -2 77 -10 121 -35z m2313
-404 c-9 -5 -18 -6 -21 -3 -4 3 -12 1 -19 -5 -10 -8 -11 -5 -7 13 10 47 11 48
37 25 21 -18 22 -23 10 -30z m-744 -78 c0 -5 -7 -9 -15 -9 -15 0 -20 12 -9 23
8 8 24 -1 24 -14z m639 -49 c-1 -29 -7 -55 -16 -61 -19 -17 -27 -5 -13 21 6
12 8 34 5 50 -7 32 1 54 16 45 5 -3 8 -28 8 -55z m-1500 -86 c17 -4 31 -13 31
-21 0 -10 6 -12 20 -8 16 5 20 2 20 -18 0 -16 7 -26 20 -30 14 -4 18 -10 14
-22 -4 -10 -1 -21 7 -26 11 -6 8 -9 -8 -9 -13 0 -23 5 -23 11 0 16 -100 6
-110 -11 -4 -7 -13 -9 -19 -6 -6 4 -9 12 -6 17 4 5 -1 9 -9 9 -9 0 -16 -4 -16
-8 0 -5 -22 -8 -50 -8 -27 1 -50 4 -50 7 0 4 -20 3 -45 -2 -25 -5 -55 -5 -68
0 -22 8 -64 6 -104 -4 -14 -3 -23 -1 -23 6 0 13 -51 3 -60 -11 -3 -5 -17 -13
-32 -19 -21 -8 -29 -7 -39 6 -20 24 41 68 136 98 107 34 347 62 414 49z m1497
-51 c-11 -11 -19 6 -11 24 8 17 8 17 12 0 3 -10 2 -21 -1 -24z m-1391 -1 c-3
-3 -11 0 -18 7 -9 10 -8 11 6 5 10 -3 15 -9 12 -12z m1418 -48 c-6 -44 -7 -46
-14 -22 -4 16 -2 38 4 52 16 34 18 27 10 -30z m-1363 -74 c0 -5 -2 -10 -4 -10
-3 0 -8 5 -11 10 -3 6 -1 10 4 10 6 0 11 -4 11 -10z m1200 -40 c0 -5 -4 -10
-9 -10 -6 0 -13 5 -16 10 -3 6 1 10 9 10 9 0 16 -4 16 -10z m190 0 c0 -5 -2
-10 -4 -10 -3 0 -8 5 -11 10 -3 6 -1 10 4 10 6 0 11 -4 11 -10z m37 -146 c-3
-3 -12 -4 -19 -1 -8 3 -5 6 6 6 11 1 17 -2 13 -5z"/>
<path d="M4712 1709 c-13 -5 -29 -6 -35 -3 -8 5 -9 4 -2 -3 13 -13 85 -33 118
-33 14 0 29 5 33 11 7 12 -15 31 -28 23 -4 -3 -8 0 -8 5 0 13 -46 13 -78 0z"/>
<path d="M5012 2623 c4 -27 5 -106 2 -178 l-7 -130 99 100 c59 60 118 109 145
123 59 28 145 30 197 3 84 -43 231 -213 232 -267 0 -10 7 -27 14 -37 13 -17
18 -17 68 -3 122 34 328 46 442 25 31 -5 88 -23 126 -38 63 -26 69 -27 73 -11
3 10 2 88 -1 173 l-5 155 -23 -8 c-29 -11 -44 8 -21 25 10 7 17 17 17 24 0 15
17 14 23 -1 3 -7 6 11 6 40 l1 52 -699 0 -698 0 9 -47z m1315 -75 c-3 -8 -6
-5 -6 6 -1 11 2 17 5 13 3 -3 4 -12 1 -19z m-42 -38 c-3 -5 -15 -10 -26 -10
-11 0 -17 5 -14 10 3 6 15 10 26 10 11 0 17 -4 14 -10z"/>
<path d="M813 2623 c28 -4 35 -17 17 -28 -19 -12 2 -27 27 -20 19 4 26 1 30
-15 3 -11 12 -20 19 -20 18 0 18 5 -2 35 -9 13 -13 28 -10 34 8 13 -19 21 -67
20 -30 -2 -34 -3 -14 -6z"/>
<path d="M946 2542 c-2 -4 2 -12 9 -19 10 -10 14 -9 18 2 6 14 -19 30 -27 17z"/>
<path d="M828 2483 c7 -3 16 -2 19 1 4 3 -2 6 -13 5 -11 0 -14 -3 -6 -6z"/>
<path d="M3785 2349 c-10 -15 3 -25 16 -12 7 7 7 13 1 17 -6 3 -14 1 -17 -5z"/>
<path d="M5510 2190 c0 -16 5 -30 10 -30 6 0 10 14 10 30 0 17 -4 30 -10 30
-5 0 -10 -13 -10 -30z"/>
<path d="M5916 2159 c-22 -17 -30 -19 -36 -9 -5 8 -19 11 -38 7 -20 -4 -32 -2
-36 6 -3 9 -9 7 -18 -5 -10 -12 -18 -14 -32 -6 -19 11 -37 2 -20 -10 6 -4 9
-43 7 -97 -1 -49 -5 -166 -7 -260 -9 -300 -13 -325 -71 -411 l-24 -36 19 -36
c11 -20 20 -43 20 -50 0 -16 35 -77 96 -168 24 -36 49 -83 55 -104 13 -42 39
-74 39 -49 0 14 27 55 153 233 37 53 67 100 67 106 0 5 9 14 20 20 21 11 28
40 9 40 -8 0 -7 5 2 16 20 24 -8 36 -42 19 -32 -17 -43 -8 -53 41 -6 25 -3 33
11 38 17 7 16 9 -6 27 -24 19 -21 23 14 20 15 -2 17 0 6 7 -8 6 -10 15 -6 22
5 8 4 11 -3 6 -6 -3 -31 -9 -57 -12 -41 -5 -46 -3 -43 13 4 21 58 32 58 12 0
-7 9 -3 21 10 33 35 19 50 -38 40 -26 -5 -52 -15 -58 -22 -15 -20 -37 -25 -62
-16 -34 12 -28 29 11 29 21 0 36 6 40 15 5 13 0 15 -28 10 -35 -7 -50 3 -40
28 10 26 64 35 129 20 40 -9 61 -10 63 -3 6 18 22 0 22 -25 0 -13 5 -27 11
-31 8 -5 10 1 7 18 -4 22 -1 24 36 27 23 1 43 6 44 12 2 5 7 7 12 4 4 -3 11 2
14 11 4 11 -1 18 -14 21 -12 3 -19 12 -18 21 2 10 -5 18 -17 20 -11 3 -23 8
-26 14 -3 5 -45 9 -93 9 -70 1 -91 -2 -106 -16 -31 -28 -23 -10 13 29 76 83
231 72 289 -21 18 -30 23 -54 25 -109 1 -85 20 -215 33 -228 13 -13 128 24
132 43 8 35 -5 601 -13 595 -5 -3 -13 5 -18 18 -8 18 -10 19 -10 5 -1 -10 -6
-15 -11 -12 -6 4 -8 10 -6 14 8 12 -7 27 -43 44 -36 18 -53 15 -44 -8 8 -23
-7 -18 -33 10 -13 14 -29 25 -37 25 -7 0 -18 5 -25 12 -9 9 -23 9 -61 -1 -54
-14 -116 -7 -142 15 -14 12 -20 11 -43 -7z m394 -109 c0 -11 -1 -20 -3 -20 -1
0 -10 9 -20 20 -16 19 -16 20 3 20 13 0 20 -7 20 -20z m-310 -594 c0 -5 -7 -3
-15 4 -8 7 -15 20 -15 28 0 13 3 12 15 -4 8 -10 15 -23 15 -28z m-140 24 c0
-5 -5 -10 -11 -10 -5 0 -7 5 -4 10 3 6 8 10 11 10 2 0 4 -4 4 -10z m31 -43
c-8 -8 -11 -7 -11 4 0 20 13 34 18 19 3 -7 -1 -17 -7 -23z"/>
<path d="M6236 2154 c-9 -24 -7 -27 9 -10 17 17 19 26 6 26 -5 0 -12 -7 -15
-16z"/>
<path d="M4995 2150 c-3 -5 1 -10 9 -10 9 0 16 5 16 10 0 6 -4 10 -9 10 -6 0
-13 -4 -16 -10z"/>
<path d="M6391 2114 c0 -11 3 -14 6 -6 3 7 2 16 -1 19 -3 4 -6 -2 -5 -13z"/>
<path d="M700 1999 c0 -5 5 -7 10 -4 6 3 10 8 10 11 0 2 -4 4 -10 4 -5 0 -10
-5 -10 -11z"/>
<path d="M640 1974 c0 -8 5 -12 10 -9 6 3 10 10 10 16 0 5 -4 9 -10 9 -5 0
-10 -7 -10 -16z"/>
<path d="M599 1963 c0 -10 -2 -28 -3 -40 -2 -14 3 -23 11 -23 7 0 13 -4 13
-10 0 -5 6 -10 14 -10 8 0 16 -5 18 -12 3 -7 7 -5 11 5 4 11 -1 24 -13 34 -11
10 -20 30 -20 45 0 31 -29 41 -31 11z"/>
<path d="M2400 1949 c0 -5 5 -7 10 -4 6 3 10 8 10 11 0 2 -4 4 -10 4 -5 0 -10
-5 -10 -11z"/>
<path d="M548 1921 c-20 -19 -24 -41 -8 -41 6 0 10 5 10 10 0 6 7 10 15 10 8
0 15 9 15 20 0 24 -9 25 -32 1z"/>
<path d="M488 1923 c7 -3 16 -2 19 1 4 3 -2 6 -13 5 -11 0 -14 -3 -6 -6z"/>
<path d="M707 1913 c-3 -5 -1 -19 4 -32 12 -30 31 -15 23 17 -6 22 -19 29 -27
15z"/>
<path d="M1630 1909 c0 -6 -6 -9 -14 -6 -8 3 -26 -3 -39 -14 -14 -10 -34 -19
-45 -19 -11 0 -22 -7 -26 -15 -3 -8 -11 -14 -18 -13 -7 2 -13 -6 -13 -17 0
-11 -10 -24 -22 -30 -23 -10 -33 -32 -33 -75 0 -15 -5 -31 -11 -37 -7 -7 -14
-33 -16 -59 -2 -27 -8 -53 -13 -60 -12 -14 -31 -104 -36 -169 -4 -43 -10 -55
-47 -91 -47 -46 -86 -70 -105 -65 -19 3 -111 -61 -112 -78 0 -8 -7 -11 -19 -8
-26 6 -51 -10 -51 -34 0 -12 -5 -19 -12 -17 -7 3 -21 -6 -32 -19 -11 -15 -27
-23 -40 -21 -35 5 -25 58 23 119 49 61 117 112 183 136 52 18 60 36 26 54
l-22 12 23 8 c32 12 21 34 -17 34 -18 0 -32 3 -32 6 0 4 -18 9 -40 13 -26 4
-40 11 -40 21 0 9 -9 15 -24 15 -14 0 -28 5 -31 11 -4 6 -13 8 -21 5 -8 -3
-14 -1 -14 4 0 6 -8 10 -18 10 -10 0 -28 7 -40 16 -20 14 -23 14 -28 -1 -5
-11 -10 -13 -19 -5 -13 11 -14 10 -55 -110 -55 -160 -163 -317 -270 -394 -38
-27 -50 -42 -48 -58 3 -19 11 -20 103 -23 117 -2 183 -22 249 -75 66 -52 121
-181 94 -218 -12 -17 -14 -17 -30 0 -10 9 -13 20 -8 23 5 3 0 15 -11 26 -21
21 -42 18 -33 -5 3 -9 -6 -13 -31 -14 -22 -1 -35 3 -35 11 0 19 21 37 43 37
11 0 17 5 14 13 -2 6 -11 10 -18 8 -8 -2 -32 -4 -54 -5 -22 -1 -55 -9 -73 -18
-30 -16 -32 -15 -32 1 0 14 6 17 26 13 22 -4 25 -2 22 19 -3 20 -8 24 -40 23
-20 0 -35 3 -32 8 3 4 -2 8 -10 8 -9 0 -16 5 -16 11 0 6 -6 9 -14 6 -15 -6
-31 18 -27 41 2 14 -18 16 -38 3 -18 -12 -5 -52 15 -44 10 3 14 -2 14 -18 0
-17 -3 -20 -9 -10 -14 22 -19 -1 -20 -92 0 -49 -2 -91 -5 -95 -2 -4 -6 -36
-10 -72 -21 -230 -47 -351 -80 -379 -9 -7 -16 -17 -16 -22 0 -5 335 -9 769 -9
755 0 816 2 771 30 -7 4 -10 17 -7 29 3 12 1 21 -4 21 -5 0 -9 -4 -9 -10 0 -5
-5 -10 -11 -10 -8 0 -8 5 1 15 7 8 9 22 6 31 -4 12 -2 15 9 10 12 -4 14 1 9
32 -3 20 -7 53 -10 72 -2 19 -8 36 -14 38 -5 2 -10 10 -10 17 0 8 -9 19 -20
25 -11 6 -20 16 -20 23 0 14 -14 27 -84 76 -41 29 -53 32 -87 27 -26 -4 -39
-2 -39 5 0 7 -7 8 -17 4 -10 -3 -38 -8 -63 -10 -24 -2 -46 -8 -48 -13 -2 -6
-11 -8 -21 -5 -9 2 -23 -3 -30 -11 -8 -9 -20 -16 -28 -16 -7 0 -16 -7 -19 -15
-4 -8 -11 -15 -18 -15 -6 0 -27 -14 -46 -30 -42 -36 -47 -36 -55 -9 -10 31 21
86 87 151 50 49 59 63 54 84 -5 17 -2 24 8 24 25 0 35 32 32 110 -1 44 3 85
10 100 16 32 33 111 24 105 -4 -3 -10 4 -13 15 -3 11 -1 18 4 14 13 -8 11 30
-2 43 -8 8 -8 13 1 18 8 5 7 10 -5 18 -8 7 -17 32 -20 56 -2 24 -9 48 -16 52
-6 4 -9 16 -6 28 3 11 -1 25 -9 32 -19 15 -18 29 2 29 9 0 28 8 42 18 38 26
68 39 100 41 9 0 35 17 57 37 22 20 52 42 68 50 15 8 27 19 27 24 0 6 6 10 13
10 15 0 42 40 39 57 -2 7 6 18 18 25 11 7 20 22 20 33 0 12 6 30 14 41 10 12
11 23 5 31 -7 7 -6 13 1 18 16 10 13 95 -5 101 -18 7 -20 34 -2 34 8 0 7 3 -3
9 -8 6 -18 7 -22 5 -5 -3 -11 3 -15 13 -14 40 -36 65 -44 51 -6 -9 -13 -8 -29
7 -15 14 -23 16 -29 7 -5 -9 -16 -9 -41 -2 -43 12 -40 12 -40 -1z m-665 -899
c-3 -5 -13 -10 -21 -10 -8 0 -14 5 -14 10 0 6 9 10 21 10 11 0 17 -4 14 -10z
m-265 -340 c0 -5 -4 -10 -9 -10 -6 0 -13 5 -16 10 -3 6 1 10 9 10 9 0 16 -4
16 -10z m600 -275 c0 -8 -2 -15 -4 -15 -2 0 -11 -3 -19 -6 -12 -4 -14 0 -10
15 6 24 33 29 33 6z"/>
<path d="M2230 1899 c0 -5 5 -7 10 -4 6 3 10 8 10 11 0 2 -4 4 -10 4 -5 0 -10
-5 -10 -11z"/>
<path d="M5434 1899 c-3 -6 -2 -15 4 -21 6 -6 11 -2 15 11 5 22 -7 29 -19 10z"/>
<path d="M560 1871 c0 -11 -3 -28 -6 -38 -4 -14 -4 -15 4 -4 5 7 14 11 19 8 5
-3 14 -2 21 2 9 5 8 13 -4 29 -19 27 -34 28 -34 3z"/>
<path d="M2775 1880 c-3 -5 -1 -10 4 -10 6 0 11 5 11 10 0 6 -2 10 -4 10 -3 0
-8 -4 -11 -10z"/>
<path d="M2820 1876 c0 -8 5 -18 10 -21 6 -3 10 1 10 9 0 8 -4 18 -10 21 -5 3
-10 -1 -10 -9z"/>
<path d="M5470 1859 c0 -5 5 -7 10 -4 6 3 10 8 10 11 0 2 -4 4 -10 4 -5 0 -10
-5 -10 -11z"/>
<path d="M721 1841 c-10 -6 -11 -14 -3 -26 9 -17 10 -16 17 4 8 27 4 33 -14
22z"/>
<path d="M502 1701 c4 -13 18 -16 19 -4 0 4 -5 9 -11 12 -7 2 -11 -2 -8 -8z"/>
<path d="M230 1670 c0 -5 5 -10 11 -10 5 0 7 5 4 10 -3 6 -8 10 -11 10 -2 0
-4 -4 -4 -10z"/>
<path d="M226 1628 c-5 -10 -6 -24 -3 -32 5 -12 -36 -28 -78 -30 -5 -1 -13 -5
-17 -11 -4 -6 -8 -2 -8 8 0 9 -4 17 -10 17 -6 0 -10 -58 -10 -155 0 -123 3
-161 15 -179 27 -40 37 -87 44 -196 l6 -105 23 35 c13 20 22 51 22 73 0 46 44
119 67 110 12 -5 14 -1 9 14 -5 16 -1 22 17 25 l23 4 -18 -35 c-23 -45 -23
-53 2 -81 16 -18 20 -20 20 -7 0 10 5 17 10 17 6 0 10 -4 10 -10 0 -5 7 -10
16 -10 8 0 12 5 9 10 -3 6 1 10 9 10 8 0 13 -6 11 -12 -4 -9 8 -13 42 -13 33
0 47 4 45 13 -1 6 4 12 12 12 7 0 19 14 26 30 7 17 19 30 26 30 8 0 14 7 14
15 0 8 8 29 18 47 24 44 23 142 -1 146 -26 5 -20 20 10 24 29 3 45 28 18 28
-13 0 -16 6 -11 24 4 18 1 29 -14 39 -11 7 -17 16 -15 19 3 3 -5 3 -18 1 -19
-4 -26 0 -31 19 l-6 23 -23 -27 c-13 -16 -30 -28 -40 -28 -9 0 -17 -7 -17 -15
0 -7 -7 -18 -15 -23 -9 -5 -16 -24 -17 -46 -1 -37 -20 -58 -45 -49 -7 3 -13
-2 -13 -11 0 -9 -4 -16 -10 -16 -5 0 -10 7 -10 15 0 13 -2 13 -14 3 -7 -7 -11
-19 -8 -27 3 -8 -7 -24 -23 -37 -24 -19 -27 -25 -16 -38 11 -13 10 -17 -5 -22
-11 -3 -27 -10 -36 -15 -26 -13 -32 5 -33 97 -2 95 14 192 38 249 10 22 16 51
14 65 -3 21 -4 22 -11 8z m312 -205 c8 -8 12 -17 9 -20 -3 -3 -13 2 -22 11 -9
9 -23 16 -31 16 -8 0 -14 5 -14 11 0 13 39 1 58 -18z m-33 -33 c3 -5 -1 -10
-9 -10 -9 0 -16 5 -16 10 0 6 4 10 9 10 6 0 13 -4 16 -10z"/>
<path d="M536 1621 c-11 -12 -13 -21 -7 -25 5 -4 15 3 21 15 15 28 7 34 -14
10z"/>
<path d="M160 1590 c0 -5 5 -10 11 -10 5 0 7 5 4 10 -3 6 -8 10 -11 10 -2 0
-4 -4 -4 -10z"/>
<path d="M426 1584 c-3 -8 -10 -14 -16 -14 -6 0 -8 5 -5 10 3 6 1 10 -4 10
-13 0 -14 -10 -2 -28 5 -8 22 -12 45 -10 l38 3 -25 22 c-20 17 -27 19 -31 7z"/>
<path d="M6060 1550 c0 -5 5 -10 10 -10 6 0 10 5 10 10 0 6 -4 10 -10 10 -5 0
-10 -4 -10 -10z"/>
<path d="M6067 1423 c-10 -9 -9 -23 2 -23 5 0 11 7 15 15 5 15 -5 20 -17 8z"/>
<path d="M6390 1330 c0 -5 -6 -10 -14 -10 -8 0 -16 -7 -18 -16 -2 -12 -16 -18
-43 -21 -22 -2 -41 -8 -43 -13 -2 -6 -11 -10 -21 -10 -10 0 -27 -11 -39 -25
-12 -14 -28 -25 -34 -25 -26 -1 -57 -37 -51 -59 4 -16 2 -20 -9 -16 -11 4 -17
-3 -22 -25 -4 -20 -10 -29 -17 -24 -9 5 -10 0 -7 -14 5 -17 2 -22 -13 -22 -10
0 -19 -4 -19 -9 0 -5 -11 -19 -25 -32 -16 -16 -22 -31 -19 -45 4 -17 -1 -24
-25 -32 -17 -6 -31 -16 -31 -21 0 -13 -36 -51 -49 -51 -15 0 -19 -50 -15 -160
9 -229 23 -289 76 -316 16 -9 32 -13 35 -10 3 2 15 -4 26 -15 18 -16 19 -23 9
-37 -42 -58 -52 -79 -47 -97 3 -11 11 -41 18 -67 l12 -48 197 0 198 0 -1 268
c0 254 -1 266 -17 242 -16 -23 -64 -71 -94 -95 -7 -5 -21 -16 -30 -23 -14 -11
-16 -11 -11 7 3 12 9 21 14 21 5 0 6 7 2 16 -4 10 1 17 16 21 19 5 27 27 22
56 -1 5 4 7 11 4 7 -2 12 -10 11 -16 -2 -6 2 -11 8 -11 6 0 8 7 5 15 -3 9 1
18 9 21 24 10 17 26 -7 18 -21 -6 -21 -5 5 19 26 25 38 55 16 41 -6 -3 -3 6 7
22 l19 28 6 -34 c4 -19 7 110 8 288 0 177 -1 322 -4 322 -3 0 -5 -4 -5 -10z"/>
<path d="M6320 1309 c0 -5 5 -7 10 -4 6 3 10 8 10 11 0 2 -4 4 -10 4 -5 0 -10
-5 -10 -11z"/>
<path d="M5480 1085 c0 -8 9 -15 20 -15 24 0 27 15 4 24 -22 9 -24 8 -24 -9z"/>
<path d="M5565 1090 c3 -5 8 -10 11 -10 2 0 4 5 4 10 0 6 -5 10 -11 10 -5 0
-7 -4 -4 -10z"/>
<path d="M5360 1064 c0 -8 5 -12 10 -9 6 4 8 11 5 16 -9 14 -15 11 -15 -7z"/>
<path d="M5681 894 c0 -11 3 -14 6 -6 3 7 2 16 -1 19 -3 4 -6 -2 -5 -13z"/>
<path d="M112 840 c-6 -11 -12 -43 -12 -72 0 -35 3 -48 9 -39 5 8 7 19 5 26
-3 6 2 30 11 54 17 50 17 51 7 51 -4 0 -13 -9 -20 -20z"/>
<path d="M101 484 c0 -122 -4 -255 -7 -297 l-7 -77 135 0 c149 0 139 -5 138
70 -1 19 -6 38 -13 42 -8 5 -6 8 6 8 20 0 21 4 6 31 -5 11 -14 17 -19 14 -5
-3 -11 -1 -15 5 -3 6 0 13 8 16 20 7 20 74 0 96 -9 10 -13 24 -9 33 3 8 5 18
5 21 0 4 5 10 12 15 9 5 5 10 -14 14 -26 7 -38 25 -16 25 6 0 8 9 4 20 -3 11
-2 20 3 20 5 0 7 11 4 25 -2 14 -9 22 -14 19 -5 -4 -8 -15 -5 -25 3 -11 1 -19
-4 -19 -5 0 -12 14 -15 30 -5 21 -12 30 -25 30 -11 0 -19 7 -19 15 0 8 -7 15
-15 15 -8 0 -15 -5 -15 -11 0 -6 -12 -9 -27 -7 -20 2 -29 12 -39 38 l-12 35
-1 -47 c-1 -26 -6 -50 -13 -54 -8 -5 -10 3 -6 27 2 19 1 48 -3 64 -3 17 -7
-69 -8 -191z m68 92 c0 -6 -3 -5 -6 2 -2 6 -9 10 -14 6 -5 -3 -9 5 -9 18 1 22
1 22 15 4 8 -11 15 -25 14 -30z m-19 -48 c0 -5 -9 -8 -20 -8 -13 0 -20 7 -20
20 0 18 2 19 20 8 11 -7 20 -16 20 -20z m177 -200 c-3 -8 -6 -5 -6 6 -1 11 2
17 5 13 3 -3 4 -12 1 -19z m-166 -75 c1 -5 3 -30 5 -58 3 -27 9 -51 14 -53 16
-6 12 -22 -5 -22 -8 0 -15 8 -15 19 0 10 -9 30 -20 44 -20 26 -28 73 -10 62 6
-3 10 -1 10 4 0 12 19 15 21 4z"/>
<path d="M195 670 c-3 -5 -1 -10 4 -10 6 0 11 5 11 10 0 6 -2 10 -4 10 -3 0
-8 -4 -11 -10z"/>
<path d="M2447 453 c-4 -3 -7 -15 -7 -25 0 -11 -7 -26 -15 -34 -13 -14 -15
-11 -15 23 0 24 -3 33 -9 25 -5 -8 -17 -11 -33 -7 -18 5 -27 2 -31 -9 -4 -9
-13 -13 -21 -10 -8 3 -17 0 -21 -5 -3 -6 -11 -8 -17 -5 -6 4 -17 -1 -25 -11
-8 -12 -13 -14 -13 -6 0 9 -8 11 -26 7 -14 -4 -32 -2 -39 4 -9 8 -17 6 -30 -6
-13 -14 -18 -15 -25 -4 -6 9 -11 7 -20 -10 -9 -17 -14 -19 -20 -10 -6 9 -12 0
-19 -26 -6 -21 -11 -44 -11 -49 0 -6 -11 -43 -24 -83 -13 -40 -22 -72 -21 -72
1 0 29 12 61 26 133 60 365 120 441 116 15 -1 24 7 32 29 9 26 8 30 -4 25 -20
-7 -33 43 -14 55 10 6 8 9 -8 9 -13 0 -23 6 -23 13 0 18 -34 49 -43 40z m-67
-58 c0 -8 -4 -15 -9 -15 -5 0 -11 7 -15 15 -3 9 0 15 9 15 8 0 15 -7 15 -15z
m-220 -41 c0 -9 -5 -14 -12 -12 -18 6 -21 28 -4 28 9 0 16 -7 16 -16z m55 -24
c3 -5 -1 -10 -9 -10 -9 0 -16 5 -16 10 0 6 4 10 9 10 6 0 13 -4 16 -10z"/>
<path d="M5738 443 c7 -3 16 -2 19 1 4 3 -2 6 -13 5 -11 0 -14 -3 -6 -6z"/>
<path d="M2542 385 c-11 -12 -10 -15 3 -15 8 0 15 7 15 15 0 18 -2 18 -18 0z"/>
<path d="M5944 360 c13 -66 22 -94 27 -85 3 6 4 16 3 23 -1 6 -2 20 -3 30 0
10 -8 27 -17 38 -15 18 -15 18 -10 -6z"/>
<path d="M4267 334 c-3 -3 -3 -12 0 -20 3 -8 0 -14 -6 -14 -6 0 -11 7 -11 15
0 20 -46 20 -54 -1 -3 -9 -12 -14 -19 -11 -24 9 -132 -13 -146 -31 -9 -11 -15
-13 -18 -5 -5 13 -93 -42 -93 -58 0 -5 -11 -9 -25 -9 -14 0 -25 -5 -25 -10 0
-6 -23 -21 -50 -33 -28 -13 -48 -26 -45 -29 3 -3 -9 -5 -26 -6 -17 0 -34 -3
-37 -6 -3 -3 177 -6 400 -6 l405 0 -8 56 c-5 37 -15 65 -31 81 -30 33 -106 66
-134 59 -29 -8 -54 2 -54 20 0 14 -12 19 -23 8z"/>
<path d="M2560 300 c-8 -5 -12 -12 -9 -15 4 -3 12 1 19 10 14 17 11 19 -10 5z"/>
<path d="M2342 158 c-10 -10 -84 -25 -177 -37 -37 -5 61 -8 250 -8 171 0 298
2 282 4 -15 2 -25 9 -22 14 4 5 -1 9 -10 9 -9 0 -27 8 -41 17 -18 12 -28 13
-33 5 -4 -7 -25 -9 -54 -7 -36 4 -49 1 -53 -10 -9 -22 -24 -18 -24 6 0 21 -1
21 -25 5 -23 -15 -29 -15 -55 -3 -17 9 -32 11 -38 5z"/>
</g>
</svg>
