<?xml version="1.0" encoding="UTF-8" standalone="no"?>
<!DOCTYPE svg PUBLIC "-//W3C//DTD SVG 1.1//EN" "http://www.w3.org/Graphics/SVG/1.1/DTD/svg11.dtd">
<svg width="100%" height="100%" viewBox="0 0 4961 7016" version="1.1" xmlns="http://www.w3.org/2000/svg" xmlns:xlink="http://www.w3.org/1999/xlink" xml:space="preserve" xmlns:serif="http://www.serif.com/" style="fill-rule:evenodd;clip-rule:evenodd;stroke-linecap:round;stroke-linejoin:round;stroke-miterlimit:1.5;">
    <g transform="matrix(2,0,0,2,0,0)">
        <g id="tree">
            <g id="Main-branches">
                <path d="M1007.23,1274.9C1004.11,1273.98 997.875,1272.15 993.055,1271.6C988.224,1271.05 982.525,1271.6 978.239,1271.6L967.342,1271.6" style="fill:none;stroke:rgb(51,51,51);stroke-width:2.92px;"/>
                <path d="M901.026,1525.47C902.866,1519.21 906.546,1506.69 908.935,1498.29C911.132,1490.56 913.253,1482.81 915.361,1475.05C917.667,1466.57 919.903,1456.48 922.775,1447.37C925.659,1438.23 929.283,1429.22 932.661,1420.19C936.698,1409.39 942.351,1395.19 946.996,1382.62C951.774,1369.68 956.305,1353.54 961.33,1342.58C965.524,1333.44 972.205,1324.62 977.148,1316.88C981.623,1309.87 986.208,1302.92 990.988,1296.12C995.849,1289.2 1001.2,1280.79 1006.31,1275.36C1010.73,1270.65 1016.69,1265.88 1021.63,1263.49C1026,1261.38 1031.12,1260.85 1035.97,1261.02C1042.81,1261.27 1055,1263.08 1062.66,1264.98C1069.35,1266.63 1077.19,1267.41 1081.94,1272.39C1087.05,1277.75 1090.03,1288.65 1093.31,1297.11C1106.82,1331.95 1139.47,1420.13 1163,1481.48C1189.61,1550.85 1230.45,1655.31 1252.97,1713.3C1268,1752.03 1284.4,1800.55 1298.08,1829.46C1307.8,1850.02 1324,1870.08 1335.02,1886.8C1344.55,1901.27 1355.86,1916.79 1364.18,1929.81C1371.5,1941.26 1377.42,1953.58 1384.94,1964.9C1404,1993.57 1462.64,2078.32 1478.5,2101.82C1479.32,2103.04 1479.84,2104.96 1480.1,2105.92" style="fill:none;stroke:rgb(51,51,51);stroke-width:2.92px;"/>
                <path d="M1027.07,1215.05C1029.66,1217.99 1034.84,1223.88 1035.97,1229.39C1037.54,1237.04 1036.82,1253.01 1036.46,1260.99" style="fill:none;stroke:rgb(51,51,51);stroke-width:2.92px;"/>
                <path d="M1081.77,1271.6C1091.75,1270.54 1111.7,1268.42 1119.43,1266.94C1122.6,1266.33 1125.37,1264.36 1128.13,1262.69C1138.19,1256.62 1165.9,1239.2 1179.76,1230.5" style="fill:none;stroke:rgb(51,51,51);stroke-width:2.92px;"/>
            </g>
            <g id="Bacteria">
                <path d="M901.16,1526.25L867.949,2125.58L792.26,1795.02L901.16,1526.25Z" style="fill:rgb(165,207,139);stroke:rgb(51,51,51);stroke-width:2.92px;"/>
                <path d="M748.236,1816.65L751.326,1719.33L901.16,1526.25L748.236,1816.65Z" style="fill:rgb(165,207,139);stroke:rgb(51,51,51);stroke-width:2.92px;"/>
                <path d="M816.357,1612.29L824.698,1612.29L909.656,1489.33L816.357,1612.29" style="fill:rgb(165,207,139);stroke:rgb(51,51,51);stroke-width:2.92px;"/>
                <path d="M824.698,1573.98L834.893,1573.98L922.013,1449.17L824.698,1573.98Z" style="fill:rgb(165,207,139);stroke:rgb(51,51,51);stroke-width:2.92px;"/>
                <path d="M748.236,1626.5L748.236,1645.03L939.931,1395.41L748.236,1626.5Z" style="fill:rgb(165,207,139);stroke:rgb(51,51,51);stroke-width:2.92px;"/>
                <path d="M599.484,1567.18L553.761,1795.79L951.516,1367.92L599.484,1567.18Z" style="fill:rgb(165,207,139);stroke:rgb(51,51,51);stroke-width:2.92px;"/>
                <path d="M584.037,1532.58L576.622,1550.81L967.342,1329.14L584.037,1532.58" style="fill:rgb(165,207,139);stroke:rgb(51,51,51);stroke-width:2.92px;"/>
                <path d="M530.282,1534.43L521.014,1557.91L967.342,1329.14L530.282,1534.43Z" style="fill:rgb(165,207,139);stroke:rgb(51,51,51);stroke-width:2.92px;"/>
                <path d="M614.312,1467.7L634.702,1478.21L974.841,1321.58L614.312,1467.7Z" style="fill:rgb(165,207,139);stroke:rgb(51,51,51);stroke-width:2.92px;"/>
                <path d="M739.123,1395.41L732.326,1410.24L974.841,1321.58L739.123,1395.41Z" style="fill:rgb(165,207,139);stroke:rgb(51,51,51);stroke-width:2.92px;"/>
                <path d="M569.826,1400.66L637.174,1434.96L993.841,1294.7L569.826,1400.66Z" style="fill:rgb(165,207,139);stroke:rgb(51,51,51);stroke-width:2.92px;"/>
                <path d="M687.839,1331.15L676.718,1348.45L993.841,1294.7L687.839,1331.15Z" style="fill:rgb(165,207,139);stroke:rgb(51,51,51);stroke-width:2.92px;"/>
                <path d="M628.524,1300.88L638.409,1309.53L993.841,1294.7L628.524,1300.88Z" style="fill:rgb(165,207,139);stroke:rgb(51,51,51);stroke-width:2.92px;"/>
                <path d="M732.326,1273.69L719.351,1281.72L993.841,1294.7L732.326,1273.69Z" style="fill:rgb(165,207,139);stroke:rgb(51,51,51);stroke-width:2.92px;"/>
                <path d="M628.524,1231.06L604.427,1258.24L974.841,1273.69L628.524,1231.06" style="fill:rgb(165,207,139);stroke:rgb(51,51,51);stroke-width:2.92px;"/>
                <path d="M538.314,1176.07L512.981,1202.64L974.841,1273.69L538.314,1176.07Z" style="fill:rgb(165,207,139);stroke:rgb(51,51,51);stroke-width:2.92px;"/>
                <path d="M533.989,1148.26L519.778,1160.62L967.342,1271.35L533.989,1148.26Z" style="fill:rgb(165,207,139);stroke:rgb(51,51,51);stroke-width:2.92px;"/>
                <path d="M531.518,1130.96L655.71,1139L974.841,1271.35L531.518,1130.96Z" style="fill:rgb(165,207,139);stroke:rgb(51,51,51);stroke-width:2.92px;"/>
                <path d="M488.266,980.202L1007.23,1271.35L687.839,1016.66L488.266,980.202Z" style="fill:rgb(165,207,139);stroke:rgb(51,51,51);stroke-width:2.92px;"/>
                <path d="M867.64,1082.15L1019.02,1260.1L867.64,1082.15L905.33,1113.04L1019.02,1260.1" style="fill:rgb(165,207,139);stroke:rgb(51,51,51);stroke-width:2.92px;"/>
                <path d="M771.87,937.568L1025.2,1260.1L867.64,1004.3L771.87,937.568Z" style="fill:rgb(165,207,139);stroke:rgb(51,51,51);stroke-width:2.92px;"/>
                <path d="M781.138,736.142L1032.01,1223.49L948.582,893.699L781.138,736.142Z" style="fill:rgb(165,207,139);stroke:rgb(51,51,51);stroke-width:2.92px;"/>
                <path d="M935.606,774.45L1032.01,1223.49L1019.02,902.967L935.606,774.45Z" style="fill:rgb(165,207,139);stroke:rgb(51,51,51);stroke-width:2.92px;"/>
                <path d="M1059.8,689.184L1036.94,1229.67L1149.39,937.568L1059.8,689.184Z" style="fill:rgb(165,207,139);stroke:rgb(51,51,51);stroke-width:2.92px;"/>
                <path d="M1271.73,851.066L1057.33,1266.43L1200.06,912.853L1271.73,851.066Z" style="fill:rgb(165,207,139);stroke:rgb(51,51,51);stroke-width:2.92px;"/>
                <path d="M1228.48,944.983L1057.33,1266.43L1247.01,937.568L1228.48,944.983Z" style="fill:rgb(165,207,139);stroke:rgb(51,51,51);stroke-width:2.92px;"/>
                <path d="M1240.16,964.137L1240.16,989.315L1057.33,1266.43L1240.16,964.137Z" style="fill:rgb(165,207,139);stroke:rgb(51,51,51);stroke-width:2.92px;"/>
            </g>
            <g id="CPR">
                <path d="M1180.28,1231.06L1693.47,651.88L1587.27,1250.21L1180.28,1231.06Z" style="fill:rgb(197,154,219);stroke:rgb(51,51,51);stroke-width:2.92px;"/>
                <path d="M1161.05,1243.69L1658.71,1290.99L1545.76,1364.36L1138.8,1257.08L1161.05,1243.69Z" style="fill:rgb(197,154,219);stroke:rgb(51,51,51);stroke-width:2.92px;"/>
                <path d="M1151.52,1286.82L1424.28,1600.58L1492.16,1612.65L1399.86,1498.01L1511.78,1594.55L1756.15,1493.48L1151.52,1286.82Z" style="fill:rgb(197,154,219);stroke:rgb(51,51,51);stroke-width:2.92px;"/>
            </g>
            <path d="M1480.1,2105.92L1617.37,2454.38L1988.45,2727.65L1480.1,2105.92Z" style="fill:rgb(51,51,51);stroke:rgb(51,51,51);stroke-width:2.92px;"/>
            <g id="Archaea">
                <path d="M1240.16,1697.13L1240.16,2211.52L1240.16,1697.13Z" style="fill:rgb(241,176,129);stroke:rgb(51,51,51);stroke-width:2.92px;"/>
                <path d="M1265.95,1753.94L1261.01,2134.17L1272.75,2145.29L1265.95,1753.94Z" style="fill:rgb(241,176,129);stroke:rgb(51,51,51);stroke-width:2.92px;"/>
                <path d="M1278.92,1786.93L1272.75,2302.85L1323.41,2428.28L1278.92,1786.93Z" style="fill:rgb(241,176,129);stroke:rgb(51,51,51);stroke-width:2.92px;"/>
                <path d="M1298.08,1833.27L1367.9,2404.8L1370.99,2358.46L1298.08,1833.27Z" style="fill:rgb(241,176,129);stroke:rgb(51,51,51);stroke-width:2.92px;"/>
                <path d="M1298.08,1833.27L1379.64,2357.22L1391.99,2337.45L1298.08,1833.27Z" style="fill:rgb(241,176,129);stroke:rgb(51,51,51);stroke-width:2.92px;"/>
                <path d="M1298.08,1833.27L1419.8,2444.34L1457.49,2495.01L1298.08,1833.27Z" style="fill:rgb(241,176,129);stroke:rgb(51,51,51);stroke-width:2.92px;"/>
                <path d="M1323.41,1882.08L1457.49,2375.14L1487.77,2391.21L1323.41,1882.08Z" style="fill:rgb(241,176,129);stroke:rgb(51,51,51);stroke-width:2.92px;"/>
                <path d="M1323.41,1882.08L1602.07,2627.85L1633.58,2629.09L1323.41,1882.08Z" style="fill:rgb(241,176,129);stroke:rgb(51,51,51);stroke-width:2.92px;"/>
                <path d="M1345.04,1898.76L1504.45,2278.75L1519.89,2288.64L1345.04,1898.76Z" style="fill:rgb(241,176,129);stroke:rgb(51,51,51);stroke-width:2.92px;"/>
            </g>
            <path d="M1119.43,1266.94C1127.88,1272.04 1144.8,1282.23 1150.2,1285.57C1150.81,1285.94 1151.48,1286.64 1151.82,1286.99" style="fill:none;stroke:rgb(51,51,51);stroke-width:2.92px;"/>
        </g>
    </g>
</svg>
