<?xml version="1.0" encoding="UTF-8" standalone="no"?>
<!-- Created with Inkscape (http://www.inkscape.org/) -->

<svg
   width="210mm"
   height="297mm"
   viewBox="0 0 210 297"
   version="1.1"
   id="svg1"
   inkscape:version="1.4.2 (f4327f4, 2025-05-13)"
   sodipodi:docname="microtube-closed-blue-empty.svg"
   xmlns:inkscape="http://www.inkscape.org/namespaces/inkscape"
   xmlns:sodipodi="http://sodipodi.sourceforge.net/DTD/sodipodi-0.dtd"
   xmlns="http://www.w3.org/2000/svg"
   xmlns:svg="http://www.w3.org/2000/svg">
  <sodipodi:namedview
     id="namedview1"
     pagecolor="#ffffff"
     bordercolor="#000000"
     borderopacity="0.25"
     inkscape:showpageshadow="2"
     inkscape:pageopacity="0.0"
     inkscape:pagecheckerboard="0"
     inkscape:deskcolor="#d1d1d1"
     inkscape:document-units="mm"
     inkscape:zoom="0.26101992"
     inkscape:cx="95.77813"
     inkscape:cy="839.01642"
     inkscape:window-width="1440"
     inkscape:window-height="830"
     inkscape:window-x="1913"
     inkscape:window-y="-6"
     inkscape:window-maximized="1"
     inkscape:current-layer="layer1" />
  <defs
     id="defs1">
    <clipPath
       clipPathUnits="userSpaceOnUse"
       id="a">
      <path
         d="M 1.44,-0.16 H 151.508 V 252.487 H 1.44 Z"
         id="path8961" />
    </clipPath>
    <clipPath
       clipPathUnits="userSpaceOnUse"
       id="clipPath1">
      <path
         d="M 1.44,-0.16 H 151.508 V 252.487 H 1.44 Z"
         id="path1" />
    </clipPath>
    <clipPath
       clipPathUnits="userSpaceOnUse"
       id="clipPath2">
      <path
         d="M 1.44,-0.16 H 151.508 V 252.487 H 1.44 Z"
         id="path2" />
    </clipPath>
    <clipPath
       clipPathUnits="userSpaceOnUse"
       id="clipPath3">
      <path
         d="M 1.44,-0.16 H 151.508 V 252.487 H 1.44 Z"
         id="path3" />
    </clipPath>
  </defs>
  <g
     inkscape:label="Layer 1"
     inkscape:groupmode="layer"
     id="layer1">
    <g
       inkscape:label="microtube-closed-blue.svg"
       transform="matrix(0.264583,0,0,0.264583,84.58729,115.26302)"
       id="g321">
      <path
         d="m 30.022,19.868 c 0,-5.397 20.028,-9.834 44.653,-9.834 24.665,0 44.653,4.437 44.653,9.834 0,5.437 -19.988,9.834 -44.653,9.834 -24.625,0 -44.653,-4.397 -44.653,-9.834 z"
         fill="#b7d3e6"
         fill-rule="evenodd"
         fill-opacity="1"
         stroke="none"
         id="path252" />
      <path
         d="m 30.022,27.263 c 0,4.917 20.028,9.795 44.653,9.795 24.665,0 44.653,-4.878 44.653,-9.795 v -7.395 c 0,5.756 -19.988,9.834 -44.653,9.834 -24.625,0 -44.653,-4.078 -44.653,-9.834 z"
         fill="#6ba8cf"
         fill-rule="evenodd"
         fill-opacity="1"
         stroke="none"
         id="path253" />
      <path
         d="m 40.815,20.148 c 0,-2.878 15.191,-5.237 33.86,-5.237 18.708,0 33.86,2.359 33.86,5.237 0,2.918 -15.152,5.237 -33.86,5.237 -18.669,0 -33.86,-2.319 -33.86,-5.237 z"
         fill="#4f9ac7"
         fill-rule="evenodd"
         fill-opacity="1"
         stroke="none"
         id="path254" />
      <path
         d="m 43.294,22.147 c 5.396,1.639 17.67,3.238 31.5,3.238 13.832,0 25.345,-1.6 30.702,-3.238 -5.357,-1.6 -16.87,-3.238 -30.701,-3.238 -13.832,0 -26.105,1.639 -31.501,3.238 z"
         fill="#1873a7"
         fill-rule="evenodd"
         fill-opacity="1"
         stroke="none"
         id="path255" />
      <path
         d="m 74.755,36.858 c -15.431,0 -28.543,-1.64 -37.058,-4.118 l 1.56,105.176 c 0,0 18.508,104.297 20.067,105.976 2.319,4.078 8.475,7.356 15.43,7.356 6.197,0 12.353,-3.278 15.431,-7.356 0.8,-1.679 19.309,-105.976 19.309,-105.976 L 111.013,32.74 c -7.716,2.479 -20.828,4.118 -36.258,4.118 z"
         fill="#8dbbd9"
         fill-rule="evenodd"
         fill-opacity="1"
         stroke="none"
         id="path256" />
      <path
         d="m 74.795,28.023 c -11.513,0 -22.267,-0.8 -29.982,-2.439 V 49.29 c 0,2.479 13.072,4.078 29.982,4.078 16.91,0 30.701,-1.6 30.701,-4.078 V 24.745 c -7.675,1.639 -19.188,3.278 -30.701,3.278 z"
         fill="#5ea1ca"
         fill-rule="evenodd"
         fill-opacity="1"
         stroke="none"
         id="path257" />
      <path
         d="M 44.813,37.697 V 49.25 c 0,2.479 13.112,4.118 30.022,4.118 7.715,0 13.871,0 19.228,-0.8"
         fill="none"
         stroke="#ffffff"
         stroke-width="0.319806px"
         stroke-linecap="round"
         stroke-linejoin="round"
         stroke-miterlimit="4"
         stroke-dasharray="none"
         stroke-opacity="1"
         id="path258" />
      <path
         d="m 41.695,65.68 v 73.915 l 3.118,16.43 12.312,60.764 -9.234,-61.563 -3.078,-16.43 V 132.2 Z"
         fill="#ffffff"
         fill-rule="evenodd"
         fill-opacity="1"
         stroke="none"
         id="path264" />
      <path
         d="m 77.113,243.892 c -4.597,-0.8 -9.234,-3.278 -11.513,-7.355 -1.559,-1.64 -17.709,-100.18 -17.709,-100.18 L 41.695,36.178 43.254,132.24 v 6.596 c 3.078,18.029 16.15,96.861 16.95,97.7 1.519,3.279 4.597,7.356 11.553,7.356 z"
         fill="#dae8f2"
         fill-rule="evenodd"
         fill-opacity="1"
         stroke="none"
         id="path265" />
      <path
         d="m 107.215,41.055 c 0,3.318 -2.319,90.265 -2.319,91.105 l -0.76,6.556 c -8.514,48.41 -17.029,97.66 -18.588,100.939 -0.8,2.438 -3.877,7.355 -9.314,7.355 6.996,0 10.873,-2.438 12.392,-6.556 0.8,-0.8 2.319,-9.834 18.589,-100.899 v -7.395 c 0.76,-3.278 0,-87.787 0,-91.105 z m -18.589,199.4 z m 0,0.839 v -0.84 z"
         fill="#ffffff"
         fill-rule="evenodd"
         fill-opacity="1"
         stroke="none"
         id="path269" />
      <path
         d="m 105.496,37.897 c -7.675,1.639 -19.188,2.479 -30.701,2.479 -6.157,0 -12.273,0 -17.67,-0.84 7.676,2.479 18.43,4.118 24.585,4.118 6.117,0.8 15.351,1.639 16.11,16.39 0.76,11.473 0.76,50.01 0.76,68.078 l -0.76,8.195 c 0,0 -14.59,101.699 -15.35,103.338 -2.319,4.077 -6.916,6.556 -12.273,7.355 h 6.117 c 6.156,0 9.994,-4.077 10.753,-7.355 1.56,-0.84 15.35,-82.83 18.43,-100.9 0,-1.638 0.759,-6.555 0.759,-6.555 0,0 0.76,-87.747 0.76,-91.025 0,-2.478 0,-4.117 -1.52,-3.278 z"
         fill="#4f9ac7"
         fill-rule="evenodd"
         fill-opacity="1"
         stroke="none"
         id="path270" />
      <path
         d="M 105.496,49.21 V 37.697 c -7.675,1.68 -19.188,2.479 -30.701,2.479 -6.117,0 -12.273,0 -17.67,-0.8 7.716,2.439 18.43,4.078 24.585,4.078 5.397,0.84 11.514,1.639 14.592,9.034 5.356,-0.8 9.194,-2.438 9.194,-3.278 z"
         fill="#0676b2"
         fill-rule="evenodd"
         fill-opacity="1"
         stroke="none"
         id="path271" />
      <path
         d="m 94.823,136.997 c 1.559,-12.313 2.358,-63.202 3.118,-77.153 0.76,11.513 0.76,50.09 0.76,68.118 l -0.76,8.235 c 0,0 -14.751,101.739 -15.551,103.378 0,0 10.872,-90.265 12.432,-102.578 z"
         fill="#cfe1ee"
         fill-rule="evenodd"
         fill-opacity="1"
         stroke="none"
         id="path274" />
      <path
         d="m 87.027,36.178 c 18.47,-0.8 32.3,-4.877 32.3,-8.954 v -7.356 c 0,4.917 -13.83,8.155 -32.3,9.794 0.8,2.439 0,4.917 0,6.516 z"
         fill="#2f89bd"
         fill-rule="evenodd"
         fill-opacity="1"
         stroke="none"
         id="path277" />
      <path
         d="m 36.178,31.94 c 4.677,1.64 10.873,2.48 17.83,3.279 v -6.556 c -6.957,-0.8 -13.153,-2.439 -17.83,-3.278 v 6.556 z"
         fill="#a8cbe2"
         fill-rule="evenodd"
         fill-opacity="1"
         stroke="none"
         id="path278" />
      <path
         d="m 47.851,34.42 c 1.52,0.799 2.279,0.799 3.758,0.799 v -6.516 c -1.48,-0.84 -2.239,-0.84 -3.758,-0.84 v 6.556 z"
         fill="#e3edf5"
         fill-rule="evenodd"
         fill-opacity="1"
         stroke="none"
         id="path279" />
      <path
         d="m 116.29,22.906 c -1.56,1.64 -3.878,2.479 -6.237,3.278 v 6.556 c 2.359,-0.8 4.677,-1.639 6.237,-2.438 z"
         fill="#056498"
         fill-rule="evenodd"
         fill-opacity="1"
         stroke="none"
         id="path280" />
      <path
         d="m 50.97,108.774 c 0,-1.16 1.038,-2.159 2.318,-2.159 1.319,0 2.318,1 2.318,2.16 0,1.198 -1,2.158 -2.318,2.158 -1.28,0 -2.319,-0.96 -2.319,-2.159 z m 14.47,1.239 c 0,-1.319 1.04,-2.438 2.319,-2.438 1.32,0 2.319,1.12 2.319,2.438 0,1.36 -1,2.439 -2.32,2.439 -1.278,0 -2.318,-1.08 -2.318,-2.439 z m -8.315,-0.759 c 0,-2.279 1.72,-4.158 3.838,-4.158 2.119,0 3.838,1.88 3.838,4.158 0,2.318 -1.72,4.157 -3.838,4.157 -2.119,0 -3.838,-1.839 -3.838,-4.157 z M 46.332,50.93 c 0,-0.84 0.72,-1.56 1.559,-1.56 0.88,0 1.559,0.72 1.559,1.56 0,0.879 -0.68,1.558 -1.559,1.558 -0.84,0 -1.56,-0.68 -1.56,-1.559 z m 11.433,1.718 c 0,-0.92 0.56,-1.679 1.2,-1.679 0.679,0 1.199,0.76 1.199,1.68 0,0.959 -0.52,1.678 -1.2,1.678 -0.64,0 -1.199,-0.72 -1.199,-1.679 z M 50.97,51.849 c 0,-1.36 1.038,-2.479 2.318,-2.479 1.319,0 2.318,1.12 2.318,2.479 0,1.399 -1,2.478 -2.318,2.478 -1.28,0 -2.319,-1.08 -2.319,-2.478 z"
         fill="#ffffff"
         fill-rule="evenodd"
         fill-opacity="1"
         stroke="none"
         id="path285" />
      <path
         d="m 30.022,19.868 c 0,-5.397 20.028,-9.834 44.653,-9.834 24.665,0 44.653,4.437 44.653,9.834 0,5.437 -19.988,9.834 -44.653,9.834 -24.625,0 -44.653,-4.397 -44.653,-9.834"
         fill="none"
         stroke="#333333"
         stroke-width="0.799515px"
         stroke-linecap="round"
         stroke-linejoin="round"
         stroke-miterlimit="4"
         stroke-dasharray="none"
         stroke-opacity="1"
         id="path286" />
      <path
         d="m 30.022,27.263 c 0,4.917 20.028,9.795 44.653,9.795 24.665,0 44.653,-4.878 44.653,-9.795 v -7.395 c 0,5.756 -19.988,9.834 -44.653,9.834 -24.625,0 -44.653,-4.078 -44.653,-9.834 z"
         fill="none"
         stroke="#333333"
         stroke-width="0.799515px"
         stroke-linecap="round"
         stroke-linejoin="round"
         stroke-miterlimit="4"
         stroke-dasharray="none"
         stroke-opacity="1"
         id="path287" />
      <path
         d="m 40.815,20.148 c 0,-2.878 15.191,-5.237 33.86,-5.237 18.708,0 33.86,2.359 33.86,5.237 0,2.918 -15.152,5.237 -33.86,5.237 -18.669,0 -33.86,-2.319 -33.86,-5.237 m 33.94,16.71 c -15.431,0 -28.543,-1.64 -37.058,-4.118 l 1.56,105.176 c 0,0 18.508,104.297 20.067,105.976 3.078,4.078 8.475,7.356 15.43,7.356 6.197,0 12.353,-3.278 15.431,-7.356 0.8,-1.679 19.309,-105.976 19.309,-105.976 L 111.013,32.74 c -7.716,2.479 -20.828,4.118 -36.258,4.118"
         fill="none"
         stroke="#333333"
         stroke-width="0.799515px"
         stroke-linecap="round"
         stroke-linejoin="round"
         stroke-miterlimit="4"
         stroke-dasharray="none"
         stroke-opacity="1"
         id="path288" />
      <path
         clip-path="url(#a)"
         d="M 8.515,28.743 H 30.98 v -3.278 c -0.76,0 -0.76,-0.84 -0.76,-0.84 H 8.516 c -3.078,0 -2.319,-4.917 0,-4.917 H 30.98 V 16.39 c -0.76,0 -0.76,-0.84 -0.76,-0.84 H 8.516 c -7.755,0 -7.755,13.193 0,13.193 z"
         fill="#6ba8cf"
         fill-rule="evenodd"
         fill-opacity="1"
         stroke="none"
         id="path289" />
      <path
         clip-path="url(#a)"
         d="M 8.515,28.743 H 30.98 v -3.278 c -0.76,0 -0.76,-0.84 -0.76,-0.84 H 8.516 c -3.078,0 -2.319,-4.917 0,-4.917 H 30.98 V 16.39 c -0.76,0 -0.76,-0.84 -0.76,-0.84 H 8.516 c -7.755,0 -7.755,13.193 0,13.193"
         fill="none"
         stroke="#333333"
         stroke-width="0.799515px"
         stroke-linecap="round"
         stroke-linejoin="round"
         stroke-miterlimit="4"
         stroke-dasharray="none"
         stroke-opacity="1"
         id="path290"
         inkscape:label="path290" />
      <path
         d="M 8.595,15.67 H 30.022 V 14.031 H 9.394 c -3.078,0 -4.597,0.84 -5.356,2.479 -0.8,1.639 -0.8,4.877 -0.8,4.877 0,-3.238 2.319,-5.716 5.357,-5.716 z"
         fill="#b7d3e6"
         fill-rule="evenodd"
         fill-opacity="1"
         stroke="none"
         id="path291" />
      <path
         d="m 8.475,19.868 c -2.279,0 -3.078,4.877 0,4.877 H 30.022 V 23.146 H 9.274 c -1.559,0 -1.559,-0.84 -1.559,-1.639 0,-0.8 0,-1.639 0.76,-1.639 z"
         fill="#b7d3e6"
         fill-rule="evenodd"
         fill-opacity="1"
         stroke="none"
         id="path292" />
      <path
         d="m 8.595,15.67 h 21.427 c 0,0 0,0 0,0 v -1.639 c 0,0 0,0 0,0 H 9.394 c 0,0 0,0 0,0 -3.078,0 -4.597,0.84 -5.356,2.479 -0.8,1.639 -0.8,4.877 -0.8,4.877 0,-3.238 2.319,-5.716 5.357,-5.716"
         fill="none"
         stroke="#333333"
         stroke-width="0.319806px"
         stroke-linecap="round"
         stroke-linejoin="round"
         stroke-miterlimit="4"
         stroke-dasharray="none"
         stroke-opacity="1"
         id="path293" />
      <path
         d="m 8.475,19.868 c 0,0 0,0 0,0 0,0 0,0 0,0 -2.279,0 -3.078,4.877 0,4.877 h 21.547 c 0,0 0,0 0,0 v -1.599 c 0,0 0,0 0,0 H 9.274 c -1.559,0 -1.559,-0.84 -1.559,-1.639 0,-0.8 0,-1.639 0.76,-1.639"
         fill="none"
         stroke="#333333"
         stroke-width="0.319806px"
         stroke-linecap="round"
         stroke-linejoin="round"
         stroke-miterlimit="4"
         stroke-dasharray="none"
         stroke-opacity="1"
         id="path294" />
      <path
         d="m 30.022,10.594 c 0,-5.397 20.028,-9.834 44.653,-9.834 24.665,0 44.653,4.437 44.653,9.834 0,5.436 -19.988,9.834 -44.653,9.834 -24.625,0 -44.653,-4.398 -44.653,-9.834 z"
         fill="#b7d3e6"
         fill-rule="evenodd"
         fill-opacity="1"
         stroke="none"
         id="path295" />
      <path
         d="m 74.795,5.717 c -16.91,0 -29.982,2.478 -29.982,4.917 v 7.355 c 7.715,1.64 18.469,2.439 29.982,2.439 11.513,0 23.026,-0.8 30.701,-2.439 v -7.355 c 0,-2.439 -13.792,-4.917 -30.701,-4.917 z"
         fill="#8dbbd9"
         fill-rule="evenodd"
         fill-opacity="1"
         stroke="none"
         id="path296" />
      <path
         d="m 105.496,10.594 c 0,-2.439 -13.792,-4.877 -30.701,-4.877 -16.91,0 -29.982,2.438 -29.982,4.877 z"
         fill="#8dbbd9"
         fill-rule="evenodd"
         fill-opacity="1"
         stroke="none"
         id="path297" />
      <path
         d="m 30.022,18.03 c 0,4.916 20.028,9.833 44.653,9.833 24.665,0 44.653,-4.917 44.653,-9.834 v -7.435 c 0,5.756 -19.988,9.874 -44.653,9.874 -24.625,0 -44.653,-4.118 -44.653,-9.874 v 7.435 z"
         fill="#6ba8cf"
         fill-rule="evenodd"
         fill-opacity="1"
         stroke="none"
         id="path298" />
      <path
         d="m 35.538,23.026 c 4.598,1.679 10.714,2.519 17.59,3.318 v -6.636 c -6.876,-0.8 -12.992,-2.478 -17.59,-4.157 z"
         fill="#a8cbe2"
         fill-rule="evenodd"
         fill-opacity="1"
         stroke="none"
         id="path299" />
      <path
         d="m 46.972,25.545 c 0.799,0 2.398,0.799 3.997,0.799 v -7.435 h -3.997 z"
         fill="#e3edf5"
         fill-rule="evenodd"
         fill-opacity="1"
         stroke="none"
         id="path300" />
      <path
         d="m 115.65,14.031 c -1.52,0.84 -3.838,1.64 -6.156,2.479 v 7.356 c 2.318,-0.8 4.637,-1.64 6.156,-2.439 z"
         fill="#056498"
         fill-rule="evenodd"
         fill-opacity="1"
         stroke="none"
         id="path301" />
      <path
         d="M 55.446,10.753 C 60.044,9.914 66.24,9.075 74.675,9.075 c 8.475,0 14.67,0.839 19.268,0.839 0.76,0.84 0.76,0.84 0,1.679 -4.597,0 -10.793,0.84 -19.268,0.84 -7.676,0 -14.631,-0.84 -19.229,-1.68 -0.8,0 -0.8,0 0,0 z"
         fill="#5e9bc0"
         fill-rule="evenodd"
         fill-opacity="1"
         stroke="none"
         id="path302" />
      <path
         d="m 63.282,27.224 v -6.517 c -2.279,0 -3.838,-0.839 -6.157,-0.839 v 7.356 z M 38.657,16.43 v 7.436 h 2.158 v -5.877 z"
         fill="#e3edf5"
         fill-rule="evenodd"
         fill-opacity="1"
         stroke="none"
         id="path303" />
      <path
         d="m 95.582,18.909 v 7.435 c 13.872,-1.639 23.106,-4.957 23.106,-8.275 v -7.475 c 0,4.157 -9.234,6.636 -23.106,8.315 z"
         fill="#2f89bd"
         fill-rule="evenodd"
         fill-opacity="1"
         stroke="none"
         id="path304" />
      <path
         d="m 104.856,18.949 v 5.796 l 5.197,-0.92 V 17.39 l -5.197,1.56 z"
         fill="#056498"
         fill-rule="evenodd"
         fill-opacity="1"
         stroke="none"
         id="path305" />
      <path
         d="m 105.496,10.594 c 0,-2.439 -13.792,-4.877 -30.701,-4.877 -16.91,0 -29.982,2.438 -29.982,4.877"
         fill="none"
         stroke="#ffffff"
         stroke-width="0.319806px"
         stroke-linecap="round"
         stroke-linejoin="round"
         stroke-miterlimit="4"
         stroke-dasharray="none"
         stroke-opacity="1"
         id="path306" />
      <path
         d="m 44.813,10.034 c 0,3.278 13.072,4.877 29.982,4.877 16.91,0 30.701,-1.6 30.701,-4.877"
         fill="none"
         stroke="#ffffff"
         stroke-width="0.319806px"
         stroke-linecap="round"
         stroke-linejoin="round"
         stroke-miterlimit="4"
         stroke-dasharray="none"
         stroke-opacity="1"
         id="path307" />
      <path
         d="m 30.022,10.594 c 0,-5.397 20.028,-9.834 44.653,-9.834 24.665,0 44.653,4.437 44.653,9.834 0,5.436 -19.988,9.834 -44.653,9.834 -24.625,0 -44.653,-4.398 -44.653,-9.834"
         fill="none"
         stroke="#333333"
         stroke-width="0.799515px"
         stroke-linecap="round"
         stroke-linejoin="round"
         stroke-miterlimit="4"
         stroke-dasharray="none"
         stroke-opacity="1"
         id="path308" />
      <path
         d="m 109.534,13.112 c -3.079,5.037 -21.547,5.837 -34.66,5.837 -13.071,0 -27.743,-0.8 -33.14,-4.158"
         fill="none"
         stroke="#b7d3e6"
         stroke-width="1.67898px"
         stroke-linecap="butt"
         stroke-linejoin="miter"
         stroke-miterlimit="8"
         stroke-dasharray="none"
         stroke-opacity="1"
         id="path309" />
      <path
         d="m 30.022,18.03 c 0,4.916 20.028,9.833 44.653,9.833 24.665,0 44.653,-4.917 44.653,-9.834 v -7.435 c 0,5.756 -19.988,9.874 -44.653,9.874 -24.625,0 -44.653,-4.118 -44.653,-9.874 v 7.435 z"
         fill="none"
         stroke="#333333"
         stroke-width="0.799515px"
         stroke-linecap="round"
         stroke-linejoin="round"
         stroke-miterlimit="10"
         stroke-dasharray="none"
         stroke-opacity="1"
         id="path310" />
      <path
         clip-path="url(#a)"
         d="M 146.351,13.072 H 117.81 v 7.356 h 28.542 a 3.692,3.692 0 0 0 0,-7.356 z"
         fill="#6ba8cf"
         fill-rule="evenodd"
         fill-opacity="1"
         stroke="none"
         id="path311" />
      <path
         d="m 150.109,11.513 c 0,-1.679 -1.52,-3.398 -3.838,-3.398 H 117.81 c 0.8,0.88 1.559,1.719 1.559,2.559 0,0.839 -0.76,1.679 -1.56,2.518 h 28.463 c 2.319,0 3.838,1.679 3.838,4.197 v -5.876 z"
         fill="#b7d3e6"
         fill-rule="evenodd"
         fill-opacity="1"
         stroke="none"
         id="path312" />
      <path
         clip-path="url(#a)"
         d="M 146.351,13.072 H 117.81 v 7.356 h 28.542 a 3.692,3.692 0 0 0 0,-7.356"
         fill="none"
         stroke="#333333"
         stroke-width="0.799515px"
         stroke-linecap="round"
         stroke-linejoin="round"
         stroke-miterlimit="10"
         stroke-dasharray="none"
         stroke-opacity="1"
         id="path313" />
      <path
         d="m 150.109,11.513 c 0,-1.679 -1.52,-3.398 -3.838,-3.398 0,0 0,0 0,0 H 117.81 c 0.8,0.88 1.559,1.719 1.559,2.559 0,0.839 -0.76,1.679 -1.56,2.518 h 28.463 c 2.319,0 3.838,1.679 3.838,4.197 v -5.876 z"
         fill="none"
         stroke="#333333"
         stroke-width="0.799515px"
         stroke-linecap="round"
         stroke-linejoin="round"
         stroke-miterlimit="10"
         stroke-dasharray="none"
         stroke-opacity="1"
         id="path314" />
      <path
         d="m 29.382,27.263 c 0,4.917 20.028,9.795 44.653,9.795 24.665,0 44.653,-4.878 44.653,-9.795 v -7.395 c 0,5.756 -19.988,9.834 -44.653,9.834 -24.625,0 -44.653,-4.078 -44.653,-9.834 z"
         fill="#6ba8cf"
         fill-rule="evenodd"
         fill-opacity="1"
         stroke="none"
         id="path315" />
      <path
         d="m 85.428,36.178 c 19.349,-0.8 33.26,-4.877 33.26,-8.954 v -7.356 c 0,4.917 -13.912,8.155 -33.26,9.794 0.8,2.439 0.8,4.917 0,6.516 z"
         fill="#2f89bd"
         fill-rule="evenodd"
         fill-opacity="1"
         stroke="none"
         id="path316" />
      <path
         d="m 35.538,31.94 c 4.598,1.64 10.714,2.48 17.59,3.279 v -6.556 c -6.876,-0.8 -12.992,-2.439 -17.59,-3.278 v 6.556 z"
         fill="#a8cbe2"
         fill-rule="evenodd"
         fill-opacity="1"
         stroke="none"
         id="path317" />
      <path
         d="m 46.972,34.42 c 0.799,0.799 2.398,0.799 3.997,0.799 v -6.516 c -1.599,-0.84 -3.198,-0.84 -3.997,-0.84 v 6.556 z"
         fill="#e3edf5"
         fill-rule="evenodd"
         fill-opacity="1"
         stroke="none"
         id="path318" />
      <path
         d="m 115.65,22.906 c -1.52,1.64 -3.838,2.479 -6.156,3.278 v 6.556 c 2.318,-0.8 4.637,-1.639 6.156,-2.438 z"
         fill="#056498"
         fill-rule="evenodd"
         fill-opacity="1"
         stroke="none"
         id="path319" />
      <path
         d="m 29.382,27.263 c 0,4.917 20.028,9.795 44.653,9.795 24.665,0 44.653,-4.878 44.653,-9.795 v -7.395 c 0,5.756 -19.988,9.834 -44.653,9.834 -24.625,0 -44.653,-4.078 -44.653,-9.834 z"
         fill="none"
         stroke="#333333"
         stroke-width="0.799515px"
         stroke-linecap="round"
         stroke-linejoin="round"
         stroke-miterlimit="10"
         stroke-dasharray="none"
         stroke-opacity="1"
         id="path320" />
      <path
         d="m 99.3,5.717 c 5.397,1.639 7.715,3.278 7.715,4.917 0,2.478 -7.715,4.917 -10.793,4.917 8.475,-0.8 13.831,-2.439 13.831,-4.917 C 109.293,7.356 103.937,6.556 99.3,5.717 Z m 24.025,4.317 h 22.227 c 2.278,0 3.038,1.519 3.038,1.519 z"
         fill="#ffffff"
         fill-rule="evenodd"
         fill-opacity="1"
         stroke="none"
         id="path321" />
    </g>
  </g>
</svg>
