<svg xmlns="http://www.w3.org/2000/svg" width="466.645" height="407.209" viewBox="0 0 123.466 107.741"><g transform="translate(-1243.37 315.279)scale(.26458)"><path d="m5183.773-814.45 38.037 305.038a169.172 54.077 0 0 0 169.172 54.078 169.172 54.077 0 0 0 169.172-54.078l38.035-305.039z" style="fill:#000;fill-opacity:1;stroke:none;stroke-width:.755906" transform="translate(-459.657 -329.062)"/><path d="M5234.053-814.451a233.322 33.204 0 0 0-49.158 8.99l3.996 32.041a233.322 33.204 0 0 0 202.091 16.713 233.322 33.204 0 0 0 202.092-16.713l3.996-32.049a233.322 33.204 0 0 0-48.95-8.982z" style="fill:#171717;fill-opacity:1;stroke:none;stroke-width:.755906" transform="translate(-459.657 -329.062)"/><path d="M4932.674-1191.605a233.322 33.204 0 0 0-233.322 33.205v12a233.322 33.204 0 0 0 233.322 33.204 233.322 33.204 0 0 0 233.322-33.204v-12a233.322 33.204 0 0 0-233.322-33.205" style="fill:#303030;fill-opacity:1;stroke:none;stroke-width:.755906"/><ellipse cx="4932.674" cy="-1160.4" rx="215.874" ry="23.114" style="fill:#3f788f;fill-opacity:1;stroke-width:.755906"/></g></svg>