<?xml version="1.0" encoding="UTF-8" standalone="no"?>
<!-- Created with Inkscape (http://www.inkscape.org/) -->

<svg
   version="1.1"
   id="svg1"
   width="413.33334"
   height="200"
   viewBox="0 0 413.33334 200"
   sodipodi:docname="stylized newborn.svg"
   inkscape:version="1.3.2 (091e20e, 2023-11-25)"
   xmlns:inkscape="http://www.inkscape.org/namespaces/inkscape"
   xmlns:sodipodi="http://sodipodi.sourceforge.net/DTD/sodipodi-0.dtd"
   xmlns="http://www.w3.org/2000/svg"
   xmlns:svg="http://www.w3.org/2000/svg">
  <defs
     id="defs1">
    <clipPath
       clipPathUnits="userSpaceOnUse"
       id="clipPath37">
      <g
         id="g38">
        <path
           id="path38"
           style="fill:#ff0000;fill-opacity:1;fill-rule:nonzero;stroke:none"
           d="M -0.66601562,-0.66601562 V 200.66602 H 414 V 84.986328 c -1.71138,0.01449 -3.42255,8.76e-4 -5.13672,-0.04883 -3.07482,-0.07009 -6.15244,-0.160973 -9.21484,-0.464844 -1.26637,-0.135831 -2.52641,-0.308614 -3.78516,-0.492187 -0.56483,0.05137 -1.1249,0.146374 -1.69531,0.140625 -2.6834,0.101554 -5.36648,0.243911 -8.03906,0.511718 -3.18678,0.284913 -6.36939,0.472213 -9.57032,0.296876 -3.45044,-0.0776 -6.90373,-0.175997 -10.34179,-0.496094 -3.72814,-0.373935 -7.45901,-0.886299 -11.05664,-1.970703 -3.25666,-0.893635 -6.56414,-1.63909 -9.74219,-2.792969 -3.53602,-1.212098 -7.12518,-2.276665 -10.59375,-3.677734 -1.1714,-0.47579 -2.28506,-1.071173 -3.4336,-1.591797 -0.80349,-0.115774 -1.6073,-0.227415 -2.4121,-0.335938 -2.74049,-0.452466 -5.51453,-0.687387 -8.22461,-1.318359 -2.24736,-0.523685 -4.51893,-0.948009 -6.72266,-1.644532 -1.85153,-0.527629 -3.68922,-1.096139 -5.57422,-1.49414 -0.32556,-0.112879 -3.54179,-0.623141 -4.79492,-1.230469 -1.61037,-0.642048 -3.17058,-1.387357 -4.75977,-2.078125 -2.00198,-1.081286 -3.90473,-2.329673 -5.84179,-3.521484 -1.86119,-1.253459 -3.84757,-2.288622 -5.74414,-3.488282 -1.94225,-1.250119 -1.53089,-1.160032 -2.89649,-1.78125 -1.13854,-0.601169 -4.40554,-2.610674 -3.19726,-2.166015 0.0228,0.0084 0.0455,0.017 0.0684,0.02539 -1.53884,-1.278509 -2.57387,-3.484274 -5.62891,-7.59961 0.15246,0.75587 0.44134,1.471906 0.78906,2.160156 1.07766,1.369654 1.05676,1.321685 1.49805,1.861328 0.0401,0.01777 0.0835,0.02785 0.12305,0.04688 0.0358,0.01721 -0.11603,-0.04116 -0.11329,-0.03711 1.2157,1.486257 1.0822,1.265627 0.16211,0.53125 -0.42765,-0.363059 -0.12967,-0.158835 -0.75781,-0.580078 0.43106,0.210449 -0.28194,-0.176381 -0.66016,-0.388672 -0.66141,-0.259742 -1.32966,-0.558441 -1.96679,-0.90625 -0.25631,-0.0862 -0.51019,-0.193669 -0.76172,-0.287109 -1.13747,-0.216168 -2.26013,-0.494971 -3.33203,-0.947266 -0.93796,-0.444948 -0.82893,-0.421908 -0.93164,-0.494141 -1.4061,-0.361076 -2.87707,-0.813033 -4.03125,-1.410156 2.05695,0.664468 -1.35129,-0.395692 -1.54688,-0.597656 1.81413,0.324597 -1.03731,-0.203686 -1.99023,-0.46875 -0.12012,-0.0031 -0.24704,-0.0148 -0.33789,-0.01367 -1.3949,-0.119883 -2.76759,-0.306373 -4.08789,-0.816406 -0.67338,-0.456843 -0.39083,-0.269188 -0.91211,-0.625 -0.59628,-0.10413 -1.20236,-0.154427 -1.78516,-0.324219 -1.34152,-0.384849 -2.68855,-0.906112 -3.92187,-1.601562 -0.81233,-0.282944 -0.73307,-0.269023 -0.62696,-0.246094 -0.88578,-0.160402 -1.93584,-0.34404 -2.23242,-0.455078 -0.41067,-0.113965 -1.24748,-0.342791 -1.52734,-0.453125 -1.7216,-0.19687 -3.43643,-0.47856 -5.08008,-1.046875 -0.0998,-0.03358 -0.1985,-0.06952 -0.29883,-0.101563 -0.0331,-0.0041 -0.39424,-0.05108 -0.25,-0.0293 -0.16532,-0.02702 -0.33078,-0.05501 -0.49609,-0.08203 -1.12479,-0.193232 -2.59129,-0.457896 -3.4668,-0.736328 0.22963,0.0087 0.91909,0.03389 0.68945,0.02539 -1.46033,-0.05438 -2.92498,-0.115289 -4.37304,-0.324219 -1.29425,-0.200228 -2.61293,-0.413544 -3.8711,-0.789063 -1.12871,-0.05008 -2.25737,-0.116738 -3.38086,-0.238281 -1.26554,-0.161745 -2.81557,-0.41271 -3.9414,-0.714844 -0.45969,-0.0075 -0.97449,-0.02015 -1.19727,-0.0059 -1.10591,-0.0019 -2.2125,-0.005 -3.31836,-0.01563 -1.23705,-0.01372 -2.47553,-0.03199 -3.71094,-0.101562 -1.61049,-0.102828 -3.22052,-0.260342 -4.79687,-0.621094 -1.67751,-0.382893 -1.41145,-0.446083 -2.0625,-0.470703 -1.93268,-0.115943 -3.86606,-0.289029 -5.76953,-0.65625 -1.52946,-0.326703 -3.01374,-0.805985 -4.54102,-1.064453 -1.83544,-0.353418 -3.6326,-0.856548 -5.46875,-1.195313 -2.28436,-0.444373 -4.52468,-1.044043 -6.78515,-1.587891 -2.0844,-0.510189 -4.15784,-1.061026 -6.24219,-1.570312 -1.49726,-0.416372 -3.032,-0.724673 -4.54492,-1.070313 -1.60695,-0.346897 -3.22335,-0.867228 -4.5625,-1.162109 -2.23979,-0.478566 -4.44261,-1.103816 -6.68164,-1.583984 -3.43477,-0.846589 -6.84212,-1.850695 -10.14649,-3.117188 -2.24173,-0.883585 -4.45086,-1.836939 -6.65625,-2.80664 -1.91422,-0.791178 -3.90273,-1.427956 -5.71289,-2.449219 -1.05924,-0.773908 -2.56459,-0.895458 -3.59961,-1.732422 -0.91874,-0.43904 -2.00348,-1.027867 -2.96484,-1.474609 -1.26475,-0.646762 -2.40164,-1.246558 -3.66992,-1.941407 -1.09978,-0.59588 -2.20132,-1.278989 -3.25196,-1.996093 -0.31126,-0.236082 -0.62262,-0.472511 -0.93359,-0.708985 -0.006,-0.0034 -0.008,-0.0043 -0.0137,-0.0078 -0.47701,-0.287365 -0.45017,-0.218885 -1.11914,-0.6640629 -0.1317,-0.087639 -0.2508,-0.1916725 -0.37696,-0.2871093 -1.49113,-1.1290896 -3.02986,-2.2242423 -4.27148,-3.6386719 -0.6813,-0.7380409 -1.42257,-1.4644582 -2.0332,-2.2636719 -0.0231,-0.030202 0.0604,0.048186 0.0898,0.072266 0.14537,0.1169862 0.57718,0.473058 0.43555,0.3515625 -1.43925,-1.2346882 -2.80732,-2.5431984 -3.85742,-4.13671872 -0.1009,-0.14596006 -0.20215,-0.29147196 -0.30274,-0.4375 z M 125.625,10.345703 c 0.10754,0.08181 0.12882,0.104826 0.19922,0.148438 0.38223,0.236783 0.83382,0.369863 1.17383,0.664062 0.20641,0.178595 -0.79329,-0.463817 -1.37305,-0.8125 z m 91.72852,-11.01171862 c -0.25189,0.15266906 -0.53284,0.41618663 -0.84961,0.81445312 0.85175,0.40433149 1.68824,0.84080437 2.54297,1.2382813 -0.223,-1.018271 -0.51287,-1.76918689 -0.92383,-2.05273442 z m 3.77929,0 c 0.51465,0.47082323 0.68542,1.47017328 1.69922,3.66601562 4.47381,1.9084441 8.98897,3.7126705 13.5918,5.3007812 6.39158,2.3458778 12.76419,4.7426178 19.21484,6.9238278 6.69833,2.301355 13.42097,4.520141 20.20899,6.544922 6.20855,1.910121 12.43806,3.759087 18.72656,5.390625 5.05178,1.347833 10.09605,2.719507 15.04492,4.416016 3.52236,1.188538 6.94303,2.599233 10.38477,3.99414 3.0358,1.152996 6.05431,2.361849 8.97461,3.78711 2.78012,1.312993 5.52165,2.74163 8.41601,3.785156 3.34974,1.227744 6.67254,2.528937 10.05469,3.666016 3.79766,1.265059 7.6242,2.422326 11.57422,3.121094 3.42753,0.696722 6.86568,1.40308 10.34765,1.763671 2.79928,0.240417 5.61966,0.195584 8.41602,0.501953 2.89343,0.263492 5.77319,0.699186 8.67773,0.804688 3.32991,0.165188 6.66624,0.391772 9.94922,1.001953 2.81168,0.533838 5.63124,1.122222 8.36328,1.976563 2.31152,0.77047 4.58876,1.631045 6.81641,2.621093 0.80881,0.373748 1.60596,0.773677 2.40625,1.166016 V -0.66601562 Z M 164.09375,3.7851562 c 0.26181,0.1112666 0.52267,0.2242809 0.78516,0.3339844 -0.009,-0.058909 0.0111,-0.1427557 0.01,-0.2070312 -0.26476,-0.043674 -0.53019,-0.083104 -0.79492,-0.1269532 z m 4.52734,1.8359376 c 0.73075,0.2823134 1.477,0.5191945 2.21094,0.7929687 0.94055,0.2419793 1.88181,0.481027 2.83399,0.6738281 0.15564,0.021849 0.3015,0.081452 0.45507,0.1113282 C 173.19759,6.8763325 172.27837,6.5414445 171.34375,6.25 170.45834,5.9415779 169.54367,5.7617969 168.62109,5.6210938 Z m 34.26172,2.8027343 c 0.14028,0.083326 0.28598,0.1559832 0.42578,0.2402344 2.86645,1.7085595 6.13052,3.4347435 7.85547,6.3378905 0.76131,0.01909 1.52171,0.04304 2.28321,0.05078 1.70298,0.007 3.35761,0.462836 5.04101,0.669922 1.79185,0.213548 3.59799,0.275745 5.40039,0.328125 0.86183,0.02253 1.72391,0.02208 2.58594,0.0332 -3.91199,-1.495978 -7.79511,-3.064598 -11.62305,-4.773437 -1.19108,-0.55113 -2.35604,-1.157731 -3.54101,-1.7226564 -1.19377,-0.034173 -2.38768,-0.087395 -3.57227,-0.2460937 -1.0057,-0.1708011 -2.00508,-0.4210509 -2.95703,-0.8007813 -0.6796,-0.057396 -1.61784,-0.145071 -1.82617,-0.1113281 -0.0241,-0.00138 -0.0481,-0.00447 -0.0723,-0.00586 z m 96.98047,31.3789059 c 0.71936,0.612398 1.4599,1.199603 2.1582,1.835938 0.98174,1.03586 2.11271,1.878053 3.19727,2.792969 0.55508,0.493675 1.07227,1.025468 1.60742,1.537109 0.72939,0.465077 1.45162,0.943359 2.21875,1.341797 0.26967,-0.04213 1.81999,0.775159 2.50781,1.037109 -0.98714,-0.439832 2.11783,0.368514 2.80274,0.556641 1.8865,0.383559 3.72625,0.967016 5.57617,1.494141 1.8674,0.593505 3.79331,0.938119 5.69922,1.380859 2.26191,0.444789 4.55653,0.669691 6.83203,1.041015 0.10238,0.01341 0.2043,0.02933 0.30664,0.04297 -2.8613,-1.101216 -5.61769,-2.46482 -8.38867,-3.773437 -2.66556,-1.304059 -5.42236,-2.404231 -8.19531,-3.455078 -3.32025,-1.333439 -6.60236,-2.717383 -9.99805,-3.855469 -2.0903,-0.717874 -4.20508,-1.357659 -6.32422,-1.976564 z m -47.30469,2.082032 c -0.0977,-0.05992 0.9589,0.712646 1.76758,1.457031 0.61434,0.410243 1.21678,0.808965 1.91602,1.068359 -1.75811,-1.204798 -3.61379,-2.482597 -3.6836,-2.52539 z m 19.98829,7.74414 c -0.20293,-0.09834 0.4072,0.201326 0.625,0.259766 0.0686,0.01842 0.0928,0.01962 0.16015,0.03711 -0.25747,-0.106882 -0.52719,-0.171859 -0.78515,-0.296876 z" />
      </g>
    </clipPath>
    <clipPath
       clipPathUnits="userSpaceOnUse"
       id="clipPath40">
      <g
         id="g41">
        <path
           id="path41"
           style="fill:#ff0000;fill-opacity:1;fill-rule:nonzero;stroke:none"
           d="M -0.66601562,-0.66601562 V 200.66602 H 414 V 84.986328 c -1.71138,0.01449 -3.42255,8.76e-4 -5.13672,-0.04883 -3.07482,-0.07009 -6.15244,-0.160973 -9.21484,-0.464844 -1.26637,-0.135831 -2.52641,-0.308614 -3.78516,-0.492187 -0.56483,0.05137 -1.1249,0.146374 -1.69531,0.140625 -2.6834,0.101554 -5.36648,0.243911 -8.03906,0.511718 -3.18678,0.284913 -6.36939,0.472213 -9.57032,0.296876 -3.45044,-0.0776 -6.90373,-0.175997 -10.34179,-0.496094 -3.72814,-0.373935 -7.45901,-0.886299 -11.05664,-1.970703 -3.25666,-0.893635 -6.56414,-1.63909 -9.74219,-2.792969 -3.53602,-1.212098 -7.12518,-2.276665 -10.59375,-3.677734 -1.1714,-0.47579 -2.28506,-1.071173 -3.4336,-1.591797 -0.80349,-0.115774 -1.6073,-0.227415 -2.4121,-0.335938 -2.74049,-0.452466 -5.51453,-0.687387 -8.22461,-1.318359 -2.24736,-0.523685 -4.51893,-0.948009 -6.72266,-1.644532 -1.85153,-0.527629 -3.68922,-1.096139 -5.57422,-1.49414 -0.32556,-0.112879 -3.54179,-0.623141 -4.79492,-1.230469 -1.61037,-0.642048 -3.17058,-1.387357 -4.75977,-2.078125 -2.00198,-1.081286 -3.90473,-2.329673 -5.84179,-3.521484 -1.86119,-1.253459 -3.84757,-2.288622 -5.74414,-3.488282 -1.94225,-1.250119 -1.53089,-1.160032 -2.89649,-1.78125 -1.13854,-0.601169 -4.40554,-2.610674 -3.19726,-2.166015 0.0228,0.0084 0.0455,0.017 0.0684,0.02539 -1.53884,-1.278509 -2.57387,-3.484274 -5.62891,-7.59961 0.15246,0.75587 0.44134,1.471906 0.78906,2.160156 1.07766,1.369654 1.05676,1.321685 1.49805,1.861328 0.0401,0.01777 0.0835,0.02785 0.12305,0.04688 0.0358,0.01721 -0.11603,-0.04116 -0.11329,-0.03711 1.2157,1.486257 1.0822,1.265627 0.16211,0.53125 -0.42765,-0.363059 -0.12967,-0.158835 -0.75781,-0.580078 0.43106,0.210449 -0.28194,-0.176381 -0.66016,-0.388672 -0.66141,-0.259742 -1.32966,-0.558441 -1.96679,-0.90625 -0.25631,-0.0862 -0.51019,-0.193669 -0.76172,-0.287109 -1.13747,-0.216168 -2.26013,-0.494971 -3.33203,-0.947266 -0.93796,-0.444948 -0.82893,-0.421908 -0.93164,-0.494141 -1.4061,-0.361076 -2.87707,-0.813033 -4.03125,-1.410156 2.05695,0.664468 -1.35129,-0.395692 -1.54688,-0.597656 1.81413,0.324597 -1.03731,-0.203686 -1.99023,-0.46875 -0.12012,-0.0031 -0.24704,-0.0148 -0.33789,-0.01367 -1.3949,-0.119883 -2.76759,-0.306373 -4.08789,-0.816406 -0.67338,-0.456843 -0.39083,-0.269188 -0.91211,-0.625 -0.59628,-0.10413 -1.20236,-0.154427 -1.78516,-0.324219 -1.34152,-0.384849 -2.68855,-0.906112 -3.92187,-1.601562 -0.81233,-0.282944 -0.73307,-0.269023 -0.62696,-0.246094 -0.88578,-0.160402 -1.93584,-0.34404 -2.23242,-0.455078 -0.41067,-0.113965 -1.24748,-0.342791 -1.52734,-0.453125 -1.7216,-0.19687 -3.43643,-0.47856 -5.08008,-1.046875 -0.0998,-0.03358 -0.1985,-0.06952 -0.29883,-0.101563 -0.0331,-0.0041 -0.39424,-0.05108 -0.25,-0.0293 -0.16532,-0.02702 -0.33078,-0.05501 -0.49609,-0.08203 -1.12479,-0.193232 -2.59129,-0.457896 -3.4668,-0.736328 0.22963,0.0087 0.91909,0.03389 0.68945,0.02539 -1.46033,-0.05438 -2.92498,-0.115289 -4.37304,-0.324219 -1.29425,-0.200228 -2.61293,-0.413544 -3.8711,-0.789063 -1.12871,-0.05008 -2.25737,-0.116738 -3.38086,-0.238281 -1.26554,-0.161745 -2.81557,-0.41271 -3.9414,-0.714844 -0.45969,-0.0075 -0.97449,-0.02015 -1.19727,-0.0059 -1.10591,-0.0019 -2.2125,-0.005 -3.31836,-0.01563 -1.23705,-0.01372 -2.47553,-0.03199 -3.71094,-0.101562 -1.61049,-0.102828 -3.22052,-0.260342 -4.79687,-0.621094 -1.67751,-0.382893 -1.41145,-0.446083 -2.0625,-0.470703 -1.93268,-0.115943 -3.86606,-0.289029 -5.76953,-0.65625 -1.52946,-0.326703 -3.01374,-0.805985 -4.54102,-1.064453 -1.83544,-0.353418 -3.6326,-0.856548 -5.46875,-1.195313 -2.28436,-0.444373 -4.52468,-1.044043 -6.78515,-1.587891 -2.0844,-0.510189 -4.15784,-1.061026 -6.24219,-1.570312 -1.49726,-0.416372 -3.032,-0.724673 -4.54492,-1.070313 -1.60695,-0.346897 -3.22335,-0.867228 -4.5625,-1.162109 -2.23979,-0.478566 -4.44261,-1.103816 -6.68164,-1.583984 -3.43477,-0.846589 -6.84212,-1.850695 -10.14649,-3.117188 -2.24173,-0.883585 -4.45086,-1.836939 -6.65625,-2.80664 -1.91422,-0.791178 -3.90273,-1.427956 -5.71289,-2.449219 -1.05924,-0.773908 -2.56459,-0.895458 -3.59961,-1.732422 -0.91874,-0.43904 -2.00348,-1.027867 -2.96484,-1.474609 -1.26475,-0.646762 -2.40164,-1.246558 -3.66992,-1.941407 -1.09978,-0.59588 -2.20132,-1.278989 -3.25196,-1.996093 -0.31126,-0.236082 -0.62262,-0.472511 -0.93359,-0.708985 -0.006,-0.0034 -0.008,-0.0043 -0.0137,-0.0078 -0.47701,-0.287365 -0.45017,-0.218885 -1.11914,-0.6640629 -0.1317,-0.087639 -0.2508,-0.1916725 -0.37696,-0.2871093 -1.49113,-1.1290896 -3.02986,-2.2242423 -4.27148,-3.6386719 -0.6813,-0.7380409 -1.42257,-1.4644582 -2.0332,-2.2636719 -0.0231,-0.030202 0.0604,0.048186 0.0898,0.072266 0.14537,0.1169862 0.57718,0.473058 0.43555,0.3515625 -1.43925,-1.2346882 -2.80732,-2.5431984 -3.85742,-4.13671872 -0.1009,-0.14596006 -0.20215,-0.29147196 -0.30274,-0.4375 z M 125.625,10.345703 c 0.10754,0.08181 0.12882,0.104826 0.19922,0.148438 0.38223,0.236783 0.83382,0.369863 1.17383,0.664062 0.20641,0.178595 -0.79329,-0.463817 -1.37305,-0.8125 z m 91.72852,-11.01171862 c -0.25189,0.15266906 -0.53284,0.41618663 -0.84961,0.81445312 0.85175,0.40433149 1.68824,0.84080437 2.54297,1.2382813 -0.223,-1.018271 -0.51287,-1.76918689 -0.92383,-2.05273442 z m 3.77929,0 c 0.51465,0.47082323 0.68542,1.47017328 1.69922,3.66601562 4.47381,1.9084441 8.98897,3.7126705 13.5918,5.3007812 6.39158,2.3458778 12.76419,4.7426178 19.21484,6.9238278 6.69833,2.301355 13.42097,4.520141 20.20899,6.544922 6.20855,1.910121 12.43806,3.759087 18.72656,5.390625 5.05178,1.347833 10.09605,2.719507 15.04492,4.416016 3.52236,1.188538 6.94303,2.599233 10.38477,3.99414 3.0358,1.152996 6.05431,2.361849 8.97461,3.78711 2.78012,1.312993 5.52165,2.74163 8.41601,3.785156 3.34974,1.227744 6.67254,2.528937 10.05469,3.666016 3.79766,1.265059 7.6242,2.422326 11.57422,3.121094 3.42753,0.696722 6.86568,1.40308 10.34765,1.763671 2.79928,0.240417 5.61966,0.195584 8.41602,0.501953 2.89343,0.263492 5.77319,0.699186 8.67773,0.804688 3.32991,0.165188 6.66624,0.391772 9.94922,1.001953 2.81168,0.533838 5.63124,1.122222 8.36328,1.976563 2.31152,0.77047 4.58876,1.631045 6.81641,2.621093 0.80881,0.373748 1.60596,0.773677 2.40625,1.166016 V -0.66601562 Z M 164.09375,3.7851562 c 0.26181,0.1112666 0.52267,0.2242809 0.78516,0.3339844 -0.009,-0.058909 0.0111,-0.1427557 0.01,-0.2070312 -0.26476,-0.043674 -0.53019,-0.083104 -0.79492,-0.1269532 z m 4.52734,1.8359376 c 0.73075,0.2823134 1.477,0.5191945 2.21094,0.7929687 0.94055,0.2419793 1.88181,0.481027 2.83399,0.6738281 0.15564,0.021849 0.3015,0.081452 0.45507,0.1113282 C 173.19759,6.8763325 172.27837,6.5414445 171.34375,6.25 170.45834,5.9415779 169.54367,5.7617969 168.62109,5.6210938 Z m 34.26172,2.8027343 c 0.14028,0.083326 0.28598,0.1559832 0.42578,0.2402344 2.86645,1.7085595 6.13052,3.4347435 7.85547,6.3378905 0.76131,0.01909 1.52171,0.04304 2.28321,0.05078 1.70298,0.007 3.35761,0.462836 5.04101,0.669922 1.79185,0.213548 3.59799,0.275745 5.40039,0.328125 0.86183,0.02253 1.72391,0.02208 2.58594,0.0332 -3.91199,-1.495978 -7.79511,-3.064598 -11.62305,-4.773437 -1.19108,-0.55113 -2.35604,-1.157731 -3.54101,-1.7226564 -1.19377,-0.034173 -2.38768,-0.087395 -3.57227,-0.2460937 -1.0057,-0.1708011 -2.00508,-0.4210509 -2.95703,-0.8007813 -0.6796,-0.057396 -1.61784,-0.145071 -1.82617,-0.1113281 -0.0241,-0.00138 -0.0481,-0.00447 -0.0723,-0.00586 z m 96.98047,31.3789059 c 0.71936,0.612398 1.4599,1.199603 2.1582,1.835938 0.98174,1.03586 2.11271,1.878053 3.19727,2.792969 0.55508,0.493675 1.07227,1.025468 1.60742,1.537109 0.72939,0.465077 1.45162,0.943359 2.21875,1.341797 0.26967,-0.04213 1.81999,0.775159 2.50781,1.037109 -0.98714,-0.439832 2.11783,0.368514 2.80274,0.556641 1.8865,0.383559 3.72625,0.967016 5.57617,1.494141 1.8674,0.593505 3.79331,0.938119 5.69922,1.380859 2.26191,0.444789 4.55653,0.669691 6.83203,1.041015 0.10238,0.01341 0.2043,0.02933 0.30664,0.04297 -2.8613,-1.101216 -5.61769,-2.46482 -8.38867,-3.773437 -2.66556,-1.304059 -5.42236,-2.404231 -8.19531,-3.455078 -3.32025,-1.333439 -6.60236,-2.717383 -9.99805,-3.855469 -2.0903,-0.717874 -4.20508,-1.357659 -6.32422,-1.976564 z m -47.30469,2.082032 c -0.0977,-0.05992 0.9589,0.712646 1.76758,1.457031 0.61434,0.410243 1.21678,0.808965 1.91602,1.068359 -1.75811,-1.204798 -3.61379,-2.482597 -3.6836,-2.52539 z m 19.98829,7.74414 c -0.20293,-0.09834 0.4072,0.201326 0.625,0.259766 0.0686,0.01842 0.0928,0.01962 0.16015,0.03711 -0.25747,-0.106882 -0.52719,-0.171859 -0.78515,-0.296876 z" />
      </g>
    </clipPath>
    <clipPath
       clipPathUnits="userSpaceOnUse"
       id="clipPath41">
      <g
         id="g42">
        <path
           id="path42"
           style="fill:#ff0000;fill-opacity:1;fill-rule:nonzero;stroke:none"
           d="M -0.66601562,-0.66601562 V 200.66602 H 414 V 84.986328 c -1.71138,0.01449 -3.42255,8.76e-4 -5.13672,-0.04883 -3.07482,-0.07009 -6.15244,-0.160973 -9.21484,-0.464844 -1.26637,-0.135831 -2.52641,-0.308614 -3.78516,-0.492187 -0.56483,0.05137 -1.1249,0.146374 -1.69531,0.140625 -2.6834,0.101554 -5.36648,0.243911 -8.03906,0.511718 -3.18678,0.284913 -6.36939,0.472213 -9.57032,0.296876 -3.45044,-0.0776 -6.90373,-0.175997 -10.34179,-0.496094 -3.72814,-0.373935 -7.45901,-0.886299 -11.05664,-1.970703 -3.25666,-0.893635 -6.56414,-1.63909 -9.74219,-2.792969 -3.53602,-1.212098 -7.12518,-2.276665 -10.59375,-3.677734 -1.1714,-0.47579 -2.28506,-1.071173 -3.4336,-1.591797 -0.80349,-0.115774 -1.6073,-0.227415 -2.4121,-0.335938 -2.74049,-0.452466 -5.51453,-0.687387 -8.22461,-1.318359 -2.24736,-0.523685 -4.51893,-0.948009 -6.72266,-1.644532 -1.85153,-0.527629 -3.68922,-1.096139 -5.57422,-1.49414 -0.32556,-0.112879 -3.54179,-0.623141 -4.79492,-1.230469 -1.61037,-0.642048 -3.17058,-1.387357 -4.75977,-2.078125 -2.00198,-1.081286 -3.90473,-2.329673 -5.84179,-3.521484 -1.86119,-1.253459 -3.84757,-2.288622 -5.74414,-3.488282 -1.94225,-1.250119 -1.53089,-1.160032 -2.89649,-1.78125 -1.13854,-0.601169 -4.40554,-2.610674 -3.19726,-2.166015 0.0228,0.0084 0.0455,0.017 0.0684,0.02539 -1.53884,-1.278509 -2.57387,-3.484274 -5.62891,-7.59961 0.15246,0.75587 0.44134,1.471906 0.78906,2.160156 1.07766,1.369654 1.05676,1.321685 1.49805,1.861328 0.0401,0.01777 0.0835,0.02785 0.12305,0.04688 0.0358,0.01721 -0.11603,-0.04116 -0.11329,-0.03711 1.2157,1.486257 1.0822,1.265627 0.16211,0.53125 -0.42765,-0.363059 -0.12967,-0.158835 -0.75781,-0.580078 0.43106,0.210449 -0.28194,-0.176381 -0.66016,-0.388672 -0.66141,-0.259742 -1.32966,-0.558441 -1.96679,-0.90625 -0.25631,-0.0862 -0.51019,-0.193669 -0.76172,-0.287109 -1.13747,-0.216168 -2.26013,-0.494971 -3.33203,-0.947266 -0.93796,-0.444948 -0.82893,-0.421908 -0.93164,-0.494141 -1.4061,-0.361076 -2.87707,-0.813033 -4.03125,-1.410156 2.05695,0.664468 -1.35129,-0.395692 -1.54688,-0.597656 1.81413,0.324597 -1.03731,-0.203686 -1.99023,-0.46875 -0.12012,-0.0031 -0.24704,-0.0148 -0.33789,-0.01367 -1.3949,-0.119883 -2.76759,-0.306373 -4.08789,-0.816406 -0.67338,-0.456843 -0.39083,-0.269188 -0.91211,-0.625 -0.59628,-0.10413 -1.20236,-0.154427 -1.78516,-0.324219 -1.34152,-0.384849 -2.68855,-0.906112 -3.92187,-1.601562 -0.81233,-0.282944 -0.73307,-0.269023 -0.62696,-0.246094 -0.88578,-0.160402 -1.93584,-0.34404 -2.23242,-0.455078 -0.41067,-0.113965 -1.24748,-0.342791 -1.52734,-0.453125 -1.7216,-0.19687 -3.43643,-0.47856 -5.08008,-1.046875 -0.0998,-0.03358 -0.1985,-0.06952 -0.29883,-0.101563 -0.0331,-0.0041 -0.39424,-0.05108 -0.25,-0.0293 -0.16532,-0.02702 -0.33078,-0.05501 -0.49609,-0.08203 -1.12479,-0.193232 -2.59129,-0.457896 -3.4668,-0.736328 0.22963,0.0087 0.91909,0.03389 0.68945,0.02539 -1.46033,-0.05438 -2.92498,-0.115289 -4.37304,-0.324219 -1.29425,-0.200228 -2.61293,-0.413544 -3.8711,-0.789063 -1.12871,-0.05008 -2.25737,-0.116738 -3.38086,-0.238281 -1.26554,-0.161745 -2.81557,-0.41271 -3.9414,-0.714844 -0.45969,-0.0075 -0.97449,-0.02015 -1.19727,-0.0059 -1.10591,-0.0019 -2.2125,-0.005 -3.31836,-0.01563 -1.23705,-0.01372 -2.47553,-0.03199 -3.71094,-0.101562 -1.61049,-0.102828 -3.22052,-0.260342 -4.79687,-0.621094 -1.67751,-0.382893 -1.41145,-0.446083 -2.0625,-0.470703 -1.93268,-0.115943 -3.86606,-0.289029 -5.76953,-0.65625 -1.52946,-0.326703 -3.01374,-0.805985 -4.54102,-1.064453 -1.83544,-0.353418 -3.6326,-0.856548 -5.46875,-1.195313 -2.28436,-0.444373 -4.52468,-1.044043 -6.78515,-1.587891 -2.0844,-0.510189 -4.15784,-1.061026 -6.24219,-1.570312 -1.49726,-0.416372 -3.032,-0.724673 -4.54492,-1.070313 -1.60695,-0.346897 -3.22335,-0.867228 -4.5625,-1.162109 -2.23979,-0.478566 -4.44261,-1.103816 -6.68164,-1.583984 -3.43477,-0.846589 -6.84212,-1.850695 -10.14649,-3.117188 -2.24173,-0.883585 -4.45086,-1.836939 -6.65625,-2.80664 -1.91422,-0.791178 -3.90273,-1.427956 -5.71289,-2.449219 -1.05924,-0.773908 -2.56459,-0.895458 -3.59961,-1.732422 -0.91874,-0.43904 -2.00348,-1.027867 -2.96484,-1.474609 -1.26475,-0.646762 -2.40164,-1.246558 -3.66992,-1.941407 -1.09978,-0.59588 -2.20132,-1.278989 -3.25196,-1.996093 -0.31126,-0.236082 -0.62262,-0.472511 -0.93359,-0.708985 -0.006,-0.0034 -0.008,-0.0043 -0.0137,-0.0078 -0.47701,-0.287365 -0.45017,-0.218885 -1.11914,-0.6640629 -0.1317,-0.087639 -0.2508,-0.1916725 -0.37696,-0.2871093 -1.49113,-1.1290896 -3.02986,-2.2242423 -4.27148,-3.6386719 -0.6813,-0.7380409 -1.42257,-1.4644582 -2.0332,-2.2636719 -0.0231,-0.030202 0.0604,0.048186 0.0898,0.072266 0.14537,0.1169862 0.57718,0.473058 0.43555,0.3515625 -1.43925,-1.2346882 -2.80732,-2.5431984 -3.85742,-4.13671872 -0.1009,-0.14596006 -0.20215,-0.29147196 -0.30274,-0.4375 z M 125.625,10.345703 c 0.10754,0.08181 0.12882,0.104826 0.19922,0.148438 0.38223,0.236783 0.83382,0.369863 1.17383,0.664062 0.20641,0.178595 -0.79329,-0.463817 -1.37305,-0.8125 z m 91.72852,-11.01171862 c -0.25189,0.15266906 -0.53284,0.41618663 -0.84961,0.81445312 0.85175,0.40433149 1.68824,0.84080437 2.54297,1.2382813 -0.223,-1.018271 -0.51287,-1.76918689 -0.92383,-2.05273442 z m 3.77929,0 c 0.51465,0.47082323 0.68542,1.47017328 1.69922,3.66601562 4.47381,1.9084441 8.98897,3.7126705 13.5918,5.3007812 6.39158,2.3458778 12.76419,4.7426178 19.21484,6.9238278 6.69833,2.301355 13.42097,4.520141 20.20899,6.544922 6.20855,1.910121 12.43806,3.759087 18.72656,5.390625 5.05178,1.347833 10.09605,2.719507 15.04492,4.416016 3.52236,1.188538 6.94303,2.599233 10.38477,3.99414 3.0358,1.152996 6.05431,2.361849 8.97461,3.78711 2.78012,1.312993 5.52165,2.74163 8.41601,3.785156 3.34974,1.227744 6.67254,2.528937 10.05469,3.666016 3.79766,1.265059 7.6242,2.422326 11.57422,3.121094 3.42753,0.696722 6.86568,1.40308 10.34765,1.763671 2.79928,0.240417 5.61966,0.195584 8.41602,0.501953 2.89343,0.263492 5.77319,0.699186 8.67773,0.804688 3.32991,0.165188 6.66624,0.391772 9.94922,1.001953 2.81168,0.533838 5.63124,1.122222 8.36328,1.976563 2.31152,0.77047 4.58876,1.631045 6.81641,2.621093 0.80881,0.373748 1.60596,0.773677 2.40625,1.166016 V -0.66601562 Z M 164.09375,3.7851562 c 0.26181,0.1112666 0.52267,0.2242809 0.78516,0.3339844 -0.009,-0.058909 0.0111,-0.1427557 0.01,-0.2070312 -0.26476,-0.043674 -0.53019,-0.083104 -0.79492,-0.1269532 z m 4.52734,1.8359376 c 0.73075,0.2823134 1.477,0.5191945 2.21094,0.7929687 0.94055,0.2419793 1.88181,0.481027 2.83399,0.6738281 0.15564,0.021849 0.3015,0.081452 0.45507,0.1113282 C 173.19759,6.8763325 172.27837,6.5414445 171.34375,6.25 170.45834,5.9415779 169.54367,5.7617969 168.62109,5.6210938 Z m 34.26172,2.8027343 c 0.14028,0.083326 0.28598,0.1559832 0.42578,0.2402344 2.86645,1.7085595 6.13052,3.4347435 7.85547,6.3378905 0.76131,0.01909 1.52171,0.04304 2.28321,0.05078 1.70298,0.007 3.35761,0.462836 5.04101,0.669922 1.79185,0.213548 3.59799,0.275745 5.40039,0.328125 0.86183,0.02253 1.72391,0.02208 2.58594,0.0332 -3.91199,-1.495978 -7.79511,-3.064598 -11.62305,-4.773437 -1.19108,-0.55113 -2.35604,-1.157731 -3.54101,-1.7226564 -1.19377,-0.034173 -2.38768,-0.087395 -3.57227,-0.2460937 -1.0057,-0.1708011 -2.00508,-0.4210509 -2.95703,-0.8007813 -0.6796,-0.057396 -1.61784,-0.145071 -1.82617,-0.1113281 -0.0241,-0.00138 -0.0481,-0.00447 -0.0723,-0.00586 z m 96.98047,31.3789059 c 0.71936,0.612398 1.4599,1.199603 2.1582,1.835938 0.98174,1.03586 2.11271,1.878053 3.19727,2.792969 0.55508,0.493675 1.07227,1.025468 1.60742,1.537109 0.72939,0.465077 1.45162,0.943359 2.21875,1.341797 0.26967,-0.04213 1.81999,0.775159 2.50781,1.037109 -0.98714,-0.439832 2.11783,0.368514 2.80274,0.556641 1.8865,0.383559 3.72625,0.967016 5.57617,1.494141 1.8674,0.593505 3.79331,0.938119 5.69922,1.380859 2.26191,0.444789 4.55653,0.669691 6.83203,1.041015 0.10238,0.01341 0.2043,0.02933 0.30664,0.04297 -2.8613,-1.101216 -5.61769,-2.46482 -8.38867,-3.773437 -2.66556,-1.304059 -5.42236,-2.404231 -8.19531,-3.455078 -3.32025,-1.333439 -6.60236,-2.717383 -9.99805,-3.855469 -2.0903,-0.717874 -4.20508,-1.357659 -6.32422,-1.976564 z m -47.30469,2.082032 c -0.0977,-0.05992 0.9589,0.712646 1.76758,1.457031 0.61434,0.410243 1.21678,0.808965 1.91602,1.068359 -1.75811,-1.204798 -3.61379,-2.482597 -3.6836,-2.52539 z m 19.98829,7.74414 c -0.20293,-0.09834 0.4072,0.201326 0.625,0.259766 0.0686,0.01842 0.0928,0.01962 0.16015,0.03711 -0.25747,-0.106882 -0.52719,-0.171859 -0.78515,-0.296876 z" />
      </g>
    </clipPath>
    <clipPath
       clipPathUnits="userSpaceOnUse"
       id="clipPath45">
      <path
         id="path46"
         style="fill:#ff0000;fill-opacity:1;fill-rule:nonzero;stroke:none"
         d="m 270.28711,-29.216797 c -12.01828,-0.161489 -15.4522,13.966121 -0.0625,21.9023439 2.22896,1.1494366 4.40492,2.4015685 6.60742,3.6015625 2.5522,1.3832887 5.11298,2.751984 7.73047,4.00781248 2.79928,1.44826102 5.77232,2.43281822 8.74219,3.45117192 1.95277,0.7043523 3.93083,1.3452474 5.9375,1.8769531 0.91507,0.2243964 1.83931,0.401087 2.76758,0.5605469 21.00373,3.608073 24.63837,-17.6807098 3.62304,-21.2207028 -0.36635,-0.06171 -0.73234,-0.129453 -1.0957,-0.207032 -1.48266,-0.229775 -2.871,-1.025223 -4.31445,-1.394531 -2.18664,-0.736721 -4.37445,-1.402466 -6.41797,-2.509766 -2.27199,-1.063042 -4.46014,-2.296756 -6.67578,-3.470703 -2.42393,-1.319766 -4.81493,-2.700435 -7.27539,-3.951171 -3.56208,-1.810723 -6.79296,-2.609218 -9.56641,-2.646485 z" />
    </clipPath>
    <clipPath
       clipPathUnits="userSpaceOnUse"
       id="clipPath49">
      <path
         id="path50"
         style="fill:#ff0000;fill-opacity:1;fill-rule:nonzero;stroke:none"
         d="m 270.28711,-29.216797 c -12.01828,-0.161489 -15.4522,13.966121 -0.0625,21.9023439 2.22896,1.1494366 4.40492,2.4015685 6.60742,3.6015625 2.5522,1.3832887 5.11298,2.751984 7.73047,4.00781248 2.79928,1.44826102 5.77232,2.43281822 8.74219,3.45117192 1.95277,0.7043523 3.93083,1.3452474 5.9375,1.8769531 0.91507,0.2243964 1.83931,0.401087 2.76758,0.5605469 21.00373,3.608073 24.63837,-17.6807098 3.62304,-21.2207028 -0.36635,-0.06171 -0.73234,-0.129453 -1.0957,-0.207032 -1.48266,-0.229775 -2.871,-1.025223 -4.31445,-1.394531 -2.18664,-0.736721 -4.37445,-1.402466 -6.41797,-2.509766 -2.27199,-1.063042 -4.46014,-2.296756 -6.67578,-3.470703 -2.42393,-1.319766 -4.81493,-2.700435 -7.27539,-3.951171 -3.56208,-1.810723 -6.79296,-2.609218 -9.56641,-2.646485 z" />
    </clipPath>
    <clipPath
       clipPathUnits="userSpaceOnUse"
       id="clipPath53">
      <path
         id="path54"
         style="fill:#ff0000;fill-opacity:1;fill-rule:nonzero;stroke:none"
         d="m 270.28711,-29.216797 c -12.01828,-0.161489 -15.4522,13.966121 -0.0625,21.9023439 2.22896,1.1494366 4.40492,2.4015685 6.60742,3.6015625 2.5522,1.3832887 5.11298,2.751984 7.73047,4.00781248 2.79928,1.44826102 5.77232,2.43281822 8.74219,3.45117192 1.95277,0.7043523 3.93083,1.3452474 5.9375,1.8769531 0.91507,0.2243964 1.83931,0.401087 2.76758,0.5605469 21.00373,3.608073 24.63837,-17.6807098 3.62304,-21.2207028 -0.36635,-0.06171 -0.73234,-0.129453 -1.0957,-0.207032 -1.48266,-0.229775 -2.871,-1.025223 -4.31445,-1.394531 -2.18664,-0.736721 -4.37445,-1.402466 -6.41797,-2.509766 -2.27199,-1.063042 -4.46014,-2.296756 -6.67578,-3.470703 -2.42393,-1.319766 -4.81493,-2.700435 -7.27539,-3.951171 -3.56208,-1.810723 -6.79296,-2.609218 -9.56641,-2.646485 z" />
    </clipPath>
    <clipPath
       clipPathUnits="userSpaceOnUse"
       id="clipPath58">
      <path
         id="path59"
         style="fill:#ff0000;fill-opacity:1;fill-rule:nonzero;stroke:none"
         d="m 335.39453,133.48047 c -0.97715,-0.005 -2.24364,0.18905 -3.85156,0.62109 -0.29275,0.0787 -0.58616,0.15767 -0.87891,0.23633 -1.69248,0.58775 -3.37073,1.24075 -4.87109,2.24414 0.58242,-0.27884 -0.40055,0.18678 -0.85156,0.50195 -0.99445,0.69495 -1.85467,1.35326 -2.67188,2.19922 -2.49933,2.69195 -3.99424,6.10317 -3.48437,9.91407 0.1534,1.04376 0.33507,2.08019 0.58789,3.10546 0.18774,0.75942 0.2687,1.01498 0.29687,1.04297 0.0118,0.0805 0.001,0.0345 0.0176,0.14063 v 5.25976 c 0,21.3114 21.52734,21.3114 21.52734,0 v -5.25976 c 0.1726,-2.13674 -0.49402,-4.15938 -0.91015,-6.21289 -0.0717,-0.25859 -0.34939,-1.81386 -0.14649,-0.65625 0.0751,2.92753 -0.47305,5.45147 -2.39648,7.60742 -0.29942,0.2467 -0.60031,0.49096 -0.90234,0.73437 -0.0111,0.004 -0.0221,0.008 -0.0332,0.0117 -18.5785,6.3892 10.0988,-21.43599 -1.43164,-21.49023 z m 2.2168,21.1875 c -0.11424,0.0452 -0.22756,0.0915 -0.3418,0.13672 0.0233,-0.0133 0.0323,-0.0214 0.0527,-0.0332 0.0361,-0.006 0.1088,-0.0293 0.28906,-0.10351 z" />
    </clipPath>
    <clipPath
       clipPathUnits="userSpaceOnUse"
       id="clipPath63">
      <path
         id="path64"
         style="fill:#ff0000;fill-opacity:1;fill-rule:nonzero;stroke:none"
         d="m 137.28906,135.51758 c -17.62837,-0.2163 -19.06747,18.68686 0.69532,21.62109 2.16899,0.32204 4.34941,0.56831 6.5332,0.76367 1.09487,0.0951 2.19119,0.16045 3.28906,0.20899 1.34019,0.41123 2.75661,0.61825 4.13867,0.81445 1.61072,0.19202 3.23154,0.26202 4.85157,0.31836 0.76922,0.028 1.53894,0.0418 2.30859,0.0508 0.29367,0.003 0.58718,0.008 0.88086,0.01 21.31083,0.15448 21.46123,-21.37355 0.15039,-21.52735 -0.26017,-0.002 -0.52109,-0.005 -0.78125,-0.008 -0.60519,-0.007 -1.2096,-0.0185 -1.81445,-0.041 -0.96381,-0.033 -1.92852,-0.0637 -2.88868,-0.15821 -1.00927,-0.12456 -2.03171,-0.495 -3.04687,-0.66992 -1.73078,-0.21915 -3.45202,-0.3489 -5.19336,-0.44141 -1.79989,-0.15621 -3.59551,-0.36863 -5.38281,-0.63281 -1.31765,-0.19475 -2.56501,-0.29417 -3.74024,-0.30859 z" />
    </clipPath>
    <clipPath
       clipPathUnits="userSpaceOnUse"
       id="clipPath141">
      <path
         id="path142"
         style="fill:#ff0000;fill-opacity:1;fill-rule:nonzero;stroke:none"
         d="m 137.28906,135.51758 c -10.92277,-0.13403 -15.6264,7.07174 -12.92578,13.27148 0.3151,-0.29521 0.6842,-0.55395 1.10156,-0.77344 1.15823,-1.48501 3.36155,-2.60272 6.61914,-2.68945 -3.32603,-3.09157 -1.3504,-8.41465 5.6504,-8.60351 0.31268,-0.008 0.63604,-0.007 0.96874,0.006 0.0765,0.003 0.15202,0.005 0.22852,0.008 0.8991,0.0369 1.79965,0.0783 2.69531,0.16797 0.64389,0.0643 1.28918,0.13811 1.93164,0.23047 0.0912,-0.29961 0.18259,-0.61113 0.27539,-0.93946 -0.93642,-0.10902 -1.87219,-0.23131 -2.80468,-0.36914 -1.31765,-0.19475 -2.56501,-0.29417 -3.74024,-0.30859 z" />
    </clipPath>
    <clipPath
       clipPathUnits="userSpaceOnUse"
       id="clipPath195">
      <path
         id="path196"
         style="fill:#ff0000;fill-opacity:1;fill-rule:nonzero;stroke:none"
         d="m 335.39453,133.48047 c -0.97715,-0.005 -2.24364,0.18905 -3.85156,0.62109 -0.29275,0.0787 -0.58616,0.15767 -0.87891,0.23633 -0.16225,0.0564 -0.32253,0.11799 -0.48437,0.17578 0.3716,0.59638 0.74042,1.1945 1.11328,1.78906 0.97059,1.59476 1.96528,3.15949 3.10742,4.63672 0.44043,0.54963 0.85302,1.11957 1.27149,1.68555 2.57037,-4.82475 4.24447,-9.12326 -0.27735,-9.14453 z m 4.69141,12.71484 c 0.001,0.013 0.0215,0.13247 0.0723,0.42188 0.0147,0.57151 -0.003,1.12304 -0.041,1.66406 0.19611,0.19881 0.37905,0.40755 0.55078,0.625 -0.12544,-0.54371 -0.25277,-1.08746 -0.36328,-1.63281 -0.0358,-0.1293 -0.12276,-0.58294 -0.17578,-0.85938 -0.0265,-0.13822 -0.0442,-0.23173 -0.043,-0.21875 z" />
    </clipPath>
    <clipPath
       clipPathUnits="userSpaceOnUse"
       id="clipPath255">
      <path
         id="path256"
         style="fill:#ff0000;fill-opacity:1;fill-rule:nonzero;stroke:none"
         d="m 302.00977,-16.023438 c 1.70809,1.165486 3.4162,2.331204 5.09375,3.541016 1.2513,1.023405 2.6616,1.807298 4.07226,2.5820314 1.17645,0.6698851 2.18275,1.2662223 3.24805,1.9140625 1.2939,0.3065043 2.49488,0.9739264 3.79687,1.2304687 0.28063,0.087661 0.49107,0.1516527 0.75,0.2324219 -1.59019,-3.7988915 -5.91647,-7.2635495 -13.33789,-8.5136715 -0.36635,-0.06171 -0.73234,-0.129453 -1.0957,-0.207032 -0.86454,-0.13398 -1.69733,-0.457286 -2.52734,-0.779297 z" />
    </clipPath>
    <clipPath
       clipPathUnits="userSpaceOnUse"
       id="clipPath258">
      <path
         id="path259"
         style="fill:#ff0000;fill-opacity:1;fill-rule:nonzero;stroke:none"
         d="m 302.00977,-16.023438 c 1.70809,1.165486 3.4162,2.331204 5.09375,3.541016 1.2513,1.023405 2.6616,1.807298 4.07226,2.5820314 1.17645,0.6698851 2.18275,1.2662223 3.24805,1.9140625 1.2939,0.3065043 2.49488,0.9739264 3.79687,1.2304687 0.28063,0.087661 0.49107,0.1516527 0.75,0.2324219 -1.59019,-3.7988915 -5.91647,-7.2635495 -13.33789,-8.5136715 -0.36635,-0.06171 -0.73234,-0.129453 -1.0957,-0.207032 -0.86454,-0.13398 -1.69733,-0.457286 -2.52734,-0.779297 z" />
    </clipPath>
    <clipPath
       clipPathUnits="userSpaceOnUse"
       id="clipPath261">
      <path
         id="path262"
         style="fill:#ff0000;fill-opacity:1;fill-rule:nonzero;stroke:none"
         d="m 302.00977,-16.023438 c 1.70809,1.165486 3.4162,2.331204 5.09375,3.541016 1.2513,1.023405 2.6616,1.807298 4.07226,2.5820314 1.17645,0.6698851 2.18275,1.2662223 3.24805,1.9140625 1.2939,0.3065043 2.49488,0.9739264 3.79687,1.2304687 0.28063,0.087661 0.49107,0.1516527 0.75,0.2324219 -1.59019,-3.7988915 -5.91647,-7.2635495 -13.33789,-8.5136715 -0.36635,-0.06171 -0.73234,-0.129453 -1.0957,-0.207032 -0.86454,-0.13398 -1.69733,-0.457286 -2.52734,-0.779297 z" />
    </clipPath>
    <clipPath
       clipPathUnits="userSpaceOnUse"
       id="clipPath264">
      <path
         id="path265"
         style="fill:#ff0000;fill-opacity:1;fill-rule:nonzero;stroke:none"
         d="M -0.66601562,-0.66601562 V 200.66602 H 414 V -0.66601562 h -68.93164 c 9.59352,5.71819832 5.9788,19.02352262 -10.78711,18.96289062 -0.38489,-0.0014 -0.76941,-0.0036 -1.1543,-0.0059 -0.90758,-0.0058 -1.81544,-0.01012 -2.72265,-0.03906 -1.16849,-0.03741 -2.3364,-0.102597 -3.5,-0.21875 0.1037,1.839896 -1.47669,2.881959 -6.33985,2.345703 -0.2819,-0.03109 -0.56324,-0.06329 -0.84375,-0.105468 -2.398,-0.371553 -4.34651,-1.166091 -6.35351,-2.757813 -0.0413,-0.03545 -0.19476,-0.161466 -0.29492,-0.248047 -0.65679,-0.385335 -1.52425,-0.903456 -1.625,-1.001953 -0.31347,-0.228849 -0.62949,-0.454608 -0.94141,-0.685547 -0.63637,-0.357564 -1.26194,-0.73768 -1.85352,-1.164062 -1.20037,-0.833099 -2.39119,-1.672026 -3.47265,-2.658204 -3e-4,-2.78e-4 -0.002,-0.0017 -0.002,-0.002 -0.88224,-0.269152 -1.76176,-0.548863 -2.6289,-0.867187 -1.6621,-0.694699 -3.32129,-1.3746101 -5.00391,-2.0214845 -2.36078,-0.9855893 -4.7006,-2.01671 -7.00781,-3.1230469 -2.9207,-1.3204187 -5.86938,-2.571386 -8.82617,-3.8085937 -1.91204,-0.8326478 -3.80361,-1.70914135 -5.6875,-2.60156252 z M 311.23047,112.32617 c 4.50448,-0.16437 9.79359,3.16092 13.24805,11.09961 0.95197,2.18785 1.88582,4.38767 2.9746,6.51172 1.19551,2.16689 2.52411,4.26716 3.83985,6.36523 0.97059,1.59476 1.96528,3.15949 3.10742,4.63672 1.27526,1.59143 2.41254,3.28555 3.67773,4.88477 0.66798,0.78881 1.27894,1.63032 1.98047,2.39062 0.93871,0.92521 1.54321,2.10725 2.3086,3.15821 0.79171,0.94899 1.62183,1.86136 2.41015,2.81445 1.19747,1.61043 2.53552,3.10706 3.78516,4.67578 1.0571,1.43445 2.16199,2.83116 3.30078,4.20117 0.54042,0.61875 1.01236,1.291 1.45899,1.98047 0.26232,0.3252 0.52361,0.65075 0.78515,0.97656 0.6429,0.87907 1.20116,1.81572 1.7207,2.77149 0.0327,0.0613 0.065,0.12229 0.0977,0.18359 9.31537,17.47283 -6.58638,27.47452 -16.7832,13.64844 -3.90152,3.5085 -11.26899,3.35049 -18.59375,-4.00781 -0.0142,-0.0143 -0.0288,-0.0288 -0.043,-0.043 -0.23512,-0.23628 -0.4702,-0.47247 -0.70508,-0.70899 -0.73079,-0.73597 -1.4618,-1.47185 -2.1875,-2.21289 -1.2352,-1.26171 -2.46648,-2.52613 -3.66992,-3.81836 -1.68155,-1.80916 -3.33096,-3.64757 -4.94922,-5.51367 -1.62903,-1.85482 -3.2613,-3.70186 -5.0625,-5.39453 -11.16217,-10.48963 -6.38667,-21.35989 2.91211,-21.18555 0.49436,0.009 1.00324,0.0516 1.52148,0.125 -0.0412,-0.0775 -0.09,-0.15083 -0.13085,-0.22851 -1.26765,-2.53587 -2.43355,-5.12139 -3.54297,-7.73047 -4.95145,-11.6446 -0.0445,-19.33984 6.53906,-19.58008 z m -137.12891,21.13281 c 1.44189,0.029 2.13822,0.45371 4.14844,1.14063 2.71448,2.65821 2.44651,3.52837 1.31445,8.04492 -0.0695,0.2775 -0.41706,0.62025 -0.83789,0.95313 4.15855,2.67648 3.66882,7.28153 -0.33594,8.80468 1.87644,2.15741 2.21084,4.34774 1.48829,5.97071 0.72211,0.47963 1.45807,0.93906 2.17968,1.41992 8.86722,5.90879 3.3829,15.0594 -5.53711,9.23047 -2.13325,-1.39409 -4.22871,-2.83797 -6.40429,-4.16992 -1.68327,-1.0367 -3.37415,-2.06104 -5.06836,-3.08008 7.26508,6.5042 0.69205,14.23709 -7.41992,7.82031 -1.63899,-1.29649 -3.22206,-2.66002 -4.78125,-4.05078 -1.12128,-0.86794 -2.06119,-1.96784 -3.13868,-2.88867 -1.27456,2.29674 -4.81462,3.43796 -9.51562,1.18554 -2.15924,-1.03456 -4.27178,-2.15152 -6.30859,-3.41015 -1.06867,-0.77744 -2.22119,-1.3834 -3.44922,-1.85547 -0.41003,-0.1538 -0.82469,-0.29381 -1.24219,-0.42578 -7.19022,-2.27267 -7.65614,-8.08196 -3.7168,-10.14063 1.16588,-1.48579 3.37473,-2.60467 6.64453,-2.68359 -3.34023,-3.09016 -1.39466,-8.41251 5.61329,-8.60156 0.31264,-0.008 0.63608,-0.007 0.96874,0.006 0.0765,0.003 0.15202,0.005 0.22852,0.008 0.8991,0.0369 1.79965,0.0783 2.69531,0.16797 0.64349,0.0642 1.28761,0.14601 1.92969,0.23828 0.18276,-0.60014 0.36826,-1.23591 0.55469,-1.95508 1.75345,-0.97276 3.75822,-1.22802 5.71875,-1.41797 1.87062,-0.14549 3.7459,-0.19919 5.62109,-0.24609 0.93398,-0.0234 1.86853,-0.034 2.80274,-0.043 0.27606,-0.003 0.55205,-0.006 0.82812,-0.008 0.18542,-0.001 0.37122,8e-5 0.55664,0 0.69978,-1.7e-4 1.39983,1e-5 2.09961,0 2.03672,-2e-5 4.07266,0 6.10938,0 h 5.58398 c 0.24249,-0.0124 0.46394,-0.0178 0.66992,-0.0137 z" />
    </clipPath>
    <clipPath
       clipPathUnits="userSpaceOnUse"
       id="clipPath267">
      <path
         id="path268"
         style="fill:#ff0000;fill-opacity:1;fill-rule:nonzero;stroke:none"
         d="M -0.66601562,-0.66601562 V 200.66602 H 414 V -0.66601562 h -68.93164 c 9.59352,5.71819832 5.9788,19.02352262 -10.78711,18.96289062 -0.38489,-0.0014 -0.76941,-0.0036 -1.1543,-0.0059 -0.90758,-0.0058 -1.81544,-0.01012 -2.72265,-0.03906 -1.16849,-0.03741 -2.3364,-0.102597 -3.5,-0.21875 0.1037,1.839896 -1.47669,2.881959 -6.33985,2.345703 -0.2819,-0.03109 -0.56324,-0.06329 -0.84375,-0.105468 -2.398,-0.371553 -4.34651,-1.166091 -6.35351,-2.757813 -0.0413,-0.03545 -0.19476,-0.161466 -0.29492,-0.248047 -0.65679,-0.385335 -1.52425,-0.903456 -1.625,-1.001953 -0.31347,-0.228849 -0.62949,-0.454608 -0.94141,-0.685547 -0.63637,-0.357564 -1.26194,-0.73768 -1.85352,-1.164062 -1.20037,-0.833099 -2.39119,-1.672026 -3.47265,-2.658204 -3e-4,-2.78e-4 -0.002,-0.0017 -0.002,-0.002 -0.88224,-0.269152 -1.76176,-0.548863 -2.6289,-0.867187 -1.6621,-0.694699 -3.32129,-1.3746101 -5.00391,-2.0214845 -2.36078,-0.9855893 -4.7006,-2.01671 -7.00781,-3.1230469 -2.9207,-1.3204187 -5.86938,-2.571386 -8.82617,-3.8085937 -1.91204,-0.8326478 -3.80361,-1.70914135 -5.6875,-2.60156252 z M 311.23047,112.32617 c 4.50448,-0.16437 9.79359,3.16092 13.24805,11.09961 0.95197,2.18785 1.88582,4.38767 2.9746,6.51172 1.19551,2.16689 2.52411,4.26716 3.83985,6.36523 0.97059,1.59476 1.96528,3.15949 3.10742,4.63672 1.27526,1.59143 2.41254,3.28555 3.67773,4.88477 0.66798,0.78881 1.27894,1.63032 1.98047,2.39062 0.93871,0.92521 1.54321,2.10725 2.3086,3.15821 0.79171,0.94899 1.62183,1.86136 2.41015,2.81445 1.19747,1.61043 2.53552,3.10706 3.78516,4.67578 1.0571,1.43445 2.16199,2.83116 3.30078,4.20117 0.54042,0.61875 1.01236,1.291 1.45899,1.98047 0.26232,0.3252 0.52361,0.65075 0.78515,0.97656 0.6429,0.87907 1.20116,1.81572 1.7207,2.77149 0.0327,0.0613 0.065,0.12229 0.0977,0.18359 9.31537,17.47283 -6.58638,27.47452 -16.7832,13.64844 -3.90152,3.5085 -11.26899,3.35049 -18.59375,-4.00781 -0.0142,-0.0143 -0.0288,-0.0288 -0.043,-0.043 -0.23512,-0.23628 -0.4702,-0.47247 -0.70508,-0.70899 -0.73079,-0.73597 -1.4618,-1.47185 -2.1875,-2.21289 -1.2352,-1.26171 -2.46648,-2.52613 -3.66992,-3.81836 -1.68155,-1.80916 -3.33096,-3.64757 -4.94922,-5.51367 -1.62903,-1.85482 -3.2613,-3.70186 -5.0625,-5.39453 -11.16217,-10.48963 -6.38667,-21.35989 2.91211,-21.18555 0.49436,0.009 1.00324,0.0516 1.52148,0.125 -0.0412,-0.0775 -0.09,-0.15083 -0.13085,-0.22851 -1.26765,-2.53587 -2.43355,-5.12139 -3.54297,-7.73047 -4.95145,-11.6446 -0.0445,-19.33984 6.53906,-19.58008 z m -137.12891,21.13281 c 1.44189,0.029 2.13822,0.45371 4.14844,1.14063 2.71448,2.65821 2.44651,3.52837 1.31445,8.04492 -0.0695,0.2775 -0.41706,0.62025 -0.83789,0.95313 4.15855,2.67648 3.66882,7.28153 -0.33594,8.80468 1.87644,2.15741 2.21084,4.34774 1.48829,5.97071 0.72211,0.47963 1.45807,0.93906 2.17968,1.41992 8.86722,5.90879 3.3829,15.0594 -5.53711,9.23047 -2.13325,-1.39409 -4.22871,-2.83797 -6.40429,-4.16992 -1.68327,-1.0367 -3.37415,-2.06104 -5.06836,-3.08008 7.26508,6.5042 0.69205,14.23709 -7.41992,7.82031 -1.63899,-1.29649 -3.22206,-2.66002 -4.78125,-4.05078 -1.12128,-0.86794 -2.06119,-1.96784 -3.13868,-2.88867 -1.27456,2.29674 -4.81462,3.43796 -9.51562,1.18554 -2.15924,-1.03456 -4.27178,-2.15152 -6.30859,-3.41015 -1.06867,-0.77744 -2.22119,-1.3834 -3.44922,-1.85547 -0.41003,-0.1538 -0.82469,-0.29381 -1.24219,-0.42578 -7.19022,-2.27267 -7.65614,-8.08196 -3.7168,-10.14063 1.16588,-1.48579 3.37473,-2.60467 6.64453,-2.68359 -3.34023,-3.09016 -1.39466,-8.41251 5.61329,-8.60156 0.31264,-0.008 0.63608,-0.007 0.96874,0.006 0.0765,0.003 0.15202,0.005 0.22852,0.008 0.8991,0.0369 1.79965,0.0783 2.69531,0.16797 0.64349,0.0642 1.28761,0.14601 1.92969,0.23828 0.18276,-0.60014 0.36826,-1.23591 0.55469,-1.95508 1.75345,-0.97276 3.75822,-1.22802 5.71875,-1.41797 1.87062,-0.14549 3.7459,-0.19919 5.62109,-0.24609 0.93398,-0.0234 1.86853,-0.034 2.80274,-0.043 0.27606,-0.003 0.55205,-0.006 0.82812,-0.008 0.18542,-0.001 0.37122,8e-5 0.55664,0 0.69978,-1.7e-4 1.39983,1e-5 2.09961,0 2.03672,-2e-5 4.07266,0 6.10938,0 h 5.58398 c 0.24249,-0.0124 0.46394,-0.0178 0.66992,-0.0137 z" />
    </clipPath>
    <clipPath
       clipPathUnits="userSpaceOnUse"
       id="clipPath270">
      <path
         id="path271"
         style="fill:#ff0000;fill-opacity:1;fill-rule:nonzero;stroke:none"
         d="M -0.66601562,-0.66601562 V 200.66602 H 414 V -0.66601562 h -68.93164 c 9.59352,5.71819832 5.9788,19.02352262 -10.78711,18.96289062 -0.38489,-0.0014 -0.76941,-0.0036 -1.1543,-0.0059 -0.90758,-0.0058 -1.81544,-0.01012 -2.72265,-0.03906 -1.16849,-0.03741 -2.3364,-0.102597 -3.5,-0.21875 0.1037,1.839896 -1.47669,2.881959 -6.33985,2.345703 -0.2819,-0.03109 -0.56324,-0.06329 -0.84375,-0.105468 -2.398,-0.371553 -4.34651,-1.166091 -6.35351,-2.757813 -0.0413,-0.03545 -0.19476,-0.161466 -0.29492,-0.248047 -0.65679,-0.385335 -1.52425,-0.903456 -1.625,-1.001953 -0.31347,-0.228849 -0.62949,-0.454608 -0.94141,-0.685547 -0.63637,-0.357564 -1.26194,-0.73768 -1.85352,-1.164062 -1.20037,-0.833099 -2.39119,-1.672026 -3.47265,-2.658204 -3e-4,-2.78e-4 -0.002,-0.0017 -0.002,-0.002 -0.88224,-0.269152 -1.76176,-0.548863 -2.6289,-0.867187 -1.6621,-0.694699 -3.32129,-1.3746101 -5.00391,-2.0214845 -2.36078,-0.9855893 -4.7006,-2.01671 -7.00781,-3.1230469 -2.9207,-1.3204187 -5.86938,-2.571386 -8.82617,-3.8085937 -1.91204,-0.8326478 -3.80361,-1.70914135 -5.6875,-2.60156252 z M 311.23047,112.32617 c 4.50448,-0.16437 9.79359,3.16092 13.24805,11.09961 0.95197,2.18785 1.88582,4.38767 2.9746,6.51172 1.19551,2.16689 2.52411,4.26716 3.83985,6.36523 0.97059,1.59476 1.96528,3.15949 3.10742,4.63672 1.27526,1.59143 2.41254,3.28555 3.67773,4.88477 0.66798,0.78881 1.27894,1.63032 1.98047,2.39062 0.93871,0.92521 1.54321,2.10725 2.3086,3.15821 0.79171,0.94899 1.62183,1.86136 2.41015,2.81445 1.19747,1.61043 2.53552,3.10706 3.78516,4.67578 1.0571,1.43445 2.16199,2.83116 3.30078,4.20117 0.54042,0.61875 1.01236,1.291 1.45899,1.98047 0.26232,0.3252 0.52361,0.65075 0.78515,0.97656 0.6429,0.87907 1.20116,1.81572 1.7207,2.77149 0.0327,0.0613 0.065,0.12229 0.0977,0.18359 9.31537,17.47283 -6.58638,27.47452 -16.7832,13.64844 -3.90152,3.5085 -11.26899,3.35049 -18.59375,-4.00781 -0.0142,-0.0143 -0.0288,-0.0288 -0.043,-0.043 -0.23512,-0.23628 -0.4702,-0.47247 -0.70508,-0.70899 -0.73079,-0.73597 -1.4618,-1.47185 -2.1875,-2.21289 -1.2352,-1.26171 -2.46648,-2.52613 -3.66992,-3.81836 -1.68155,-1.80916 -3.33096,-3.64757 -4.94922,-5.51367 -1.62903,-1.85482 -3.2613,-3.70186 -5.0625,-5.39453 -11.16217,-10.48963 -6.38667,-21.35989 2.91211,-21.18555 0.49436,0.009 1.00324,0.0516 1.52148,0.125 -0.0412,-0.0775 -0.09,-0.15083 -0.13085,-0.22851 -1.26765,-2.53587 -2.43355,-5.12139 -3.54297,-7.73047 -4.95145,-11.6446 -0.0445,-19.33984 6.53906,-19.58008 z m -137.12891,21.13281 c 1.44189,0.029 2.13822,0.45371 4.14844,1.14063 2.71448,2.65821 2.44651,3.52837 1.31445,8.04492 -0.0695,0.2775 -0.41706,0.62025 -0.83789,0.95313 4.15855,2.67648 3.66882,7.28153 -0.33594,8.80468 1.87644,2.15741 2.21084,4.34774 1.48829,5.97071 0.72211,0.47963 1.45807,0.93906 2.17968,1.41992 8.86722,5.90879 3.3829,15.0594 -5.53711,9.23047 -2.13325,-1.39409 -4.22871,-2.83797 -6.40429,-4.16992 -1.68327,-1.0367 -3.37415,-2.06104 -5.06836,-3.08008 7.26508,6.5042 0.69205,14.23709 -7.41992,7.82031 -1.63899,-1.29649 -3.22206,-2.66002 -4.78125,-4.05078 -1.12128,-0.86794 -2.06119,-1.96784 -3.13868,-2.88867 -1.27456,2.29674 -4.81462,3.43796 -9.51562,1.18554 -2.15924,-1.03456 -4.27178,-2.15152 -6.30859,-3.41015 -1.06867,-0.77744 -2.22119,-1.3834 -3.44922,-1.85547 -0.41003,-0.1538 -0.82469,-0.29381 -1.24219,-0.42578 -7.19022,-2.27267 -7.65614,-8.08196 -3.7168,-10.14063 1.16588,-1.48579 3.37473,-2.60467 6.64453,-2.68359 -3.34023,-3.09016 -1.39466,-8.41251 5.61329,-8.60156 0.31264,-0.008 0.63608,-0.007 0.96874,0.006 0.0765,0.003 0.15202,0.005 0.22852,0.008 0.8991,0.0369 1.79965,0.0783 2.69531,0.16797 0.64349,0.0642 1.28761,0.14601 1.92969,0.23828 0.18276,-0.60014 0.36826,-1.23591 0.55469,-1.95508 1.75345,-0.97276 3.75822,-1.22802 5.71875,-1.41797 1.87062,-0.14549 3.7459,-0.19919 5.62109,-0.24609 0.93398,-0.0234 1.86853,-0.034 2.80274,-0.043 0.27606,-0.003 0.55205,-0.006 0.82812,-0.008 0.18542,-0.001 0.37122,8e-5 0.55664,0 0.69978,-1.7e-4 1.39983,1e-5 2.09961,0 2.03672,-2e-5 4.07266,0 6.10938,0 h 5.58398 c 0.24249,-0.0124 0.46394,-0.0178 0.66992,-0.0137 z" />
    </clipPath>
    <clipPath
       clipPathUnits="userSpaceOnUse"
       id="clipPath273">
      <path
         id="path274"
         style="fill:#ff0000;fill-opacity:1;fill-rule:nonzero;stroke:none"
         d="M -0.66601562,-0.66601562 V 200.66602 H 414 V -0.66601562 h -68.93164 c 9.59352,5.71819832 5.9788,19.02352262 -10.78711,18.96289062 -0.38489,-0.0014 -0.76941,-0.0036 -1.1543,-0.0059 -0.90758,-0.0058 -1.81544,-0.01012 -2.72265,-0.03906 -1.16849,-0.03741 -2.3364,-0.102597 -3.5,-0.21875 0.1037,1.839896 -1.47669,2.881959 -6.33985,2.345703 -0.2819,-0.03109 -0.56324,-0.06329 -0.84375,-0.105468 -2.398,-0.371553 -4.34651,-1.166091 -6.35351,-2.757813 -0.0413,-0.03545 -0.19476,-0.161466 -0.29492,-0.248047 -0.65679,-0.385335 -1.52425,-0.903456 -1.625,-1.001953 -0.31347,-0.228849 -0.62949,-0.454608 -0.94141,-0.685547 -0.63637,-0.357564 -1.26194,-0.73768 -1.85352,-1.164062 -1.20037,-0.833099 -2.39119,-1.672026 -3.47265,-2.658204 -3e-4,-2.78e-4 -0.002,-0.0017 -0.002,-0.002 -0.88224,-0.269152 -1.76176,-0.548863 -2.6289,-0.867187 -1.6621,-0.694699 -3.32129,-1.3746101 -5.00391,-2.0214845 -2.36078,-0.9855893 -4.7006,-2.01671 -7.00781,-3.1230469 -2.9207,-1.3204187 -5.86938,-2.571386 -8.82617,-3.8085937 -1.91204,-0.8326478 -3.80361,-1.70914135 -5.6875,-2.60156252 z M 311.23047,112.32617 c 4.50448,-0.16437 9.79359,3.16092 13.24805,11.09961 0.95197,2.18785 1.88582,4.38767 2.9746,6.51172 1.19551,2.16689 2.52411,4.26716 3.83985,6.36523 0.97059,1.59476 1.96528,3.15949 3.10742,4.63672 1.27526,1.59143 2.41254,3.28555 3.67773,4.88477 0.66798,0.78881 1.27894,1.63032 1.98047,2.39062 0.93871,0.92521 1.54321,2.10725 2.3086,3.15821 0.79171,0.94899 1.62183,1.86136 2.41015,2.81445 1.19747,1.61043 2.53552,3.10706 3.78516,4.67578 1.0571,1.43445 2.16199,2.83116 3.30078,4.20117 0.54042,0.61875 1.01236,1.291 1.45899,1.98047 0.26232,0.3252 0.52361,0.65075 0.78515,0.97656 0.6429,0.87907 1.20116,1.81572 1.7207,2.77149 0.0327,0.0613 0.065,0.12229 0.0977,0.18359 9.31537,17.47283 -6.58638,27.47452 -16.7832,13.64844 -3.90152,3.5085 -11.26899,3.35049 -18.59375,-4.00781 -0.0142,-0.0143 -0.0288,-0.0288 -0.043,-0.043 -0.23512,-0.23628 -0.4702,-0.47247 -0.70508,-0.70899 -0.73079,-0.73597 -1.4618,-1.47185 -2.1875,-2.21289 -1.2352,-1.26171 -2.46648,-2.52613 -3.66992,-3.81836 -1.68155,-1.80916 -3.33096,-3.64757 -4.94922,-5.51367 -1.62903,-1.85482 -3.2613,-3.70186 -5.0625,-5.39453 -11.16217,-10.48963 -6.38667,-21.35989 2.91211,-21.18555 0.49436,0.009 1.00324,0.0516 1.52148,0.125 -0.0412,-0.0775 -0.09,-0.15083 -0.13085,-0.22851 -1.26765,-2.53587 -2.43355,-5.12139 -3.54297,-7.73047 -4.95145,-11.6446 -0.0445,-19.33984 6.53906,-19.58008 z m -137.12891,21.13281 c 1.44189,0.029 2.13822,0.45371 4.14844,1.14063 2.71448,2.65821 2.44651,3.52837 1.31445,8.04492 -0.0695,0.2775 -0.41706,0.62025 -0.83789,0.95313 4.15855,2.67648 3.66882,7.28153 -0.33594,8.80468 1.87644,2.15741 2.21084,4.34774 1.48829,5.97071 0.72211,0.47963 1.45807,0.93906 2.17968,1.41992 8.86722,5.90879 3.3829,15.0594 -5.53711,9.23047 -2.13325,-1.39409 -4.22871,-2.83797 -6.40429,-4.16992 -1.68327,-1.0367 -3.37415,-2.06104 -5.06836,-3.08008 7.26508,6.5042 0.69205,14.23709 -7.41992,7.82031 -1.63899,-1.29649 -3.22206,-2.66002 -4.78125,-4.05078 -1.12128,-0.86794 -2.06119,-1.96784 -3.13868,-2.88867 -1.27456,2.29674 -4.81462,3.43796 -9.51562,1.18554 -2.15924,-1.03456 -4.27178,-2.15152 -6.30859,-3.41015 -1.06867,-0.77744 -2.22119,-1.3834 -3.44922,-1.85547 -0.41003,-0.1538 -0.82469,-0.29381 -1.24219,-0.42578 -7.19022,-2.27267 -7.65614,-8.08196 -3.7168,-10.14063 1.16588,-1.48579 3.37473,-2.60467 6.64453,-2.68359 -3.34023,-3.09016 -1.39466,-8.41251 5.61329,-8.60156 0.31264,-0.008 0.63608,-0.007 0.96874,0.006 0.0765,0.003 0.15202,0.005 0.22852,0.008 0.8991,0.0369 1.79965,0.0783 2.69531,0.16797 0.64349,0.0642 1.28761,0.14601 1.92969,0.23828 0.18276,-0.60014 0.36826,-1.23591 0.55469,-1.95508 1.75345,-0.97276 3.75822,-1.22802 5.71875,-1.41797 1.87062,-0.14549 3.7459,-0.19919 5.62109,-0.24609 0.93398,-0.0234 1.86853,-0.034 2.80274,-0.043 0.27606,-0.003 0.55205,-0.006 0.82812,-0.008 0.18542,-0.001 0.37122,8e-5 0.55664,0 0.69978,-1.7e-4 1.39983,1e-5 2.09961,0 2.03672,-2e-5 4.07266,0 6.10938,0 h 5.58398 c 0.24249,-0.0124 0.46394,-0.0178 0.66992,-0.0137 z" />
    </clipPath>
    <clipPath
       clipPathUnits="userSpaceOnUse"
       id="clipPath276">
      <path
         id="path277"
         style="fill:#ff0000;fill-opacity:1;fill-rule:nonzero;stroke:none"
         d="M -0.66601562,-0.66601562 V 200.66602 H 414 V -0.66601562 h -68.93164 c 9.59352,5.71819832 5.9788,19.02352262 -10.78711,18.96289062 -0.38489,-0.0014 -0.76941,-0.0036 -1.1543,-0.0059 -0.90758,-0.0058 -1.81544,-0.01012 -2.72265,-0.03906 -1.16849,-0.03741 -2.3364,-0.102597 -3.5,-0.21875 0.1037,1.839896 -1.47669,2.881959 -6.33985,2.345703 -0.2819,-0.03109 -0.56324,-0.06329 -0.84375,-0.105468 -2.398,-0.371553 -4.34651,-1.166091 -6.35351,-2.757813 -0.0413,-0.03545 -0.19476,-0.161466 -0.29492,-0.248047 -0.65679,-0.385335 -1.52425,-0.903456 -1.625,-1.001953 -0.31347,-0.228849 -0.62949,-0.454608 -0.94141,-0.685547 -0.63637,-0.357564 -1.26194,-0.73768 -1.85352,-1.164062 -1.20037,-0.833099 -2.39119,-1.672026 -3.47265,-2.658204 -3e-4,-2.78e-4 -0.002,-0.0017 -0.002,-0.002 -0.88224,-0.269152 -1.76176,-0.548863 -2.6289,-0.867187 -1.6621,-0.694699 -3.32129,-1.3746101 -5.00391,-2.0214845 -2.36078,-0.9855893 -4.7006,-2.01671 -7.00781,-3.1230469 -2.9207,-1.3204187 -5.86938,-2.571386 -8.82617,-3.8085937 -1.91204,-0.8326478 -3.80361,-1.70914135 -5.6875,-2.60156252 z M 311.23047,112.32617 c 4.50448,-0.16437 9.79359,3.16092 13.24805,11.09961 0.95197,2.18785 1.88582,4.38767 2.9746,6.51172 1.19551,2.16689 2.52411,4.26716 3.83985,6.36523 0.97059,1.59476 1.96528,3.15949 3.10742,4.63672 1.27526,1.59143 2.41254,3.28555 3.67773,4.88477 0.66798,0.78881 1.27894,1.63032 1.98047,2.39062 0.93871,0.92521 1.54321,2.10725 2.3086,3.15821 0.79171,0.94899 1.62183,1.86136 2.41015,2.81445 1.19747,1.61043 2.53552,3.10706 3.78516,4.67578 1.0571,1.43445 2.16199,2.83116 3.30078,4.20117 0.54042,0.61875 1.01236,1.291 1.45899,1.98047 0.26232,0.3252 0.52361,0.65075 0.78515,0.97656 0.6429,0.87907 1.20116,1.81572 1.7207,2.77149 0.0327,0.0613 0.065,0.12229 0.0977,0.18359 9.31537,17.47283 -6.58638,27.47452 -16.7832,13.64844 -3.90152,3.5085 -11.26899,3.35049 -18.59375,-4.00781 -0.0142,-0.0143 -0.0288,-0.0288 -0.043,-0.043 -0.23512,-0.23628 -0.4702,-0.47247 -0.70508,-0.70899 -0.73079,-0.73597 -1.4618,-1.47185 -2.1875,-2.21289 -1.2352,-1.26171 -2.46648,-2.52613 -3.66992,-3.81836 -1.68155,-1.80916 -3.33096,-3.64757 -4.94922,-5.51367 -1.62903,-1.85482 -3.2613,-3.70186 -5.0625,-5.39453 -11.16217,-10.48963 -6.38667,-21.35989 2.91211,-21.18555 0.49436,0.009 1.00324,0.0516 1.52148,0.125 -0.0412,-0.0775 -0.09,-0.15083 -0.13085,-0.22851 -1.26765,-2.53587 -2.43355,-5.12139 -3.54297,-7.73047 -4.95145,-11.6446 -0.0445,-19.33984 6.53906,-19.58008 z m -137.12891,21.13281 c 1.44189,0.029 2.13822,0.45371 4.14844,1.14063 2.71448,2.65821 2.44651,3.52837 1.31445,8.04492 -0.0695,0.2775 -0.41706,0.62025 -0.83789,0.95313 4.15855,2.67648 3.66882,7.28153 -0.33594,8.80468 1.87644,2.15741 2.21084,4.34774 1.48829,5.97071 0.72211,0.47963 1.45807,0.93906 2.17968,1.41992 8.86722,5.90879 3.3829,15.0594 -5.53711,9.23047 -2.13325,-1.39409 -4.22871,-2.83797 -6.40429,-4.16992 -1.68327,-1.0367 -3.37415,-2.06104 -5.06836,-3.08008 7.26508,6.5042 0.69205,14.23709 -7.41992,7.82031 -1.63899,-1.29649 -3.22206,-2.66002 -4.78125,-4.05078 -1.12128,-0.86794 -2.06119,-1.96784 -3.13868,-2.88867 -1.27456,2.29674 -4.81462,3.43796 -9.51562,1.18554 -2.15924,-1.03456 -4.27178,-2.15152 -6.30859,-3.41015 -1.06867,-0.77744 -2.22119,-1.3834 -3.44922,-1.85547 -0.41003,-0.1538 -0.82469,-0.29381 -1.24219,-0.42578 -7.19022,-2.27267 -7.65614,-8.08196 -3.7168,-10.14063 1.16588,-1.48579 3.37473,-2.60467 6.64453,-2.68359 -3.34023,-3.09016 -1.39466,-8.41251 5.61329,-8.60156 0.31264,-0.008 0.63608,-0.007 0.96874,0.006 0.0765,0.003 0.15202,0.005 0.22852,0.008 0.8991,0.0369 1.79965,0.0783 2.69531,0.16797 0.64349,0.0642 1.28761,0.14601 1.92969,0.23828 0.18276,-0.60014 0.36826,-1.23591 0.55469,-1.95508 1.75345,-0.97276 3.75822,-1.22802 5.71875,-1.41797 1.87062,-0.14549 3.7459,-0.19919 5.62109,-0.24609 0.93398,-0.0234 1.86853,-0.034 2.80274,-0.043 0.27606,-0.003 0.55205,-0.006 0.82812,-0.008 0.18542,-0.001 0.37122,8e-5 0.55664,0 0.69978,-1.7e-4 1.39983,1e-5 2.09961,0 2.03672,-2e-5 4.07266,0 6.10938,0 h 5.58398 c 0.24249,-0.0124 0.46394,-0.0178 0.66992,-0.0137 z" />
    </clipPath>
  </defs>
  <sodipodi:namedview
     id="namedview1"
     pagecolor="#ffffff"
     bordercolor="#111111"
     borderopacity="1"
     inkscape:showpageshadow="0"
     inkscape:pageopacity="0"
     inkscape:pagecheckerboard="1"
     inkscape:deskcolor="#d1d1d1"
     inkscape:zoom="1"
     inkscape:cx="140.5"
     inkscape:cy="130.5"
     inkscape:window-width="1392"
     inkscape:window-height="1212"
     inkscape:window-x="262"
     inkscape:window-y="33"
     inkscape:window-maximized="0"
     inkscape:current-layer="layer1" />
  <g
     inkscape:groupmode="layer"
     inkscape:label="Image"
     id="g1"
     style="display:inline" />
  <g
     inkscape:groupmode="layer"
     id="layer1"
     inkscape:label="stylized"
     style="display:inline">
    <g
       id="g278">
      <path
         style="display:inline;fill:#f2cfc7"
         d="m 64.841979,195.0642 -0.841977,-0.84198 v -1.64379 -1.64379 l 4.739994,-7.0436 4.739995,-7.04361 4.824675,-11.10858 4.824675,-11.10858 4.447559,-3.39232 4.44756,-3.39231 0.816684,2.12824 0.816683,2.12824 -0.807697,5.05107 -0.807697,5.05106 -4.105004,9.05339 -4.105004,9.05339 -6.916212,6.63805 -6.916211,6.63804 -2.158023,1.15953 -2.158023,1.15953 z m 164.824691,-16.02217 -3,-3.46445 v -2.24144 -2.24143 l 3.39607,-1.54736 L 233.45881,168 h 3.20435 3.20434 l 1.26874,-2.26712 1.26874,-2.26712 5.13085,1.26712 5.13084,1.26712 0.29154,5.29189 0.29154,5.29189 -2.9241,3.11255 -2.92409,3.11256 -1.72225,-2.35532 -1.72226,-2.35532 -3.64519,1.45353 -3.64519,1.45352 -2,0.75059 -2,0.75058 z M 43.455498,134.86433 42.64126,133.54687 46.167109,130.77343 49.692958,128 h 1.773592 1.773592 l 6.128454,-2.08066 6.128454,-2.08067 3.584809,0.414 3.584809,0.414 -7.333333,4.13745 -7.333334,4.13745 -5.094685,0.94073 -5.094685,0.94073 -1.770447,0.67938 -1.770448,0.67939 z m 57.567792,-0.95215 -0.75449,-0.75449 0.68303,-8.24551 0.68303,-8.24551 2.84924,-4.32423 2.84924,-4.32422 2.18141,-0.009 2.18141,-0.009 2.15192,4.53484 L 116,117.0699 v 3.02705 3.02705 l -6.02341,5.77144 -6.02341,5.77145 h -1.0877 -1.0877 z M 125.33334,124 v -1.33333 L 128,120 l 2.66667,-2.66667 h 2.24945 2.24946 l -3.83224,4 -3.83225,4 h -1.08388 -1.08387 z m 268,-19.55944 -10,-3.29509 -31.60589,0.63389 -31.60589,0.63389 -4.85632,-1.09528 -4.85631,-1.09527 -3.20446,-3.010436 -3.20446,-3.010435 v -1.00784 -1.007841 l 4.33333,1.247038 4.33333,1.247038 34.66667,1.356072 34.66667,1.356072 7.154,1.247811 7.154,1.247812 6.846,2.213099 6.846,2.2131 1.95238,1.8429 1.95238,1.84291 -5.28571,-0.13218 -5.28572,-0.13218 z m -138.6594,-3.09364 -1.41988,-2.653079 1.95309,-3.013587 1.95309,-3.013587 -0.46431,-4.83266 -0.46432,-4.832659 -1.70225,-2.725739 -1.70225,-2.725739 1.65665,-1.996138 1.65665,-1.996137 -2.49037,-0.790411 -2.49036,-0.790411 -12.8201,0.680834 -12.8201,0.680835 -0.42641,-2.834023 -0.4264,-2.834023 -4.88167,-0.289266 -4.88167,-0.289265 0.69077,4.256757 0.69078,4.256758 -2.10595,0.808128 -2.10595,0.808129 -2.00582,-2.863709 -2.00582,-2.863708 -0.93333,0.933333 -0.93334,0.933334 2.21113,1.65289 2.21112,1.65289 -1.12591,1.783323 -1.12591,1.783322 -3.13805,-0.449989 -3.13805,-0.44999 -1.25943,-4.410241 -1.25944,-4.410242 -3.70939,-1.918203 -3.7094,-1.918202 -0.8284,1.340376 -0.8284,1.340375 0.84258,2.654735 0.84259,2.654736 h -1.25993 -1.25992 l -1.65986,-2 -1.65985,-2 h -2.5215 -2.5215 l -2.6155,-1.633407 -2.61549,-1.633406 -1.93785,2.633406 -1.93785,2.633407 -1.00178,-2.586707 -1.00177,-2.586707 1.49831,-0.499436 1.49831,-0.499437 -0.78009,-2.032894 -0.7801,-2.032893 -3.04548,3.785703 L 165.53237,70 l -1.69951,-1.666667 -1.69952,-1.666666 h -4.4 -4.4 v 1.555555 1.555556 l -0.81768,-0.817673 -0.81767,-0.817672 -5.20319,2.081903 -5.20318,2.081903 -4.05332,-1.678939 -4.05332,-1.67894 -1.52582,1.52582 L 130.13334,72 h -1.15652 -1.15652 l 0.72608,-2.333333 0.72608,-2.333334 -1.11153,-1.76906 -1.11154,-1.76906 -2.52469,0.435727 -2.5247,0.435727 -0.0549,-5.343475 -0.0549,-5.343474 -1.02379,-1.656526 -1.02379,-1.656525 h -3.4302 -3.4302 l 0.73235,-5.46011 0.73236,-5.46011 -2.89013,0.918096 -2.89013,0.918096 -3.76256,0.70742 -3.76255,0.707419 -1.325291,3.485776 -1.325289,3.485776 -2.398806,-3.180169 -2.398807,-3.180169 -6.817397,0.904359 -6.817397,0.90436 -5.131513,-2.617903 -5.131513,-2.617902 -7.482389,0.415804 -7.482388,0.415805 -3.01971,-3.214334 -3.01971,-3.214333 -5.609025,0.841125 -5.609025,0.841125 -2.411817,-1.34972 -2.411817,-1.349721 -3.772185,2.686033 -3.772185,2.686032 L 20.602648,38.07596 16,37.212499 v -1.33493 -1.33493 L 20.12742,32.27132 24.25484,30 l 10.87258,-7.10674 10.872581,-7.10674 6.194862,-3.178886 6.194862,-3.1788855 8.753194,-1.3983294 8.753194,-1.3983294 6.166572,1.3819578 6.166572,1.3819578 8.218706,3.4322247 8.218707,3.432225 8,6.860033 8,6.860033 4.53787,4.343073 4.53787,4.343073 h 2.02381 2.02381 l 2.10499,1.887057 2.10498,1.887057 11.33334,0.373714 11.33333,0.373714 26.66667,-1.090122 26.66667,-1.090121 10,1.667037 10,1.667037 11.33333,0.162314 11.33333,0.162313 6.25712,3.678203 6.25711,3.678204 8.03288,9.830613 8.03289,9.830613 1.5727,3.451698 1.5727,3.451698 -1.69263,2.039486 -1.69262,2.039485 h -2.96134 -2.96134 l -7.73027,2.659604 -7.73027,2.659604 -1.87491,1.556034 -1.87491,1.556034 1.49929,0.926613 1.49929,0.926613 -1.48757,5.524415 L 259.89722,104 h -1.90169 -1.9017 z M 103.09683,85.646035 100.19366,85.173241 98.743412,83.425803 97.293167,81.678364 99.646585,78.896037 102,76.11371 l 3.49656,-0.825372 3.49656,-0.825371 0.83559,3.329232 0.83558,3.329233 -0.76857,2.002859 -0.76857,2.002859 -1.56357,0.495839 L 106,86.118828 Z M 0,4.1111111 V 0 H 2.0885632 4.1771264 L 3.7552299,3.5638415 3.3333334,7.127683 1.6666667,7.6749526 0,8.2222222 Z"
         id="path28"
         clip-path="url(#clipPath41)" />
      <path
         style="display:inline;fill:#eaa6a2"
         d="m 64.000002,189.66737 v -1.26727 l 4.020374,-5.54996 4.020374,-5.54997 4.088324,-10.31675 4.088324,-10.31675 5.111708,-6.66667 5.111708,-6.66667 3.648329,-8.9158 3.64833,-8.91581 -1.824537,-14.36085 -1.824537,-14.360855 -4.377532,-5.734878 -4.377532,-5.734879 V 83.868853 82.427447 L 87.913141,80.213723 90.492946,78 l 0.265923,-6 0.265923,-6 -0.179061,-2.426068 -0.179062,-2.426068 -3,0.426068 -3,0.426068 -0.0206,3.333333 -0.0206,3.333334 -2.967247,0.424476 -2.967247,0.424475 -7.678816,-2.673794 -7.678816,-2.673794 -6.091784,-0.865851 -6.091783,-0.86585 -3.706038,-4.64463 -3.706037,-4.644629 0.650438,-2.487278 0.650438,-2.487279 -1.933556,-2.760538 -1.933557,-2.760538 -3.8346,-1.982949 -3.834601,-1.982949 -2.058417,0.789888 -2.058417,0.789889 L 28.03348,45.132658 26.681539,50 l -0.0074,1.569595 -0.0074,1.569595 4.785727,3.944799 4.785726,3.9448 -1.244121,0.768909 -1.244122,0.768909 -4.874938,-0.791093 -4.874938,-0.791094 V 60.09221 59.2 L 25.483896,57.716176 26.96772,56.232353 26.056204,54.757489 25.144688,53.282625 18.57238,49.952185 12,46.621744 12.02042,41.644206 12.04084,36.666667 13.020423,35.199453 14,33.732239 l 8.000001,-4.37068 8,-4.370681 7.449819,-5.02438 7.449819,-5.024379 5.679388,-2.897408 5.679389,-2.8974078 0.580212,0.5802124 0.580213,0.5802124 -3.869122,1.602643 -3.869122,1.602643 L 36.957659,21.756507 24.23472,30 20.11736,32.27132 16,34.542639 v 1.33493 1.33493 l 4.602648,0.863461 4.602648,0.863462 3.772185,-2.686032 3.772185,-2.686033 2.411817,1.349721 2.411817,1.34972 5.609025,-0.841125 5.609025,-0.841125 3.01971,3.214333 3.01971,3.214334 7.482388,-0.415805 7.482389,-0.415804 5.131513,2.617902 5.131513,2.617903 6.817397,-0.90436 6.817397,-0.904359 2.398807,3.180169 2.398806,3.180169 1.325289,-3.485776 1.325291,-3.485776 3.76255,-0.707419 3.76256,-0.70742 2.89013,-0.918096 2.89013,-0.918096 -0.73236,5.46011 -0.73235,5.46011 h 3.4302 3.4302 l 1.02379,1.656525 1.02379,1.656526 0.0549,5.343474 0.0549,5.343475 2.5247,-0.435727 2.52469,-0.435727 1.11154,1.76906 1.11153,1.76906 -0.72608,2.333334 L 127.8203,72 h 1.15652 1.15652 l 1.52582,-1.52582 1.52582,-1.52582 4.05332,1.67894 4.05332,1.678939 5.20318,-2.081903 5.20319,-2.081903 0.81767,0.817672 0.81768,0.817673 v -1.555556 -1.555555 h 4.4 4.4 l 1.69952,1.666666 1.69951,1.666667 3.04549,-3.785704 3.04548,-3.785703 0.7801,2.032893 0.78009,2.032894 -1.49831,0.499437 -1.49831,0.499436 1.00177,2.586707 1.00178,2.586707 1.93785,-2.633407 1.93785,-2.633406 2.61549,1.633406 2.6155,1.633407 h 2.5215 2.5215 l 1.65985,2 1.65986,2 h 1.25992 1.25993 l -0.84259,-2.654736 -0.84258,-2.654735 0.8284,-1.340375 0.8284,-1.340376 3.7094,1.918202 3.70939,1.918203 1.25944,4.410242 1.25943,4.410241 3.13805,0.44999 3.13805,0.449989 1.12591,-1.783322 1.12591,-1.783323 -2.21112,-1.65289 -2.21113,-1.65289 0.93334,-0.933334 0.93333,-0.933333 2.00582,2.863708 2.00582,2.863709 2.10595,-0.808129 2.10595,-0.808128 -0.69078,-4.256758 -0.69077,-4.256757 4.88167,0.289265 4.88167,0.289266 0.4264,2.834023 0.42641,2.834023 12.8201,-0.680835 12.8201,-0.680834 2.38276,0.75626 2.38277,0.75626 -1.54905,2.480418 -1.54905,2.480419 1.67875,2.022774 1.67876,2.022775 0.48781,5.085494 0.48781,5.085494 -1.95309,3.013587 -1.95309,3.013587 1.41988,2.653079 1.41989,2.65308 h 1.9017 1.90169 l 1.48757,-5.524416 1.48757,-5.524415 -1.49929,-0.926613 -1.49929,-0.926613 1.87491,-1.556034 1.87491,-1.556034 7.73027,-2.659604 7.73027,-2.659604 h 2.96134 2.96134 l 1.69262,-2.039485 1.69263,-2.039486 -1.53813,-3.375827 -1.53813,-3.375828 -7.6579,-9.487094 -7.6579,-9.487095 -5.92771,-3.764259 -5.92771,-3.76426 h 1.39432 1.39433 l 5.20005,3.796748 5.20005,3.796748 6,6.607761 6,6.607762 9.33333,11.022263 9.33334,11.022264 4.94688,2.573227 4.94688,2.573227 7.71979,0.246643 7.71978,0.246644 -6.97745,0.488921 -6.97745,0.488921 -4.68922,-1.294755 -4.68921,-1.294754 v 0.993438 0.993438 l 3.20446,3.010435 3.20446,3.010436 4.85631,1.09527 4.85632,1.09528 31.60589,-0.63389 31.60589,-0.63389 9.82129,3.09393 9.8213,3.09393 -25.8213,0.0415 -25.82129,0.0415 -19.07899,0.36915 -19.07899,0.36915 -4.92101,-1.57924 -4.92101,-1.57924 -2.01781,-1.75253 -2.0178,-1.75253 -6.64886,2.05006 -6.64886,2.05006 -1.68668,0.50354 -1.68668,0.50354 -1.47854,3.70084 -1.47855,3.70083 0.18212,9.1068 0.18213,9.1068 -2.22523,6.8932 -2.22523,6.8932 -1.31463,3.73394 -1.31463,3.73394 -6.46067,8.08219 -6.46067,8.0822 -2.89526,4.85053 -2.89525,4.85053 -2.78778,2.30369 -2.78779,2.30368 -2.22222,0.0297 -2.22222,0.0297 -0.49093,-1.4728 -0.49094,-1.47279 -5.39617,1.61673 -5.39617,1.61673 -3.32336,-3.14393 -3.32335,-3.14394 -0.94486,-2.55758 -0.94486,-2.55758 4.23508,-4.36949 4.23507,-4.36949 10.48728,-4.22742 10.48727,-4.22743 3.43889,-4.08689 3.43888,-4.08688 -0.80274,-5.42529 -0.80274,-5.42528 -0.31429,-5.60998 -0.31428,-5.60997 -6,-6.14097 -6,-6.14097 -5,-2.82791 -5,-2.82791 v -1.48866 -1.48866 l -1.66667,-3.58875 -1.66667,-3.588751 -1.06621,-0.0104 -1.06621,-0.0104 -3.93379,2.034241 -3.93379,2.03424 v 2.36576 2.36576 l -1.6,1.6 -1.6,1.6 h -3.13288 -3.13288 l -4.26712,-2.28446 -4.26712,-2.28447 -4.66667,-1.69546 -4.66666,-1.69546 -4.83717,-0.0201 -4.83717,-0.0201 -4.9181,2.05492 -4.9181,2.05491 -7.44881,-3.52385 -7.44881,-3.523858 -7.26876,-2.397978 -7.26875,-2.397979 -3.63927,1.043728 -3.63927,1.043727 -2.36194,-1.321811 -2.36195,-1.321811 -2.01484,2.014839 -2.01484,2.01484 2.82222,1.510406 L 136,100.09382 v 4 4 l 2.19103,3.34393 2.19102,3.34393 3.357,1.75891 3.357,1.7589 -6.30542,0.94556 -6.30541,0.94556 -9.46451,8.23803 -9.46451,8.23803 -8.44476,8.40322 -8.444771,8.40322 v 2.27405 2.27406 l -3.333333,6.26165 -3.333334,6.26165 v 1.77329 1.77328 l -7.562391,7.28779 -7.562392,7.28779 4.020659,-5.33334 4.020658,-5.33333 3.557113,-7.86138 3.557113,-7.86139 0.813533,-5.08755 0.813532,-5.08756 -0.816683,-2.12824 -0.816684,-2.12824 -4.44756,3.39231 -4.447559,3.39232 -4.824675,11.10858 -4.824675,11.10858 -4.739995,7.04361 -4.739994,7.0436 z m 176.311858,-10.11559 3.64519,-1.45353 1.72226,2.35532 1.72225,2.35532 2.92409,-3.11256 2.9241,-3.11255 -0.29154,-5.29189 -0.29154,-5.29189 -5.13084,-1.26712 -5.13085,-1.26712 -1.26874,2.26712 L 239.8675,168 h -3.20434 -3.20435 l -3.39607,1.54735 -3.39607,1.54736 v 2.24143 2.24144 l 3,3.46445 3,3.46444 2,-0.75058 2,-0.75059 z M 109.97659,128.89522 116,123.12378 v -3.02705 -3.02705 l -2.15192,-4.53484 -2.15192,-4.53484 -2.18141,0.009 -2.18141,0.009 -2.84924,4.32422 -2.84924,4.32423 -0.68303,8.24551 -0.68303,8.24551 0.75449,0.75449 0.75449,0.75449 h 1.0877 1.0877 z m 21.35675,-7.56189 3.83224,-4 h -2.24946 -2.24945 L 128,120 l -2.66666,2.66667 V 124 v 1.33333 h 1.08387 1.08388 z m -21.43762,-38.209039 0.76857,-2.002859 -0.83558,-3.329233 -0.83559,-3.329232 -3.49656,0.825371 L 102,76.11371 l -2.353415,2.782327 -2.353418,2.782327 1.450245,1.747439 1.450248,1.747438 2.90317,0.472794 2.90317,0.472793 1.56358,-0.495839 1.56357,-0.495839 z m -55.32207,50.675059 3.240315,-0.71447 7.426352,-4.20911 7.426351,-4.2091 -4.271725,-0.41322 -4.271726,-0.41322 -2.640619,1.41322 -2.640619,1.41322 -1.754322,-0.008 -1.754322,-0.008 3.333333,-1.76994 3.333334,-1.76994 7.854358,-4.22184 7.854358,-4.22185 h 1.967817 1.967817 l -0.712333,2.72396 -0.712333,2.72397 2.387181,1.49082 2.387181,1.49082 -5.321013,5.06176 -5.321014,5.06175 -11.509343,0.64704 -11.509343,0.64703 z m 347.52259,-31.90559 -5.23711,-1.918343 -8.76289,-1.477125 -8.7629,-1.477126 -26,-1.047703 -26,-1.047703 28.66667,0.398756 28.66667,0.398755 10.37185,2.760334 10.37185,2.760335 2.29482,1.33748 2.29481,1.33749 -1.33333,-0.0534 -1.33334,-0.0534 z M 136,40.666667 l -1.65985,-2 h -2.29887 -2.29887 l -4.53787,-4.376729 -4.53787,-4.376728 -9.01795,-7.623272 -9.01796,-7.623271 1.01796,0.01448 1.01795,0.01448 12.95365,11.318852 12.95364,11.318851 h 1.8831 1.88309 l 1.60948,1.939307 1.60948,1.939307 8.22045,0.470454 8.22044,0.470453 -8.17007,0.256906 -8.17007,0.256907 z m 31,1.019947 6.33334,-0.499391 6.33333,0.499391 L 186,42.186005 h -12.66666 -12.66667 z m 32.71137,-1.33782 7.04469,-0.491253 6.28864,0.497565 6.28864,0.497565 -13.33333,-0.0063 -13.33334,-0.0063 z"
         id="path27"
         clip-path="url(#clipPath40)" />
      <path
         style="display:inline;fill:#a96f6b"
         d="m 87.666669,178.77304 4.333333,-4.24154 0.0417,-1.59908 0.0417,-1.59909 3.279446,-6.66666 3.279447,-6.66667 0.01219,-2.06718 0.01219,-2.06717 6.509825,-7.26616 6.50982,-7.26616 8.49018,-5.84783 8.49018,-5.84784 -7.33333,7.68276 -7.33334,7.68276 -5.46723,5.15105 -5.46723,5.15106 -4.716361,9.68069 -4.716359,9.68069 -0.710892,2.1674 -0.710891,2.16741 -4.438853,3.00654 -4.438853,3.00655 z m 169.722031,-3.73091 2.63283,-5.62453 8.0115,-9.56537 8.0115,-9.56537 0.59249,-2.8101 0.59249,-2.81009 0.56392,-2.66667 0.56391,-2.66667 0.15467,5.08766 0.15466,5.08765 -1.54743,2.91235 -1.54743,2.91234 -8.11923,9.56951 -8.11924,9.56951 -2.28873,3.09716 -2.28873,3.09716 z m -25.38869,-11.91687 v -0.60534 l 7.60751,-3.3644 7.60752,-3.36441 3.74593,-2.66734 3.74594,-2.66734 1.98641,-3.8413 1.98641,-3.84129 -2.77929,-5.72025 -2.77929,-5.72026 -0.99701,-1.93308 -0.99702,-1.93309 -3.23022,-2.30775 -3.23023,-2.30774 -6,0.93753 -6,0.93753 -11.33333,-0.85589 -11.33333,-0.85588 L 190,121.36689 l -20,-1.64807 -12.66666,0.77878 -12.66667,0.77878 2,-1.30486 2,-1.30485 -2,-1.31292 -2,-1.31292 -1.57587,-0.0204 -1.57588,-0.0204 -2.75746,-3.87249 L 136,108.25504 v -4.08059 -4.0806 l -2.82222,-1.510403 -2.82222,-1.510406 2.01484,-2.01484 2.01484,-2.014839 2.36195,1.321811 2.36194,1.321811 3.63927,-1.043727 3.63927,-1.043728 7.26875,2.397979 7.26876,2.397978 7.44881,3.523854 7.44881,3.52385 4.9181,-2.05491 4.9181,-2.05492 4.83717,0.0201 4.83717,0.0201 4.66666,1.69546 4.66667,1.69546 4.26712,2.28447 4.26712,2.28446 h 3.13288 3.13288 l 1.6,-1.6 1.6,-1.6 v -2.36576 -2.36576 l 3.93379,-2.034236 3.93379,-2.034241 1.06621,0.0104 1.06621,0.0104 1.66667,3.588747 1.66667,3.58875 v 1.48866 1.48866 l 5,2.82791 5,2.82791 6,6.14097 6,6.14097 0.31428,5.60997 0.31429,5.60998 0.81044,5.50603 0.81044,5.50604 -3.79139,4.19527 -3.7914,4.19527 -10.33333,3.83066 -10.33333,3.83066 z M 85.673456,146.66667 88.873455,142 l 3.639692,-8.33701 3.639691,-8.33701 -0.821774,-1.32966 -0.821774,-1.32965 h -1.377096 -1.377096 l -3.92657,3 -3.926571,3 -4.284311,3.4812 -4.284311,3.48121 -10,0.63214 -10,0.63214 5.333333,-1.67754 5.333334,-1.67755 4.116311,-0.10247 4.116311,-0.10247 5.380712,-5.11855 5.380712,-5.11854 -2.387181,-1.49082 -2.387181,-1.49082 0.766868,-2.93251 0.766868,-2.93251 -5.210043,0.77254 -5.210044,0.77254 4.666667,-2.13534 4.666667,-2.13534 5.705442,-2.68436 5.705442,-2.68436 0.775829,-3.09115 0.775829,-3.091154 -3.658845,-4.796994 -3.658845,-4.796993 -8.040467,-5.196805 -8.040467,-5.196804 -4.781959,-1.232701 -4.78196,-1.2327 -10.07997,-0.892888 -10.079971,-0.892887 -11.92003,-6.29232 -11.92003,-6.292319 -3,-4.438617 -3,-4.438617 v -3.802822 -3.802822 h 0.710992 0.710991 l 6.527983,3.307979 6.527983,3.307979 0.911516,1.474864 0.911516,1.474864 -1.483824,1.483823 L 24.000001,59.2 v 0.89221 0.89221 l 4.874938,0.791094 4.874938,0.791093 L 34.951394,61.82403 36.15291,61.081452 31.200141,56.800121 26.247371,52.51879 27.1119,49.259395 27.97643,46 l 1.196047,-1.837487 1.196048,-1.837487 1.482405,0.916176 1.482404,0.916177 V 46.478689 48.8 l 1.6,1.6 1.6,1.6 h 2.4 2.4 l 5.192311,5.192311 5.192311,5.19231 5.807689,0.913418 5.80769,0.913418 7.678816,2.652081 7.678816,2.65208 2.967247,-0.424475 2.967247,-0.424476 0.0206,-3.333334 0.0206,-3.333333 3,-0.426068 3,-0.426068 0.179062,2.426068 L 91.024792,66 l -0.265923,6 -0.265923,6 -2.579805,2.213723 -2.579806,2.213724 v 1.441406 1.441405 l 4.377532,5.734879 4.377532,5.734878 1.816094,14.294395 1.816094,14.2944 -3.193626,8.12027 -3.193625,8.12026 -4.42994,4.862 -4.42994,4.86199 z m 194.057794,-24 -0.70139,-4.66667 1.50533,-5.2008 1.50534,-5.2008 1.97974,-1.03458 1.97974,-1.03459 6.64886,-2.01905 6.64886,-2.01905 2.0178,1.75253 2.01781,1.75253 4.66667,1.43711 4.66666,1.4371 11.33334,0.2129 11.33333,0.2129 26,-0.94055 26,-0.94055 5.33334,1.22807 5.33333,1.22806 -30.66667,1.11688 -30.66667,1.11687 -21.05718,-0.32264 -21.05719,-0.32264 -5.60948,5.0401 -5.60948,5.04011 -1.45034,3.39671 -1.45035,3.39671 z"
         id="path24"
         clip-path="url(#clipPath37)" />
      <ellipse
         style="fill:#05180f;fill-opacity:0.488095;stroke:#000000;stroke-width:0.195;stroke-dasharray:none;stroke-opacity:0.345238"
         id="path278"
         cx="40.328274"
         cy="41.38903"
         rx="7.3387456"
         ry="5.8190575"
         transform="rotate(5.1093425)" />
    </g>
  </g>
</svg>
