<?xml version="1.0" encoding="UTF-8"?>
<svg id="_图层_1" data-name="图层_1" xmlns="http://www.w3.org/2000/svg" version="1.1" viewBox="0 0 841.9 595.3">
  <!-- Generator: Adobe Illustrator 29.0.0, SVG Export Plug-In . SVG Version: 2.1.0 Build 186)  -->
  <defs>
    <style>
      .st0 {
        stroke: #1f7b21;
      }

      .st0, .st1, .st2, .st3, .st4, .st5 {
        fill: none;
        stroke-miterlimit: 10;
      }

      .st0, .st2, .st4, .st5 {
        stroke-width: 4px;
      }

      .st1 {
        stroke-width: 2px;
      }

      .st1, .st3, .st5 {
        stroke: #000;
      }

      .st2 {
        stroke: #a50302;
      }

      .st3 {
        stroke-width: 6px;
      }

      .st4 {
        stroke: #0841a3;
      }

      .st6 {
        font-family: TimesNewRomanPS-BoldMT, 'Times New Roman';
        font-size: 49.5px;
        font-weight: 700;
      }
    </style>
  </defs>
  <path class="st1" d="M18,432.1"/>
  <g>
    <path class="st0" d="M111.9,418.7c17,0,14.1.5,17.3-1.2,4.6-2.5,10.5-57.1,11.5-82.1,2.2-52.9,2.9-87.8,5.8-136.8,2.3-38.4,3.5-46,4.6-46,1.5,0,2.7,14,4.6,46,5,82.5,6.2,123.8,6.9,136.8,2.3,42.3,3.5,67.2,6.9,79.6s6.8,2.5,9.2,2.5"/>
    <path class="st0" d="M553.2,418.7c17,0,14.1.5,17.3-1.2,4.6-2.5,10.5-57.1,11.5-82.1,2.2-52.9,2.9-87.8,5.8-136.8,2.3-38.4,3.5-46,4.6-46,1.5,0,2.7,14,4.6,46,5,82.5,6.2,123.8,6.9,136.8,2.3,42.3,3.5,67.2,6.9,79.6s6.8,2.5,9.2,2.5"/>
    <path class="st4" d="M304.3,418.7c17,0,14.1.5,17.3-1.2,4.6-2.5,10.5-57.1,11.5-82.1,2.2-52.9,2.9-87.8,5.8-136.8,2.3-38.4,3.5-46,4.6-46,1.5,0,2.7,14,4.6,46,5,82.5,6.2,123.8,6.9,136.8,2.3,42.3,3.5,67.2,6.9,79.6s6.8,2.5,9.2,2.5"/>
    <path class="st4" d="M459.9,418.7c17,0,14.1.5,17.3-1.2,4.6-2.5,10.5-57.1,11.5-82.1,2.2-52.9,2.9-87.8,5.8-136.8,2.3-38.4,3.5-46,4.6-46,1.5,0,2.7,14,4.6,46,5,82.5,6.2,123.8,6.9,136.8,2.3,42.3,3.5,67.2,6.9,79.6s6.8,2.5,9.2,2.5"/>
    <path class="st2" d="M143,418.7c17,0,14.1.5,17.3-1.2,4.6-2.5,10.5-57.1,11.5-82.1,2.2-52.9,2.9-87.8,5.8-136.8,2.3-38.4,3.5-46,4.6-46,1.5,0,2.7,14,4.6,46,5,82.5,6.2,123.8,6.9,136.8,2.3,42.3,3.5,67.2,6.9,79.6s6.8,2.5,9.2,2.5"/>
    <path class="st2" d="M270.9,418.7c17,0,14.1.5,17.3-1.2,4.6-2.5,10.5-57.1,11.5-82.1,2.2-52.9,2.9-87.8,5.8-136.8,2.3-38.4,3.5-46,4.6-46,1.5,0,2.7,14,4.6,46,5,82.5,6.2,123.8,6.9,136.8,2.3,42.3,3.5,67.2,6.9,79.6s6.8,2.5,9.2,2.5"/>
    <path class="st2" d="M332,418.7c17,0,14.1.4,17.3-1,4.6-2,10.5-47,11.5-67.5,2.2-43.6,2.9-72.2,5.8-112.5,2.3-31.6,3.5-37.9,4.6-37.9,1.5,0,2.7,11.6,4.6,37.9,5,67.9,6.2,101.9,6.9,112.5,2.3,34.8,3.5,55.2,6.9,65.5s6.8,2.1,9.2,2"/>
    <path class="st5" d="M81.9,418.7c17,0,14.1.3,17.3-.7,4.6-1.4,10.5-33.1,11.5-47.6,2.2-30.7,2.9-50.9,5.8-79.4,2.3-22.3,3.5-26.7,4.6-26.7,1.5,0,2.7,8.1,4.6,26.7,5,47.9,6.2,71.8,6.9,79.4,2.3,24.5,3.5,39,6.9,46.2s6.8,1.4,9.2,1.4"/>
    <path class="st2" d="M432.2,418.7c17,0,14.1.4,17.3-1,4.6-2,10.5-47,11.5-67.5,2.2-43.6,2.9-72.2,5.8-112.5,2.3-31.6,3.5-37.9,4.6-37.9,1.5,0,2.7,11.6,4.6,37.9,5,67.9,6.2,101.9,6.9,112.5,2.3,34.8,3.5,55.2,6.9,65.5s6.8,2.1,9.2,2"/>
    <path class="st2" d="M486.4,418.7c17,0,14.1.4,17.3-1,4.6-2,10.5-47,11.5-67.5,2.2-43.6,2.9-72.2,5.8-112.5,2.3-31.6,3.5-37.9,4.6-37.9,1.5,0,2.7,11.6,4.6,37.9,5,67.9,6.2,101.9,6.9,112.5,2.3,34.8,3.5,55.2,6.9,65.5s6.8,2.1,9.2,2"/>
    <path class="st2" d="M519.8,418.7c17,0,14.1.3,17.3-.7,4.6-1.5,10.5-33.9,11.5-48.7,2.2-31.4,2.9-52.1,5.8-81.2,2.3-22.8,3.5-27.3,4.6-27.3,1.5,0,2.7,8.3,4.6,27.3,5,49,6.2,73.5,6.9,81.2,2.3,25.1,3.5,39.8,6.9,47.2,1.1,2.4,6.8,1.5,9.2,1.5"/>
    <path class="st2" d="M579.7,418.7c17,0,14.1.6,17.3-1.5,4.6-3,10.5-67.7,11.5-97.4,2.2-62.8,2.9-104.1,5.8-162.3,2.3-45.6,3.5-54.6,4.6-54.6,1.5,0,2.7,16.7,4.6,54.6,5,97.9,6.2,146.9,6.9,162.3,2.3,50.2,3.5,79.7,6.9,94.4,1.1,4.7,6.8,3,9.2,3"/>
    <path class="st2" d="M608.5,418.8c17,0,14.1.2,17.3-.5,4.6-1,10.5-22,11.5-31.6,2.2-20.4,2.9-33.8,5.8-52.7,2.3-14.8,3.5-17.7,4.6-17.7,1.5,0,2.7,5.4,4.6,17.7,5,31.8,6.2,47.7,6.9,52.7,2.3,16.3,3.5,25.9,6.9,30.7s6.8,1,9.2,1"/>
    <path class="st2" d="M637.3,418.8c17,0,14.1.2,17.3-.5,4.6-1.1,10.5-24.5,11.5-35.2,2.2-22.7,2.9-37.6,5.8-58.7,2.3-16.5,3.5-19.7,4.6-19.7,1.5,0,2.7,6,4.6,19.7,5,35.4,6.2,53.1,6.9,58.7,2.3,18.1,3.5,28.8,6.9,34.1,1.1,1.7,6.8,1.1,9.2,1.1"/>
    <path class="st0" d="M189.1,418.8c3.7-.6,13.5.4,13.8-5.8,1.2-24.2,8.3-51.9,6.9-107.2-1.2-46.8,5.3-86.4,8.1-86.4,2.3,0,4.2,27.3,8.1,81.8,2.3,32.3,3.1,49.5,4.6,49.5,1.5,0,2.3-16.8,5.8-56.5,5-56.4,6.4-57.6,6.9-57.6,3,0,5.9,40.2,9.2,87.6,3.3,46.6,4,68,5.8,68,1.4,0,2.7-13.3,6.9-68,5.2-67.8,6.1-85.2,8.1-85.3,2.4,0,4.3,26.2,9.2,85.3,3.3,40.2,6.2,73,8.1,94.5"/>
    <path class="st4" d="M679.9,418.8c3.7-.7,13.5.4,13.8-6.6,1.2-27.7,4.1-59.4,6.9-122.6,2.3-51.7,5.3-98.9,8.1-98.9,2.3,0,4.2,31.2,8.1,93.6,2.3,36.9,3.1,56.7,4.6,56.7,1.5,0,4.6-57,4.6-105.4s6.4-101.4,6.9-101.4c3,0,4.7,69,8.1,123.3,2.1,34.3,5.2,103.1,8.1,131,1.3,12.7,2.6,23.2,3.5,30.3"/>
    <path class="st5" d="M379.2,418.8c3.7-.7,13.5.4,13.8-6.6,1.2-27.7,4.1-59.4,6.9-122.6,2.3-51.7,5.3-98.9,8.1-98.9,2.3,0,4.2,31.2,8.1,93.6,2.3,36.9,3.1,56.7,4.6,56.7,1.5,0,4.6-57,4.6-105.4s6.4-101.4,6.9-101.4c3,0,4.7,69,8.1,123.3,2.1,34.3,5.2,103.1,8.1,131,1.3,12.7,2.6,23.2,3.5,30.3"/>
    <line class="st3" x1="77" y1="418.4" x2="771.8" y2="418.4"/>
    <text class="st6" transform="translate(90.7 481.8)"><tspan x="0" y="0">G</tspan></text>
    <text class="st6" transform="translate(134.4 481.8)"><tspan x="0" y="0">A</tspan></text>
    <text class="st6" transform="translate(218.4 481.8)"><tspan x="0" y="0">A</tspan></text>
    <text class="st6" transform="translate(260.4 481.8)"><tspan x="0" y="0">A</tspan></text>
    <text class="st6" transform="translate(302.4 481.8)"><tspan x="0" y="0">A</tspan></text>
    <text class="st6" transform="translate(512.5 481.8)"><tspan x="0" y="0">A</tspan></text>
    <text class="st6" transform="translate(177.9 481.8)"><tspan x="0" y="0">T</tspan></text>
    <text class="st6" transform="translate(345.9 481.8)"><tspan x="0" y="0">T</tspan></text>
    <text class="st6" transform="translate(556 481.8)"><tspan x="0" y="0">T</tspan></text>
    <text class="st6" transform="translate(598 481.8)"><tspan x="0" y="0">T</tspan></text>
    <text class="st6" transform="translate(640 481.8)"><tspan x="0" y="0">T</tspan></text>
    <text class="st6" transform="translate(430 481.8)"><tspan x="0" y="0">T</tspan></text>
    <text class="st6" transform="translate(472 481.8)"><tspan x="0" y="0">T</tspan></text>
    <text class="st6" transform="translate(386.1 481.8)"><tspan x="0" y="0">C</tspan></text>
    <text class="st6" transform="translate(680.2 481.8)"><tspan x="0" y="0">C</tspan></text>
    <text class="st6" transform="translate(722.2 481.8)"><tspan x="0" y="0">C</tspan></text>
  </g>
</svg>
