<?xml version="1.0" encoding="UTF-8" standalone="no"?>
<!DOCTYPE svg PUBLIC "-//W3C//DTD SVG 1.1//EN" "http://www.w3.org/Graphics/SVG/1.1/DTD/svg11.dtd">
<svg width="100%" height="100%" viewBox="0 0 7016 4961" version="1.1" xmlns="http://www.w3.org/2000/svg" xmlns:xlink="http://www.w3.org/1999/xlink" xml:space="preserve" xmlns:serif="http://www.serif.com/" style="fill-rule:evenodd;clip-rule:evenodd;stroke-linecap:round;stroke-linejoin:round;stroke-miterlimit:1.5;">
    <g transform="matrix(2,0,0,2,0,0)">
        <g id="_120mL_gas_vial" serif:id="120mL_gas_vial">
            <g transform="matrix(1,0,0,1,-1.01572,1.01572)">
                <path d="M1381.5,258.735C1381.5,258.735 1450.79,233.755 1486.81,226.801C1527,219.041 1583.88,214.179 1622.67,212.175C1631.2,211.734 1639.74,211.537 1648.28,211.531C1651.94,211.528 1659.27,211.624 1659.27,211.624C1659.27,211.624 1699.49,213.251 1719.53,214.775C1753.71,217.376 1799.81,221.005 1827.76,227.776C1849.01,232.924 1889.06,259.242 1889.06,259.242L1847.59,265.805C1847.59,265.805 1825.88,272.06 1811.38,273.954C1794.37,276.175 1760.95,277.73 1745.53,279.131C1712.9,282.097 1679.39,283.627 1647.37,284.007C1616.05,284.378 1553.44,281.406 1553.44,281.406C1553.44,281.406 1529.02,280.655 1504.87,279.09C1494.11,278.394 1485.66,278.468 1477.19,277.443C1476.36,277.343 1473.95,277.374 1473.17,277.271C1472.12,277.132 1469.08,276.59 1467.05,276.452C1459.68,275.948 1448.7,274.833 1448.7,274.833L1428.27,271.836L1381.5,258.735Z" style="fill:rgb(19,81,136);stroke:rgb(18,18,18);stroke-width:2.08px;"/>
            </g>
            <g transform="matrix(1,0,0,1,1.60616,2.44643)">
                <path d="M1425.11,434.333L1423.62,475.994L1421.39,499.056L1419.16,525.093L1414.69,543.692L1408,565.266L1395.35,590.56L1373.03,610.646L1347,631.476L1320.96,650.075L1291.94,664.209C1291.94,664.209 1252.89,684.544 1240.61,692.479C1232.35,697.823 1224.6,704.258 1218.3,711.821C1211.72,719.707 1169.12,739.96 1154.69,763.044C1138.57,788.834 1122.08,859.42 1121.58,866.56C1119.1,902.145 1111.91,1059.24 1111.91,1059.24L1111.91,1273.49L1123.07,1711.67L1126.79,1975.77L1128.28,2005.53L1131.26,2019.66L1140.18,2044.21L1152.09,2067.27L1165.48,2091.08L1184.82,2114.14L1198.95,2129.76L1233.92,2159.52L1271.11,2183.33L1300.87,2198.2L1336.58,2207.88L1366.34,2213.83L1393.86,2220.52L1413.95,2222.75L1439.99,2227.22L1475.7,2230.94L1521.08,2233.17L1561.25,2233.17L1617.79,2231.68L1660.19,2232.43L1705.57,2233.91L1745,2233.91L1785.92,2231.68L1846.92,2228.71L1892.3,2225.73L1932.47,2217.55L1945.12,2212.34L1975.62,2200.44L2006.12,2189.28L2032.9,2177.37L2050.76,2166.96L2082.75,2146.87L2104.32,2126.79L2127.38,2098.52L2138.54,2079.92L2154.91,2055.37L2163.84,2038.26L2172.02,2012.22L2172.76,1887.24L2172.76,1731.01L2170.53,1463.2L2172.02,1106.11L2166.07,990.797L2157.14,896.317L2148.21,868.048L2142.26,850.937L2134.08,824.155L2122.92,803.325L2111.76,786.215L2103.58,770.592L2087.21,751.994L2066.38,724.468L2045.55,704.382L2026.21,690.247L2005.38,676.856L1980.09,660.49L1947.35,641.891L1921.31,625.525L1901.23,609.902L1875.19,590.56L1866.18,576.883L1851.33,554.029L1843.71,535.746L1839.52,520.511L1834.95,500.323L1833.8,477.85L1833.04,452.33L1831.52,438.999L1830.24,432.931C1830.24,432.931 1818.8,431.998 1813.93,433.264C1809.16,434.504 1805.1,438.043 1801.05,440.523C1797.14,442.912 1793.54,445.777 1789.62,448.141C1785.3,450.743 1779.82,453.445 1775.15,456.139C1770.58,458.775 1766.04,461.641 1761.59,464.307C1757.23,466.925 1741.63,473.28 1741.63,473.28L1722.2,475.184L1706.2,475.565L1689.83,476.327L1671.35,476.708L1642.21,476.708L1608.69,476.327L1546.99,477.47L1530.99,475.946L1513.09,474.803L1502.81,471.375L1444.15,441.665L1437.67,437.095L1431.58,432.524L1425.11,434.333Z" style="fill:rgb(217,241,247);stroke:rgb(51,51,51);stroke-width:4.17px;"/>
            </g>
            <g transform="matrix(1.02813,0,0,1.57143,-42.642,-150.808)">
                <ellipse cx="1627.37" cy="250.054" rx="101.572" ry="15.553" style="fill:rgb(102,102,102);stroke:rgb(18,18,18);stroke-width:1.57px;"/>
            </g>
            <g transform="matrix(1,0,0,1,3.4452,-4.11056)">
                <ellipse cx="1629.91" cy="243.389" rx="50.151" ry="9.522" style="fill:rgb(128,128,128);stroke:rgb(18,18,18);stroke-width:2.08px;"/>
            </g>
            <g transform="matrix(1,0,0,1,0.176502,1.52357)">
                <path d="M1371.88,273.496C1370.81,297.535 1362.76,377.924 1371.88,404.428C1378.55,423.818 1415.3,427.433 1426.61,432.524C1430.66,434.348 1435.31,434.386 1439.71,434.972C1445.45,435.736 1454.74,436.293 1461.04,437.105C1466.55,437.817 1473.48,439.188 1477.49,439.848C1480.03,440.265 1482.55,440.805 1485.11,441.067C1489.58,441.524 1497.9,442.195 1504.31,442.59C1511.72,443.047 1521.17,443.483 1529.6,443.809C1538.79,444.165 1549.51,444.532 1559.46,444.723C1572.67,444.977 1593.39,445.028 1608.83,445.333C1623.25,445.617 1638.94,446.653 1652.1,446.552C1664,446.46 1675.86,445.239 1687.75,444.723C1705.14,443.969 1742.61,442.641 1756.45,442.025C1761.24,441.812 1766.71,441.546 1770.81,441.026C1774.26,440.588 1777.7,439.912 1781.04,438.904C1784.83,437.76 1790.44,435.225 1793.52,434.162C1795.48,433.486 1797.5,432.994 1799.51,432.524C1801.65,432.025 1804.05,431.322 1806.38,431.166C1809.46,430.961 1815.57,431.065 1817.98,431.291C1819.02,431.388 1819.82,432.435 1820.85,432.524C1823.24,432.729 1828.6,433.405 1832.32,432.524C1836.45,431.544 1841.22,428.647 1845.65,426.646C1851.04,424.206 1858.47,420.869 1864.69,417.885C1870.84,414.939 1878.85,411.982 1882.98,408.744C1886.16,406.243 1889.27,402.507 1889.45,398.46C1890.53,373.829 1891.1,284.128 1889.45,260.957C1889.21,257.625 1882.84,258.875 1879.55,259.433C1867.25,261.519 1836.12,270.885 1815.65,273.472C1766.15,279.727 1696.67,284.915 1642.34,284.787C1588.2,284.659 1501.51,281.925 1441.36,275.362C1411.73,272.129 1392.39,259.912 1378.29,260.195C1373.91,260.283 1372.1,268.579 1371.88,273.496Z" style="fill:rgb(19,81,136);stroke:black;stroke-width:2.08px;"/>
            </g>
            <g id="reflect">
                <g transform="matrix(1.25231,0,0,1.31076,-421.687,-619.783)">
                    <path d="M1287.32,2033.13C1290.43,2028.43 1295.8,2025 1299.82,2021.25C1303.64,2017.66 1307.74,2013.53 1311.39,2010.58C1314.64,2007.97 1318.21,2005.76 1321.76,2003.57C1325.46,2001.29 1329.61,1998.98 1333.64,1996.87C1338.11,1994.53 1344.2,1991.84 1348.57,1989.56C1352.4,1987.55 1355.92,1984.97 1359.84,1983.16C1364.57,1980.97 1371.29,1978.87 1376.91,1976.45C1382.7,1973.96 1388.58,1970.72 1394.58,1968.23C1401.18,1965.48 1409.07,1962.03 1416.52,1960C1423.96,1957.97 1432.05,1957.56 1439.31,1956.04C1446.3,1954.57 1453.08,1952.17 1460.1,1950.86C1467.17,1949.54 1474.54,1949.17 1481.73,1948.11C1489.35,1947 1498.59,1944.97 1505.8,1944.15C1512.17,1943.43 1519.26,1943.39 1525,1943.24C1530.08,1943.1 1535.56,1943.24 1540.24,1943.24L1553.03,1943.24C1557.96,1943.24 1564.21,1943.2 1569.79,1943.24C1576.6,1943.29 1585.99,1943.49 1593.87,1943.54C1601.59,1943.59 1609.31,1943.74 1617.03,1943.54C1625.1,1943.34 1633.89,1942.37 1642.34,1942.32C1652.85,1942.27 1669.44,1943.14 1680.1,1943.24C1688.84,1943.32 1697.57,1943.08 1706.31,1942.93C1718.35,1942.73 1737.02,1941.13 1752.34,1942.04C1771.14,1943.16 1805.96,1947.76 1819.11,1949.64C1823.29,1950.23 1827.19,1952.23 1831.24,1953.29C1835.27,1954.35 1839.41,1954.93 1843.43,1956.04C1848.96,1957.56 1858.61,1960.4 1864.45,1962.43C1869.23,1964.1 1873.73,1966.48 1878.47,1968.23C1884.41,1970.41 1892.82,1973.34 1900.11,1975.54C1908.18,1977.98 1918.15,1979.86 1926.92,1982.85C1935.86,1985.9 1944.75,1990.29 1953.74,1993.82C1962.78,1997.38 1974.46,2001.13 1981.16,2004.18C1985.73,2006.26 1989.98,2009.15 1993.96,2012.1C1997.92,2015.04 2001.71,2018.29 2005.04,2021.91C2008.38,2025.52 2012.27,2029.15 2013.97,2033.81C2015.95,2039.27 2019.94,2048.3 2016.94,2054.64C2012.73,2063.57 1999.98,2078.42 1988.67,2087.37C1976.77,2096.8 1959.41,2104.36 1945.53,2111.18C1932.46,2117.59 1918.91,2122.98 1905.36,2128.29C1890.48,2134.12 1873.14,2141.89 1856.26,2146.14C1837.04,2150.98 1812.33,2155.21 1790.05,2157.3C1761.03,2160.03 1713.17,2161.15 1682.17,2162.51C1656.14,2163.66 1629.73,2166.05 1604.06,2165.49C1578.68,2164.93 1553.35,2162.84 1528.18,2159.12C1513.03,2156.88 1493.65,2153.56 1475.34,2150.21C1459.17,2147.25 1442.56,2144.88 1431.69,2142.61C1416.85,2139.52 1403.06,2133.65 1389.06,2128.29C1373.78,2122.43 1355.09,2116.51 1339.96,2107.46C1324.84,2098.41 1308.1,2083.65 1298.3,2073.98C1291.21,2066.97 1283.02,2056.24 1281.19,2049.43C1279.69,2043.83 1284.22,2037.83 1287.32,2033.13Z" style="fill:rgb(176,226,237);fill-opacity:0.62;stroke:rgb(176,226,237);stroke-width:2.6px;"/>
                </g>
                <g transform="matrix(1,0,0,1,-0.422583,0)">
                    <path d="M1569.21,616.609C1569.6,609.828 1582.87,604.422 1591.3,601.498C1600.79,598.204 1614.49,597.931 1626.17,596.848C1638.7,595.686 1655.45,593.749 1666.49,594.524C1675.42,595.15 1684.23,598.786 1692.42,601.498C1700.35,604.12 1711.41,606.729 1715.67,610.797C1719.36,614.316 1720.95,621.752 1718,625.908C1713.74,631.914 1699.34,642.763 1690.1,646.831C1681.62,650.562 1671.79,649.916 1662.54,650.319C1649.17,650.9 1622.15,651.675 1609.89,650.319C1602.46,649.496 1594.73,646.956 1588.97,642.182C1582.19,636.564 1568.82,623.39 1569.21,616.609Z" style="fill:rgb(176,226,237);stroke:rgb(176,226,237);stroke-opacity:0.76;stroke-width:2.08px;"/>
                </g>
                <path d="M1519.23,808.405C1513.61,813.248 1503.34,821.191 1499.47,829.328C1495.59,837.465 1495.98,848.701 1495.98,857.225C1495.98,865.061 1497.18,872.977 1499.47,880.473C1502.18,889.385 1507.41,902.171 1512.25,910.696C1516.62,918.378 1522.38,925.276 1528.53,931.619C1534.73,938.012 1541.43,944.807 1549.45,949.055C1559.33,954.286 1576.18,959.323 1587.81,963.004C1598.11,966.266 1608.57,969.157 1619.19,971.14C1631.65,973.465 1650.14,975.984 1662.54,976.952C1672.86,977.759 1683.24,976.8 1693.59,976.952C1706.7,977.146 1725.73,981.526 1741.25,978.115C1758.88,974.24 1784.64,962.422 1799.37,953.704C1811.16,946.719 1823.39,936.656 1829.59,925.807C1835.79,914.958 1838.09,901.133 1836.56,888.61C1834.82,874.274 1825.31,852.576 1819.11,839.789C1814.14,829.538 1808.4,818.825 1799.37,811.892C1788.5,803.561 1766.53,794.65 1753.94,789.806C1744.32,786.106 1734.07,783.794 1723.81,782.832C1705.21,781.088 1666.56,778.957 1642.34,779.345C1620.98,779.687 1596.7,781.67 1578.51,785.157C1562.87,788.155 1543.06,796.393 1533.18,800.268C1528.16,802.233 1523.3,804.89 1519.23,808.405Z" style="fill:rgb(176,226,237);stroke:rgb(176,226,237);stroke-width:2.08px;"/>
            </g>
            <g transform="matrix(1,0,0,1.01355,0,-3.41243)">
                <path d="M1450.17,441.669L1511.21,472.02L1551.6,474.626L1629.21,473.801L1734.93,471.808L1747.63,469.382L1755.51,466.324L1762.41,462.752L1809.36,435.441L1814.23,432.524L1819.11,432.524L1811.8,430.554L1801.13,432.524C1801.13,432.524 1791.81,435.922 1784.24,438.168C1782.74,438.614 1781.31,439.014 1780.03,439.333C1779.11,439.562 1775.84,440.846 1775.84,440.846L1743.36,443.476L1646.73,447.102C1646.73,447.102 1625.54,445.832 1602.34,445.461C1600.61,445.433 1599.23,445.418 1597.51,445.412C1583.64,445.367 1570.09,445.941 1554.77,445.461C1533.09,444.781 1513.38,443.16 1502.21,442.563C1483.54,441.565 1455.48,436.777 1455.48,436.777C1447.61,436.032 1434.17,433.967 1439.31,436.302L1442.93,438.673L1446.8,440.545L1450.17,441.669Z" style="fill:rgb(102,102,102);stroke:black;stroke-width:2.07px;"/>
            </g>
            <g transform="matrix(1,0,0,1,-2.27374e-13,0.171005)">
                <path d="M1449.35,457.166C1436.12,458.575 1446.9,487.494 1446.41,496.981C1446.12,502.677 1446.54,509.549 1446.41,514.092C1446.32,517.482 1445.93,520.858 1445.67,524.239C1445.38,527.835 1445.11,531.865 1444.71,535.666C1444.32,539.475 1443.93,543.308 1443.29,547.093C1442.38,552.41 1441.21,561.773 1439.31,567.566C1437.63,572.667 1434.24,577.034 1431.86,581.85C1426.89,591.927 1415.83,617.717 1409.48,628.033C1405.6,634.341 1399.07,638.575 1393.77,643.745C1387.5,649.855 1379.4,657.961 1371.87,664.694C1362.65,672.932 1350.73,685.167 1338.49,693.17C1324.93,702.033 1306.45,709.506 1290.54,717.871C1271.65,727.8 1243.32,740.393 1225.16,752.743C1208.99,763.735 1192.95,776.718 1181.57,791.974C1170.18,807.231 1163.89,828.541 1156.87,844.282C1150.67,858.164 1140.62,871.265 1139.43,886.419C1135.31,938.727 1133.38,1069.01 1132.16,1158.13C1130.97,1245.79 1131.1,1333.46 1132.16,1421.12C1133.86,1560.37 1138.7,1891.89 1142.34,1993.6C1142.81,2006.77 1148.63,2019.33 1153.96,2031.38C1159.53,2043.97 1166.18,2058.22 1175.75,2069.16C1192.07,2087.81 1230.77,2127.18 1251.84,2143.26C1266.43,2154.4 1286.51,2159.12 1302.16,2165.66C1316.54,2171.66 1330.95,2177.64 1345.75,2182.49C1363.19,2188.2 1386.13,2195.32 1406.78,2199.93C1429.54,2205.01 1456.95,2210.01 1482.34,2213.01C1508.97,2216.15 1541.18,2218.33 1566.61,2218.82C1589.4,2219.25 1612.14,2216.35 1634.93,2215.91C1660.11,2215.43 1691.09,2216.4 1717.72,2215.91C1743.4,2215.44 1772.94,2214.46 1794.73,2213.01C1812.72,2211.81 1830.74,2210.31 1848.49,2207.19C1867.8,2203.8 1891.9,2198.06 1910.6,2192.66C1927.64,2187.74 1944.26,2181.4 1960.73,2174.79C1979.58,2167.22 2008.01,2155.15 2023.74,2147.24C2034.79,2141.69 2044.78,2134.22 2055.09,2127.38C2068.5,2118.48 2090.46,2106.9 2104.22,2093.86C2117.72,2081.06 2129.89,2062.96 2137.64,2049.16C2144.21,2037.44 2149.82,2024.44 2150.72,2011.04C2153.86,1964 2155.8,1819.97 2156.53,1766.93C2156.87,1742.23 2155.22,1717.54 2155.07,1692.83C2154.83,1650.45 2154.83,1561.34 2155.07,1512.66C2155.26,1475.36 2156.67,1438.08 2156.53,1400.78C2156.28,1337.82 2154.83,1200.27 2153.62,1134.88C2152.84,1092.73 2151.68,1046.73 2149.26,1008.47C2147.08,973.985 2145.87,933.399 2139.09,905.308C2133.45,881.928 2119.47,859.296 2108.58,839.923C2098.5,822.008 2085.57,804.325 2073.71,789.068C2062.54,774.718 2046.66,759.04 2037.38,748.384C2030.76,740.78 2025.8,731.552 2018.02,725.136C2004.22,713.754 1975.2,695.809 1954.56,680.093C1933.57,664.11 1909.52,643.768 1892.08,629.238C1877.84,617.367 1860.55,608.123 1849.94,592.913C1837.78,575.478 1824.25,543.963 1819.11,524.623C1815.02,509.239 1819.11,488.525 1819.11,476.871C1819.11,469.48 1822.97,458.499 1819.11,454.697C1815.24,450.896 1803.33,451.859 1795.91,454.063C1786.39,456.895 1774.2,468.152 1761.94,471.691C1746.02,476.286 1721.14,480.386 1700.4,481.636C1670.44,483.442 1611.36,479.004 1582.18,482.524C1501.86,492.217 1471.98,454.756 1449.35,457.166Z" style="fill:rgb(221,221,225);fill-opacity:0;stroke:rgb(121,205,225);stroke-width:2.08px;"/>
            </g>
        </g>
    </g>
</svg>
