<?xml version="1.0" encoding="UTF-8"?>
<svg id="Layer_1" data-name="Layer 1" xmlns="http://www.w3.org/2000/svg" viewBox="0 0 577.75 437.07">
  <defs>
    <style>
      .cls-1 {
        fill: #ddb6dd;
      }

      .cls-2 {
        fill: #fff9b3;
      }
    </style>
  </defs>
  <path class="cls-1" d="M255.44,2.97S68.33-31.31,10.27,133.18c-58.06,164.49,147.25,233.97,187.21,225.55,39.96-8.42,167.14,18.67,209.56-102.08,42.42-120.75-10.38-143.35-10.38-143.35-122.41-57.52-225.44-65.42-287.78,30.89,0,0-34.55,32.68-17.58-5.82,16.98-38.49,55.99-64.48,55.99-64.48,0,0,56.3-28.95,77.07-29.19,20.77-.24,78.64,4.43,94.46,7.07,15.82,2.64,95.74,36.85,95.74,36.85,38.56,20.38,139.87,69.04,132.16,113.55-4.83,123.72-70.89,138.33-77.61,143.43l-31.64,24.24c-29.78,78.05,26.01,82.01,44.79,43.12,18.78-38.89,75.86-117.92,75.86-117.92,36.66-78.38,14.45-119.7-6.02-144.26,0,0-55.81-47.63-59.66-46.03,0,0-48.59-45.74-76.05-59.42-27.46-13.68-59.18-30.9-68.48-31.85-9.3-.95-51.17-10.32-59.51-8.63-8.34,1.69-32.96-1.89-32.96-1.89Z"/>
  <path class="cls-2" d="M325.54,204.29c-12.92-19.74-119.29-28.69-161.39,32.28,0,0-56.91,76.45,23.78,74.75,80.7-1.7,174.13-20.39,137.61-107.03Z"/>
  <path class="cls-1" d="M132.84,85.21s.98,19.76,6.14,23.08,13.48-6.48,13.48-6.48l-9.81-30.86-9.81,14.26Z"/>
  <path class="cls-1" d="M179.26,58.87s3.57,23.34,6.5,26.28,16.17-4.41,16.17-4.41l-14.7-28.9-7.97,7.03Z"/>
  <path class="cls-1" d="M224.37,44.71s2.06,27.21,5.49,31.13,11.76,0,11.76,0c0,0-5.37-27.43-2.44-35.76l-14.81,4.63Z"/>
  <path class="cls-1" d="M274.79,43.8s-2.47,27.64,0,33.78c2.47,6.14,10.84,2.92,10.84,2.92v-40.42l-10.84,3.72Z"/>
  <path class="cls-1" d="M318.83,51.78s-8.08,26.52-4.86,34.06c3.22,7.54,9.02,4.11,9.02,4.11l5.8-43.58-9.95,5.4Z"/>
  <path class="cls-1" d="M364.44,67.9s-13.67,28.68-12.12,34.88,6,3.1,6,3.1l15.7-37.98h-9.58Z"/>
</svg>