<?xml version="1.0" encoding="UTF-8"?>
<svg id="Capa_1" xmlns="http://www.w3.org/2000/svg" version="1.1" viewBox="0 0 595.28 841.89">
  <!-- Generator: Adobe Illustrator 29.8.7, SVG Export Plug-In . SVG Version: 2.1.1 Build 1)  -->
  <defs>
    <style>
      .st0 {
        fill: #fff;
        stroke-width: 16px;
      }

      .st0, .st1, .st2 {
        stroke: #1d1d1b;
        stroke-miterlimit: 10;
      }

      .st1 {
        stroke-width: 12px;
      }

      .st1, .st2 {
        fill: none;
      }

      .st2 {
        stroke-width: 20px;
      }
    </style>
  </defs>
  <rect class="st0" x="134" y="201" width="330.5" height="500.5" rx="143.34" ry="143.34" transform="translate(-242.19 456.17) rotate(-56.97)"/>
  <path class="st1" d="M246.35,234.67c-4.95,17.86-2.49,36.42,4.14,52.12s17.19,28.83,28.6,40.74c25.22,26.31,54.96,47.37,84.99,67.62,29.55,19.93,61.01,39.71,97.72,41.67,23.58,1.26,47.78-4.96,71.55-11.14"/>
  <path class="st1" d="M70.96,480.08c14.75-12.06,33.32-17.41,50.96-17.64,17.64-.23,34.51,4.31,50.6,10.16,35.55,12.93,68.06,32.3,99.94,52.27,31.37,19.66,63.4,41.17,80.85,75.01,11.21,21.74,15.61,47.15,19.88,72.14"/>
  <path class="st1" d="M-124,388h-1"/>
  <path class="st2" d="M136.41,374.62c-12.08-7.22-14.97-24.66-9.31-37.66s17.77-22.1,30.36-28.56c10.29-5.28,23.99-8.79,32.39-.93,6.51,6.09,6.67,16.7,3.32,25.03-3.35,8.33-9.47,15.18-14.52,22.61-4.54,6.68-8.37,14.84-6.2,22.58,2.72,9.68,14.49,14.65,24.28,12.33,9.79-2.32,17.47-10.18,22.6-18.88,2.64-4.48,4.8-9.54,4.3-14.7-.77-8.06-8.2-14.31-16.14-15.72s-16.14,1.14-23.32,4.9c-12.02,6.29-22.21,16.08-28.99,27.86-2.59,4.49-4.72,9.4-5,14.57-.66,11.93,9.39,22.68,21.03,25.12,11.64,2.44,23.97-2.19,33.16-9.85s15.7-18.04,21.35-28.59c3.78-7.07,8.3-15.14,16.13-16.68,9.08-1.79,17.45,7.16,18.31,16.39s-3.66,18.11-8.7,25.92-10.85,15.44-13.12,24.45.17,20.04,8.31,24.37c7.34,3.91,16.42,1.2,24.02-2.29,12.32-5.66,23.79-13.22,33.86-22.33,4.99-4.52,9.76-9.58,12.25-15.84s2.32-13.94-1.95-19.09c-6.59-7.95-19.16-6.65-28.86-2.97-26.95,10.22-47.45,32.33-71.29,48.6-2.36,1.61-4.97,3.23-7.81,3.11-4.84-.2-8.1-5.66-7.61-10.5s3.63-8.99,6.95-12.55c7.26-7.77,16-14.16,25.59-18.7,6.53-3.09,13.86-5.37,20.9-3.85,13.92,3,20.75,19.48,20.1,33.77-.65,14.3-6.39,27.97-7.63,42.23-.18,2.12-.18,4.5,1.25,6.05,2.14,2.33,5.96,1.43,8.88.18,23.98-10.26,41.31-31.68,63.19-45.94,5.57-3.63,13.65-6.54,18.18-1.73,5.73,6.09-1.24,15.57-7.48,21.22-14.28,12.95-26.88,27.76-37.38,43.94-.84,1.29-1.69,2.75-1.43,4.25.24,1.38,1.35,2.4,2.4,3.32,6.03,5.26,12.86,10.83,20.88,10.62,4.93-.13,9.52-2.47,13.81-4.94,17.43-10.04,33.13-23.11,46.18-38.46,1.87-2.2,3.75-4.61,4.1-7.46.65-5.41-4.27-9.63-8.67-12.77-9.08-6.47-19.34-13.26-30.43-11.79-5.88.78-11.2,3.84-16.35,6.83-6.63,3.86-13.26,7.72-19.9,11.58-6.97,4.06-15.08,11.06-12.08,18.52,1.3,3.24,4.42,5.3,7.37,7.16,21.55,13.58,43.1,27.16,64.65,40.74,1.63,1.03,3.38,2.09,5.31,2.06,1.64-.03,3.16-.85,4.59-1.68,16.32-9.48,30.45-22.76,40.93-38.5,3.43-5.15,6.91-10.92,12.69-13.08,6.8-2.54,14.75,1.2,18.77,7.21,4.02,6.01,4.77,13.7,4.11,20.94-2.26,24.88-21.11,47.51-45.14,54.19-6.8,1.89-14.95,3.37-18.02,9.75-2.94,6.13,1.03,13.8,6.97,16.99,5.94,3.19,13.12,2.95,19.82,2.04,28.57-3.88,55.57-18.92,74.04-41.23,2.85-3.45,5.65-7.5,5.3-11.95-.29-3.72-2.75-6.9-5.47-9.43-13.85-12.92-35.38-14.17-53.66-8.92s-34.46,15.96-51.29,24.89c-10.27,5.45-21.65,10.4-33.1,8.69-13.59-2.02-23.91-12.8-33.14-22.97"/>
</svg>